<?xml version="1.0" encoding="utf-8"?>
<!-- Generator: Adobe Illustrator 16.0.0, SVG Export Plug-In . SVG Version: 6.00 Build 0)  -->
<!DOCTYPE svg PUBLIC "-//W3C//DTD SVG 1.1//EN" "http://www.w3.org/Graphics/SVG/1.1/DTD/svg11.dtd">
<svg version="1.1" id="Layer_1" xmlns="http://www.w3.org/2000/svg" xmlns:xlink="http://www.w3.org/1999/xlink" x="0px" y="0px"
	 width="1215px" height="298px" viewBox="0 0 1215 298" enable-background="new 0 0 1215 298" xml:space="preserve">
<g opacity="0.7">
	<path fill="#FFFFFF" d="M149.507,3.04h4c-2.668,2.668-6.418,6.918-11.25,12.75c-3.168,4.168-5.418,9-6.75,14.5v112.75
		c1.164,4.836,3.582,9.086,7.25,12.75l8.25-6.5l4.75,5l-28.75,24.75c-0.168-0.168-0.336-0.25-0.5-0.25h-0.75
		c-1.668-0.336-2.875-0.75-3.625-1.25s-1.793-1-3.125-1.5c-6.836-7.832-11.168-16.414-13-25.75l-38.75,28.75l-43.75-23.75h-2.25
		l-0.5,0.5c-0.168,0.168-0.418,0.25-0.75,0.25h-1c-1.336,0.336-2.375,0.668-3.125,1c-0.75,0.336-1.293,1.168-1.625,2.5v0.25
		c-0.168,0.168-0.25,0.336-0.25,0.5v0.75c-0.336,0.336-0.5,0.668-0.5,1v2c0,0.168,0.082,0.336,0.25,0.5v0.75l0.5,1.5
		c0,0.168,0.082,0.336,0.25,0.5c0.164,1,0.414,2.211,0.75,3.625c0.332,1.418,0.5,2.461,0.5,3.125v0.5
		c-0.168,0.168-0.293,0.375-0.375,0.625c-0.086,0.25-0.293,0.543-0.625,0.875v0.5c-0.168,0-0.25,0.082-0.25,0.25v0.5
		c-0.168,0-0.336,0.039-0.5,0.125c-0.168,0.082-0.375,0.207-0.625,0.375c-0.25,0.164-0.461,0.332-0.625,0.5
		c-0.668,0.164-1.168,0.332-1.5,0.5h-0.75c-0.168,0-0.336,0.082-0.5,0.25h-0.5c-1.836,0-3.418-0.918-4.75-2.75
		c-1.336-1.332-2-3.332-2-6c0.664-2.164,1.832-5.082,3.5-8.75c1-2,2.25-4.914,3.75-8.75l24.75-36.75c-8.336-6.332-15-14-20-23
		c-5.5-9.5-8.25-19.164-8.25-29c0-1.664,0.25-3.75,0.75-6.25c0.5-3.164,0.832-5.164,1-6c0-0.164,0.164-0.914,0.5-2.25
		c0,0.5,0.414-0.914,1.25-4.25c0-0.5,0.164-1.164,0.5-2C15.339,31.125,23.089,22,33.757,15.915c10.664-6.082,22-9.457,34-10.125
		c0.164,0,0.582-0.082,1.25-0.25h6.5c0.5,0.168,1.332,0.25,2.5,0.25h2.75c0.5,0.168,1.414,0.336,2.75,0.5
		c1.332,0.168,2.414,0.293,3.25,0.375c0.832,0.086,2.082,0.293,3.75,0.625c2.5,0.168,4.75,0.668,6.75,1.5l24.75,12.25
		c0.164,0.168,0.414,0.086,0.75-0.25l1-1c4.332-4.332,8.164-7.664,11.5-10c4.5-3.164,9.25-5.25,14.25-6.25V3.04z M61.757,26.29
		c-12.5,1.336-23.375,6.125-32.625,14.375S15.257,59.29,15.257,71.79v1.75l0.5,1.5c0,0.168,0.082,0.418,0.25,0.75v1
		c0,0.168,0.082,0.418,0.25,0.75v0.75c1.832,12.668,9.25,23.586,22.25,32.75l35-50.75c-0.668,0-1.25-0.25-1.75-0.75
		c0.164,0-0.375-0.207-1.625-0.625c-1.25-0.414-2-0.664-2.25-0.75c-0.25-0.082-0.961-0.289-2.125-0.625
		c-1.168-0.332-1.961-0.5-2.375-0.5c-0.418,0-1.043-0.082-1.875-0.25h-1.5c-8.336,0-14.5,3.75-18.5,11.25
		c-0.168-0.5-0.336-1-0.5-1.5c-0.168-0.5-0.25-1.164-0.25-2c-0.168-0.164-0.25-0.414-0.25-0.75v-1c0-8.832,6.5-15.664,19.5-20.5
		c1.164-0.5,2.875-0.957,5.125-1.375c2.25-0.414,3.875-0.625,4.875-0.625c0.5,0,3.664,0.418,9.5,1.25h0.75
		c0,0.168,0.164,0.25,0.5,0.25h0.75c0,0.168,0.164,0.25,0.5,0.25c1,0.336,1.664,0.5,2,0.5h1c0.164,0.168,0.5,0.25,1,0.25l6.75-8.75
		c-4-2.164-8.625-3.914-13.875-5.25c-5.25-1.332-10.125-2-14.625-2L61.757,26.29z M39.507,123.79l-7.75,12.5l51.5,24.25h2.25
		l20.5-17l-0.5-19.75H39.507z M98.257,39.04l-44.25,64.25h51.5l-2-55.25l-3.75-9H98.257z"/>
	<path fill="#FFFFFF" d="M214.005,8.79h7.25c-4.668,4.168-7.75,8.168-9.25,12c-1.668,4.5-2.918,9.25-3.75,14.25v111l13.5,10.25
		l4.5-3.5l3.75,4.25l-23.75,21c-5-5-9.836-9.082-14.5-12.25c-5.336-3.664-11-6.664-17-9c6.5-4.164,9.75-9.832,9.75-17v-110
		c-1.836-6.664-5.418-12.164-10.75-16.5l1.5-0.5c0.5,0.5,1.125,0.75,1.875,0.75s1.75,0.25,3,0.75s2.164,0.875,2.75,1.125
		c0.582,0.25,1.582,0.75,3,1.5c1.414,0.75,3.207,2.125,5.375,4.125l0.75,0.75c0,0.836,0.414,1.25,1.25,1.25
		c0,0.336,0.164,0.5,0.5,0.5c3.5-4,6.5-6.914,9-8.75c3.164-2.664,6.914-4.5,11.25-5.5V8.79z"/>
	<path fill="#FFFFFF" d="M264.255,51.54h2l18.25,16c-1.168,3.5-2.836,6.336-5,8.5l-2.25,2.25l-0.5,65.25
		c0,2.5,0.539,4.75,1.625,6.75c1.082,2,2.625,3.836,4.625,5.5h0.25c0,0.168,0.125,0.336,0.375,0.5c0.25,0.168,0.414,0.25,0.5,0.25
		c0.082,0,0.207,0.086,0.375,0.25v0.25h0.5c0,0.336,0.164,0.5,0.5,0.5h0.5l1-1.25h0.5l17.5-16v-62.5l-7.25-8.75l19.75-17.5l18,16
		l1,2.5l-7,8.5v70.75l1.25,3.75c0.5,0.5,1.164,1.336,2,2.5c0,0.336,0.164,0.5,0.5,0.5c0,0.836,0.414,1.25,1.25,1.25
		c0,0.168,0.164,0.418,0.5,0.75l5.25-3.75l3.5,3.25l-21.5,20.5h-1.25c-0.168-0.168-0.375-0.25-0.625-0.25s-0.875-0.168-1.875-0.5
		c-0.168-0.168-0.668-0.418-1.5-0.75c-8.336-5.664-12.5-14.082-12.5-25.25v-0.5c0-0.164,0.082-0.332,0.25-0.5v-1
		c0-0.164,0.082-0.332,0.25-0.5v-0.25l-34,28.5c-0.5-0.336-0.836-0.586-1-0.75l-0.25-0.25h-0.5c-4-3.164-7.461-6.625-10.375-10.375
		c-2.918-3.75-4.875-7.875-5.875-12.375v-75.5l-4.75-5l-4,2.5l-2.75-3L264.255,51.54z"/>
	<path fill="#FFFFFF" d="M375.753,51.54c9.332,7.336,14.75,16.836,16.25,28.5l0.25,0.25v1.25l31-29.5c1.164,0.336,2.75,1,4.75,2
		c5,4.668,8.332,8.75,10,12.25c2.664,4,4.664,8.918,6,14.75l29.25-29l17.25,18l10.75-10.75l3.5,3.75
		c-4.836,6.336-8.086,12.336-9.75,18v65c0,0.668,0.164,1.5,0.5,2.5c0-0.332,0.25,0.25,0.75,1.75c0,0.5,0.289,1.211,0.875,2.125
		c0.582,0.918,0.957,1.543,1.125,1.875l0.75,0.75c0.832,0.836,1.457,1.336,1.875,1.5c0.414,0.168,0.707,0.25,0.875,0.25l4.75-3.5
		l3,3.75l-20.75,20c-6.836-1.164-11.418-4.164-13.75-9c-2.836-6-4.25-11.582-4.25-16.75v-64.5c-2-6.164-5.75-10.5-11.25-13l-16,15.5
		v61.5l8.25,9.25l-0.5,2l-19.25,14.5l-3-0.5l-18.25-15.5c3.664-1.332,6.414-4.75,8.25-10.25v-61.5c-0.168-0.164-0.25-0.5-0.25-1
		v-1.25c-0.168-0.164-0.25-0.5-0.25-1c-0.168-1.332-0.918-3.332-2.25-6c-0.336-0.664-0.836-1.5-1.5-2.5
		c-0.168-0.332-0.418-0.75-0.75-1.25c-0.336-0.5-0.75-0.832-1.25-1c-0.5-0.164-1.25-0.414-2.25-0.75c-0.168,0-0.5-0.082-1-0.25
		h-1.25l-17,16.5v59c0.664,1,1.664,2.668,3,5c1.332,1.668,2.5,3,3.5,4c0.332,0.168,0.664,0.543,1,1.125
		c0.332,0.586,0.539,0.918,0.625,1c0.082,0.086,0.289,0.293,0.625,0.625l-20.75,17l-19.5-17.5l7.75-8.25l-0.5-73.75l-4.75-5.75
		l-6.75,3.5l-2.5-3.5L375.753,51.54z"/>
	<path fill="#FFFFFF" d="M542.501,51.54c4.5,4,8.332,8.336,11.5,13c3.164,4.668,4.832,9.836,5,15.5l31-28l17,17l10.25-8.75
		l3.25,3.25c-0.168,0.5-0.336,0.836-0.5,1l-0.5,0.5c-4.5,4.5-7.586,9.836-9.25,16v67c0.332,1.668,0.625,2.668,0.875,3
		c0.25,0.336,0.457,0.918,0.625,1.75c0.164,0.168,0.414,0.461,0.75,0.875c0.332,0.418,0.583,0.711,0.75,0.875
		c0.164,0.168,0.582,0.668,1.25,1.5c0.664,0.836,1.25,1.336,1.75,1.5l5.25-4.25l4,4.25l-23,19.5c-3.668-1.164-6.75-3.164-9.25-6
		c-2.836-3.832-4.75-7.164-5.75-10v-75.5c-0.336,0-0.5-0.125-0.5-0.375s-0.086-0.539-0.25-0.875c-0.168-0.332-0.336-0.5-0.5-0.5
		c-0.336-1.164-0.836-2.164-1.5-3c-1-2-2.25-3.5-3.75-4.5c-1.336-1.664-2.836-2.664-4.5-3l-2.5-0.5l-15.5,15v60.25
		c0.5,1.5,1.289,3.168,2.375,5c1.082,1.836,2.125,3.25,3.125,4.25c0.332,0.168,0.664,0.543,1,1.125c0.332,0.586,0.539,0.918,0.625,1
		c0.082,0.086,0.289,0.293,0.625,0.625c-7.836,8.5-14.418,14-19.75,16.5l-18.5-17l7.25-7.75V82.04c0-0.832-0.418-1.914-1.25-3.25
		c-0.5-0.832-1.336-2-2.5-3.5c-1-0.5-1.5-1-1.5-1.5l-5.5,2l-2.25-3.5L542.501,51.54z"/>
	<path fill="#FFFFFF" d="M659,53.04l18.25,16.5l-7.25,9.5v70.25c0,2.668,0.375,4.793,1.125,6.375
		c0.75,1.586,2.207,2.875,4.375,3.875l5.75-4.75l3.75,3.75l-22.25,19c-4,0-7.336-1.336-10-4c-3.836-3.832-5.918-8-6.25-12.5
		c-0.168-0.664-0.25-1.664-0.25-3v-79.5l-5.75-10L659,53.04z M667.25,12.79h15l-20,27L667.25,12.79z"/>
	<path fill="#FFFFFF" d="M827.5,3.54l26.25,7.25c1.832,0.5,5.832,0.086,12-1.25c0.832-0.332,2.082-0.75,3.75-1.25h1
		c0.164,0,0.332-0.082,0.5-0.25h0.25c0.832-0.332,2-0.664,3.5-1c-0.168,0,1-0.25,3.5-0.75c1.5-0.5,3.832-0.75,7-0.75l-0.5,1
		c-9.668,4.668-17.75,11-24.25,19s-9.75,17.5-9.75,28.5v67.75c-1.668,9.668-7.086,20.668-16.25,33
		c-0.5,0.668-0.793,1.086-0.875,1.25c-0.086,0.168-0.25,0.375-0.5,0.625s-0.543,0.586-0.875,1c-0.336,0.418-0.668,0.875-1,1.375
		c-0.336,0.5-0.586,1-0.75,1.5c0.832-0.832,1.5-1.332,2-1.5l1-1c0.164,0,0.5-0.25,1-0.75c13-11.164,21.332-21.832,25-32
		c1.5-10,2.25-20.164,2.25-30.5V75.04c0-1.832,0.082-4.539,0.25-8.125c0.164-3.582,0.25-6.289,0.25-8.125c0-5.5,0.5-10.832,1.5-16
		c3-15.332,15.414-26.75,37.25-34.25c6.5-2.164,12.332-3.5,17.5-4v1.5c-8.668,4.668-15.418,9.5-20.25,14.5
		c-5.5,5.836-8.75,13.086-9.75,21.75v29l42.25-34.25c8.664,6.168,15.664,13.418,21,21.75c5.664,8.836,8.832,18.336,9.5,28.5
		c0,0.668,0.082,1.586,0.25,2.75v3c0,1.336,0.039,2.211,0.125,2.625c0.082,0.418,0.207,0.961,0.375,1.625c0,0.668,0,1.168,0,1.5v5
		c0,1,0.082,1.75,0.25,2.25v7.5c0,6-1.086,13.086-3.25,21.25c-1.836,6.836-5,13-9.5,18.5l-35.75,30.5
		c-1.668,0.332-3.25,1.582-4.75,3.75c-0.336,0-0.586,0.082-0.75,0.25c-0.168,0.164-0.25,0.414-0.25,0.75v0.5
		c-0.168,0-0.25,0.082-0.25,0.25v0.5c-0.168,0-0.336,0.164-0.5,0.5c-0.168,0.332-0.25,0.664-0.25,1v1.75
		c0,0.5,0.164,1.039,0.5,1.625c0.332,0.582,0.539,0.914,0.625,1c0.082,0.082,0.457,0.457,1.125,1.125H912c0.664,0,1.664,0.164,3,0.5
		c0.332,0,0.75,0.082,1.25,0.25h1.5c0.5,0,1,0.082,1.5,0.25h1.25c0.164,0,0.414,0.164,0.75,0.5l0.5,0.5
		c0.164,0.164,0.332,0.375,0.5,0.625c0.164,0.25,0.25,0.414,0.25,0.5c0,0.082,0.082,0.207,0.25,0.375v0.5
		c0,0.164,0.082,0.332,0.25,0.5v1c-0.168,0-0.25,0.082-0.25,0.25v0.5c-0.168,0-0.293,0.207-0.375,0.625
		c-0.086,0.414-0.875,1.375-2.375,2.875c-0.668,0.664-2,1.414-4,2.25c-0.168,0.332-0.918,0.664-2.25,1c-0.168,0-0.5,0.082-1,0.25h-1
		v0.5c-4.668-0.336-8.043-1.625-10.125-3.875c-2.086-2.25-3.293-5.043-3.625-8.375c-0.168-0.168-0.25-0.5-0.25-1v-1
		c0-1.336,0.082-2.336,0.25-3l0.75-3c0.5-1.336,1.25-3.336,2.25-6l3-5.25l19.5-26.25c2.664-3.5,4.832-8.664,6.5-15.5
		c0.832-5.832,1.25-9.414,1.25-10.75c-0.5-0.332-1.418-0.75-2.75-1.25c-0.668-0.5-1.668-0.914-3-1.25
		c-0.668-0.332-1.586-0.664-2.75-1l-3-0.75c-0.5-0.164-1.293-0.332-2.375-0.5c-1.086-0.164-2.043-0.25-2.875-0.25
		c-0.836,0-1.5-0.082-2-0.25h-3.75c-0.5,0.168-1.086,0.25-1.75,0.25h-1.5c-0.5,0.168-1.086,0.25-1.75,0.25
		c-12.836,2.168-24.086,7-33.75,14.5l-14.5,11.25c1.164,0.336,3.75,0.668,7.75,1l8,0.75c1.664,0.336,2.914,0.5,3.75,0.5
		c1.664,0.336,3,0.5,4,0.5c2.332,0.336,3.832,0.5,4.5,0.5h7.5c0.832,0,1.332-0.082,1.5-0.25h1.5c1.5-0.332,3.664-0.75,6.5-1.25
		c1.5-0.5,3.5-1.25,6-2.25c0.164,0,0.414-0.164,0.75-0.5l0.75-0.75c0.332-0.332,0.75-0.707,1.25-1.125
		c0.5-0.414,0.957-0.789,1.375-1.125c0.414-0.332,0.957-1,1.625-2l3.5,3L892,179.04l-29.25-9.75c0.664,0-2.25-0.25-8.75-0.75
		s-10-0.75-10.5-0.75H836c-0.5,0.168-1,0.25-1.5,0.25c-5.668,0.168-11.418,1.461-17.25,3.875c-5.836,2.418-9.836,6.039-12,10.875
		c0.5,1,1.082,2.5,1.75,4.5c1,3,1.5,6,1.5,9v4.5c-0.836,0.664-2,1.5-3.5,2.5c-0.836,0.5-2.086,0.914-3.75,1.25
		c-2.836-0.336-4.75-1.375-5.75-3.125s-1.5-3.375-1.5-4.875v-0.75c0-1,0.082-2,0.25-3c0-0.336,0.082-0.836,0.25-1.5
		c0-0.168,0.164-0.75,0.5-1.75c0.332-1,0.539-1.586,0.625-1.75c0.082-0.168,0.289-0.75,0.625-1.75c0.164,0,0.332-0.211,0.5-0.625
		c0.164-0.418,0.289-0.711,0.375-0.875c0.082-0.168,0.207-0.418,0.375-0.75c0.164-0.336,0.289-0.586,0.375-0.75
		c0.082-0.168,0.207-0.418,0.375-0.75c0.164-0.336,0.25-0.668,0.25-1c0-0.336,0.125-0.586,0.375-0.75
		c0.25-0.168,0.457-0.375,0.625-0.625c0.164-0.25,0.25-0.461,0.25-0.625c0-0.168,0.164-0.418,0.5-0.75l22-26.75
		c2.164-3.664,3.25-7.082,3.25-10.25v-1.75c-0.168,0-0.25-0.164-0.25-0.5v-1.25c-0.168-0.164-0.336-0.625-0.5-1.375
		c-0.168-0.75-0.25-1.375-0.25-1.875l-6.75-3.25c-0.168,0.336-0.336,0.75-0.5,1.25c-0.168,0.5-0.418,0.918-0.75,1.25
		c-1.168,1.5-3.043,3.125-5.625,4.875c-2.586,1.75-4.793,2.625-6.625,2.625l-0.5-1.25c-0.168,0-0.25-0.082-0.25-0.25v-1.25
		c-0.168,0-0.25-0.082-0.25-0.25v-0.75c0-6.164,2.332-11.582,7-16.25c4.664-4.664,10.082-7.164,16.25-7.5v-3.5
		c0-3.332-1.836-6.75-5.5-10.25c-3.168-3-6.586-5.082-10.25-6.25c-0.336-0.332-0.75-0.539-1.25-0.625c-0.5-0.082-1.168-0.164-2-0.25
		c-0.836-0.082-1.418-0.207-1.75-0.375h-1.5l-2-0.5c-0.168,0.5-0.711,0.836-1.625,1c-0.918,0.168-1.461,0.25-1.625,0.25
		c-0.168,0-0.418,0-0.75,0c-0.336,0.168-0.586,0.25-0.75,0.25c-1,0.336-1.586,0.5-1.75,0.5c-1,0.336-1.625,0.543-1.875,0.625
		c-0.25,0.086-0.836,0.293-1.75,0.625c-0.918,0.336-1.875,0.836-2.875,1.5c0-5.664,2.664-10.664,8-15
		c4.664-3.832,10.082-6.25,16.25-7.25c0.5,0,1-0.082,1.5-0.25h1.25c0.832,0,1.332-0.082,1.5-0.25h1.5l2.5-0.5v0.25
		c-0.168,0-0.25-0.082-0.25-0.25v-1.25c-0.168,0-0.25-0.082-0.25-0.25v-0.5c0-15.664,8.25-30.832,24.75-45.5
		c-5.836,1.168-8.168,1.75-7,1.75l-3.75,0.75h-3.5c-0.168,0-2.5-0.25-7-0.75c-0.668-0.332-1.793-0.664-3.375-1
		c-1.586-0.332-2.793-0.582-3.625-0.75c-0.168,0-0.336-0.082-0.5-0.25h-0.5l-0.25-0.25H816c-0.168-0.164-0.75-0.414-1.75-0.75
		c-0.336,0-0.918-0.164-1.75-0.5l-3.75-0.75c-0.168,0-0.336-0.082-0.5-0.25c-0.336,0-0.586,0-0.75,0c-0.668,0-1.668-0.164-3-0.5h-3
		c-0.168,0.168-0.418,0.25-0.75,0.25h-1c-0.168,0.168-0.5,0.25-1,0.25c-1,0.336-1.586,0.5-1.75,0.5l-6.75,8.5
		c-0.168,0.5-0.336,0.75-0.5,0.75h-0.25c-0.168,0.168-0.375,0.336-0.625,0.5c-0.25,0.168-0.461,0.25-0.625,0.25h-0.5l-0.5-1
		c0.832-8.832,4.164-15.5,10-20c6.664-5.164,13.914-8.082,21.75-8.75c0.164,0,0.414-0.082,0.75-0.25h3L827.5,3.54z M912.25,59.29
		L888,80.54l1,5c1.5,1.5,3.375,2.586,5.625,3.25c2.25,0.668,4.457,1.336,6.625,2c1,0.336,1.875,0.586,2.625,0.75
		c0.75,0.168,2.039,0.25,3.875,0.25h5c0.664,0,1.164-0.039,1.5-0.125c0.332-0.082,0.664-0.207,1-0.375c0.332,0,0.582,0,0.75,0
		c0.5,0,1.207-0.082,2.125-0.25c0.914-0.164,1.664-0.332,2.25-0.5c0.582-0.164,1.707-0.5,3.375-1c2.332-0.832,4.832-2,7.5-3.5
		c-0.336-6.332-4.918-14.582-13.75-24.75c-0.336-0.164-1.086-0.457-2.25-0.875c-1.168-0.414-2-0.625-2.5-0.625L912.25,59.29z
		 M888,119.29c0.332,0,1.75-0.164,4.25-0.5l4.5-0.75c1-0.164,2.832-0.414,5.5-0.75c1.164,0,2.082-0.082,2.75-0.25h5.5
		c0.664,0.168,1.75,0.25,3.25,0.25c2.832,0.336,7.164,1.086,13,2.25c1,0.336,2.082,0.5,3.25,0.5l3,0.75l-0.5-29.5
		c-1.168,0.5-3,1.125-5.5,1.875s-6.25,1.625-11.25,2.625c-1.168,0.168-3,0.25-5.5,0.25c-1,0-4.668-0.414-11-1.25
		c-1.336-0.332-3.25-0.75-5.75-1.25c-1.168-0.332-3-0.914-5.5-1.75V119.29z"/>
	<path fill="#FFFFFF" d="M1025.746,52.04l33.5,13v0.25l0.5-0.5c0.332-0.5,1.207-1.332,2.625-2.5c1.414-1.164,2.625-1.832,3.625-2
		c0.164,0,0.414-0.082,0.75-0.25h0.75c0.164,0,0.414-0.082,0.75-0.25h0.75l1-0.5c-0.668,1.168-1.586,2.75-2.75,4.75
		c-0.668,1-1.461,2.543-2.375,4.625c-0.918,2.086-2.293,5.293-4.125,9.625l-0.5,70.5c0.164,0.668,0.289,1.086,0.375,1.25
		c0.082,0.168,0.207,0.418,0.375,0.75v0.75c0,0.168,0.082,0.418,0.25,0.75v0.5c0.332,0.5,0.914,1.336,1.75,2.5
		c0.164,0.168,1,0.836,2.5,2c0,0.336,0.164,0.5,0.5,0.5h0.25c0,0.168,0.082,0.25,0.25,0.25l4.5-3.25l3.75,3.25l-21.75,19h-1.5
		c-2.836,0-5.25-1.164-7.25-3.5c-2.5-3.332-4.086-6.25-4.75-8.75c-0.5-1.164-1.043-3.082-1.625-5.75
		c-0.586-2.664-0.875-4.25-0.875-4.75v-1.75c-0.168,0-0.25-0.164-0.25-0.5v-1.25c-0.168-0.164-0.25-0.414-0.25-0.75v-1.5l-33,28.5
		c-6-3.332-10.875-7.957-14.625-13.875c-3.75-5.914-5.625-12.125-5.625-18.625v-1.25c0-0.164,0.082-0.414,0.25-0.75v-2.5
		c0-0.164,0.082-0.414,0.25-0.75v-0.5c0-0.164,0.664-2.75,2-7.75c3.664-13.5,10.75-24.5,21.25-33l-12.25-35
		c0.164,0.5,0.414,0.75,0.75,0.75h1.5c0,0.168,0.164,0.25,0.5,0.25h3.5c0.5,0,0.914-0.039,1.25-0.125
		c0.332-0.082,0.664-0.207,1-0.375c0.164,0,0.332,0,0.5,0c3.5-0.5,7.414-1.75,11.75-3.75c3.832-1.832,7.25-4.25,10.25-7.25V52.04z
		 M1002.496,68.54l9.75,27.5l24.25,14v-29l-31-12.5H1002.496z M1012.246,102.79c-3,4-5.043,7.668-6.125,11
		c-1.086,3.336-1.625,7-1.625,11v3.5c0,1.336,0.164,2.5,0.5,3.5c1.332,8.836,5.25,17.75,11.75,26.75l2.75-1.5l17.5-15.5v-24.5
		L1012.246,102.79z"/>
	<path fill="#FFFFFF" d="M1128.243,8.79h7.25c-4.668,4.168-7.75,8.168-9.25,12c-1.668,4.5-2.918,9.25-3.75,14.25v111l13.5,10.25
		l4.5-3.5l3.75,4.25l-23.75,21c-5-5-9.836-9.082-14.5-12.25c-5.336-3.664-11-6.664-17-9c6.5-4.164,9.75-9.832,9.75-17v-110
		c-1.836-6.664-5.418-12.164-10.75-16.5l1.5-0.5c0.5,0.5,1.125,0.75,1.875,0.75s1.75,0.25,3,0.75s2.164,0.875,2.75,1.125
		c0.582,0.25,1.582,0.75,3,1.5c1.414,0.75,3.207,2.125,5.375,4.125l0.75,0.75c0,0.836,0.414,1.25,1.25,1.25
		c0,0.336,0.164,0.5,0.5,0.5c3.5-4,6.5-6.914,9-8.75c3.164-2.664,6.914-4.5,11.25-5.5V8.79z"/>
	<path fill="#FFFFFF" d="M1198.242,8.79h7.25c-4.668,4.168-7.75,8.168-9.25,12c-1.668,4.5-2.918,9.25-3.75,14.25v111l13.5,10.25
		l4.5-3.5l3.75,4.25l-23.75,21c-5-5-9.836-9.082-14.5-12.25c-5.336-3.664-11-6.664-17-9c6.5-4.164,9.75-9.832,9.75-17v-110
		c-1.836-6.664-5.418-12.164-10.75-16.5l1.5-0.5c0.5,0.5,1.125,0.75,1.875,0.75s1.75,0.25,3,0.75s2.164,0.875,2.75,1.125
		c0.582,0.25,1.582,0.75,3,1.5c1.414,0.75,3.207,2.125,5.375,4.125l0.75,0.75c0,0.836,0.414,1.25,1.25,1.25
		c0,0.336,0.164,0.5,0.5,0.5c3.5-4,6.5-6.914,9-8.75c3.164-2.664,6.914-4.5,11.25-5.5V8.79z"/>
	<path fill="#FFFFFF" d="M460.354,227.641c5.865,4,12.064,6,18.6,6h0.9c0.199,0,0.564-0.066,1.1-0.201c0.064,0,0.232-0.032,0.5-0.1
		h0.5c0.064,0,0.232-0.033,0.5-0.1h0.4l-14.301,15.3h10.801l-5,10.3h-16.7v28.901c0.133,0.134,0.216,0.217,0.25,0.25
		c0.032,0.032,0.115,0.049,0.25,0.049h0.6l1.5,0.301h1.5c3.8,0,7.566-0.883,11.3-2.649c3.732-1.767,7-3.949,9.8-6.551
		c-0.399,3.469-2,6.534-4.8,9.2c-2.535,2.468-5.535,4.534-9,6.199c-0.467,0.269-1.135,0.567-2,0.899
		c-0.467,0.067-1.035,0.218-1.7,0.451c-0.667,0.232-1.699,0.449-3.1,0.648l-1.5,0.301c-0.334,0-0.784,0.033-1.35,0.1
		c-0.567,0.066-0.95,0.134-1.15,0.201h-1.1c-0.468,0-0.801,0.031-1,0.101h-1.9c-6.267,0-12.05-1.733-17.35-5.201
		c-5.301-3.465-9.051-8.063-11.25-13.799c-1.4-3.666-2.101-7.5-2.101-11.5c0-2.666,0.633-6.666,1.9-12
		c0.266-0.4,0.465-0.866,0.6-1.4c0.133-0.333,0.365-0.833,0.7-1.5c4.8-9.6,10.9-15.6,18.3-18l1.9-0.2
		c-9.667,8.334-14.5,16.534-14.5,24.601v0.2l0.1,0.1v0.3l0.101,0.101v0.1c0,6.534,1.865,12.268,5.6,17.2v0.2h0.1
		c0,0.066,0.017,0.1,0.051,0.1c0.032,0,0.083,0.034,0.149,0.1v0.101h0.101v0.101l1-2.5c0.266-2.466,0.6-6.232,1-11.301
		c0-0.4,0.032-1.033,0.1-1.9v-3.5l-0.1-1.6c-0.135-2.133-0.2-3.266-0.2-3.4c-0.134-0.933-0.2-1.666-0.2-2.199
		c-0.134-0.934-0.2-1.666-0.2-2.2v-0.601c-0.066-0.065-0.1-0.232-0.1-0.5v-0.6c-0.067-0.064-0.101-0.232-0.101-0.5L460.354,227.641z
		 M454.953,237.54l-3.9,3.5v22.8l-0.8,3.5c-3.067,4.467-5.834,7.936-8.3,10.4l-0.8,0.8c-0.2,0.2-0.3,0.334-0.3,0.399l-0.4,0.4
		c4.2,4.4,9.033,7.268,14.5,8.6V237.54L454.953,237.54z M457.653,239.04v17.7l12.399-13L457.653,239.04z"/>
	<path fill="#FFFFFF" d="M524.152,239.839h1c1,0.4,1.633,0.867,1.899,1.4c0.533,1.067,0.833,1.866,0.9,2.399
		c0,0.067,0.033,0.168,0.1,0.301v1.6c-0.066,0.2-0.1,0.436-0.1,0.7l-0.3,1.2v0.3c-0.067,0.067-0.101,0.134-0.101,0.2v0.199
		c-0.066,0.067-0.1,0.135-0.1,0.2l-10.8,15.5l9.3,5.8v19.2c-2.867,1.199-4.935,2.199-6.2,3c-2.267,1.334-4.134,2.601-5.6,3.8
		c-0.067,0-0.167,0.051-0.3,0.149c-0.135,0.101-0.25,0.168-0.351,0.2c-0.1,0.033-0.185,0.082-0.25,0.149
		c-0.066,0.065-0.149,0.134-0.25,0.2c-0.1,0.064-0.185,0.1-0.25,0.1c-0.733-0.399-1.867-0.933-3.399-1.6
		c-1.067-0.4-2.268-0.766-3.601-1.1c-0.134,0-0.399-0.066-0.8-0.201c-0.135,0-0.3-0.032-0.5-0.1c-0.2,0-0.334,0-0.4,0
		c-0.399,0-0.699-0.033-0.899-0.101h-1.8c-0.2,0.065-0.5,0.101-0.9,0.101c-0.867,0.135-2.4,0.535-4.6,1.199
		c-0.535,0.2-1.367,0.667-2.5,1.399l-1.4-1l11.9-17.399l-9.101-5.6v-17.1c3.2-1.065,6.666-3.465,10.4-7.201l0.6-0.6
		c0.065-0.066,0.166-0.199,0.3-0.4l0.301-0.299l10.3,3.699c0.266,0.268,0.466,0.4,0.6,0.4h0.3c0.066,0.066,0.166,0.1,0.301,0.1
		c0.6,0.2,0.949,0.317,1.05,0.35c0.1,0.035,0.315,0.051,0.649,0.051c0.601,0,1-0.033,1.2-0.1c0.601-0.201,1.4-0.465,2.4-0.801
		c0.399-0.333,0.766-0.583,1.1-0.75c0.333-0.166,0.633-0.783,0.9-1.85v-1.9c-0.067-0.133-0.268-0.266-0.601-0.4
		c0-0.133-0.199-0.365-0.6-0.699c-0.067-0.333-0.217-0.551-0.45-0.65s-0.35-0.183-0.35-0.25l-0.3-0.3v-0.101
		c-0.067,0-0.101-0.032-0.101-0.1v-0.199c-0.066,0-0.134-0.051-0.199-0.15c-0.067-0.1-0.101-0.184-0.101-0.25v-0.4
		c0-0.066,0.017-0.166,0.05-0.3c0.033-0.133,0.217-0.433,0.551-0.899c0.199-0.267,0.5-0.533,0.899-0.801l0.101-0.1h0.1V239.839
		L524.152,239.839z M510.952,271.839l-9.7,14.101c0.133,0.135,0.333,0.199,0.6,0.199c0.065,0,0.166-0.031,0.301-0.101h0.3
		c0.933-0.134,1.55-0.199,1.85-0.199s0.583-0.032,0.851-0.101h1.5c0.065,0.066,0.3,0.101,0.699,0.101h0.801
		c0.199,0.065,0.5,0.117,0.899,0.149c0.4,0.033,1.101,0.15,2.101,0.351c0.466,0.136,1.166,0.367,2.1,0.699
		c1.4,0.535,2.766,1.2,4.1,2v-13L510.952,271.839z M503.652,266.939l5.6,3.299l8.9-12.799c-0.268,0.267-0.567,0.399-0.9,0.399h-0.5
		c-0.2,0.067-0.367,0.101-0.5,0.101h-0.6c-0.067,0.066-0.234,0.1-0.5,0.1h-0.9c0.2,0-1.567-0.232-5.3-0.7
		c-1.2-0.333-2.967-0.933-5.3-1.8V266.939L503.652,266.939z"/>
	<path fill="#FFFFFF" d="M549.252,233.439v14.899h10.3v4.899h-10.5v31.4l4.7,4l3.6-2.699l1.4,1.6l-10.7,9.301
		c-2.2-2.066-3.967-3.566-5.3-4.5c-2.2-1.533-4.234-2.699-6.1-3.5c0.865-1.199,1.5-2.4,1.899-3.6c0.666-2.066,1-3.366,1-3.9v-27.699
		l-3.7-0.4l0.601-1.801L549.252,233.439z"/>
	<path fill="#FFFFFF" d="M577.651,296.039l-7.4-7.398l7.4-7.5l7.5,7.5L577.651,296.039z"/>
	<path fill="#FFFFFF" d="M642.25,232.04l6.601,5.7l1.301,3.8v43.3c0.133,0.4,0.399,0.967,0.801,1.699
		c0.398,0.468,0.799,0.867,1.199,1.201h0.1c0,0.066,0.016,0.117,0.051,0.148c0.033,0.034,0.115,0.051,0.25,0.051
		c0.133,0,0.25,0.035,0.351,0.1c0.1,0.068,0.199,0.15,0.301,0.25c0.1,0.102,0.299,0.186,0.6,0.25c0.3,0.068,0.582,0.102,0.851,0.102
		c0.6-0.334,1.282-0.884,2.051-1.649c0.766-0.767,1.313-1.416,1.648-1.951l1.5,1.5l-11.8,10.301l-10.5-8.399
		c1.267-0.801,2.232-2.533,2.9-5.199V246.04c-0.135-0.065-0.218-0.216-0.25-0.45c-0.035-0.232-0.117-0.383-0.25-0.449
		c-0.269-1.134-0.937-2.233-2-3.301c-0.535-0.732-1.102-1.133-1.701-1.199l-4.299,2.699c-0.068,0.067-0.269,0.035-0.602-0.1
		l-0.5-0.5L642.25,232.04z"/>
	<path fill="#FFFFFF" d="M688.449,232.04c6.399,2.534,11.467,6.367,15.201,11.5c3.932,5.334,5.898,11.334,5.898,18v0.601
		c-0.134,0.934-0.2,1.467-0.2,1.6c-0.135,0.533-0.198,0.934-0.198,1.199c-0.469,2.668-1.367,6.135-2.701,10.4l-4.799,7.1
		c-1.136,1.668-3.535,4.269-7.201,7.802c-2.935,2.799-5.566,5-7.899,6.6l-16.3-9.1l0.199-0.802l6.201-7.198l15.299,8h1l5.801-11.701
		c0.133-0.399,0.215-0.783,0.25-1.149c0.033-0.367,0.115-0.75,0.25-1.15c0.332-1,0.533-1.9,0.6-2.7l0.302-2.601
		c0-0.6,0.031-1.032,0.1-1.299v-1.801c-0.067-0.064-0.1-0.199-0.1-0.4v-1.6c-0.068-0.064-0.102-0.232-0.102-0.5v-0.9l-20.5,13.4
		c-3.601-1.266-6.601-3.482-9-6.65c-2.398-3.166-3.601-6.649-3.601-10.449v-0.7c0-0.133,0.065-0.399,0.201-0.8
		c0-0.066,0.031-0.166,0.1-0.301v-0.399c0-0.133,0.033-0.267,0.1-0.399v-0.301c1.4-5,4.133-9.5,8.2-13.5
		c2.602-2.533,6.899-5.732,12.899-9.6V232.04L688.449,232.04z M680.75,241.04c-1.867,2.399-3.1,4.134-3.7,5.2
		c-1.134,2-1.767,3.967-1.898,5.9c-0.068,0.066-0.102,0.267-0.102,0.6v0.5c0,0.267,0.065,0.867,0.2,1.8c0,0.067,0.033,0.2,0.1,0.399
		c0.066,0.201,0.134,0.385,0.2,0.551c0.065,0.167,0.165,0.484,0.3,0.949c0,0.067,0.017,0.15,0.052,0.25
		c0.031,0.101,0.165,0.4,0.398,0.9s0.517,1.117,0.852,1.85c3.133,5.201,6.332,7.801,9.6,7.801h0.5c0.133,0,0.4-0.066,0.8-0.2
		l0.102-0.101h0.1c0.065,0,0.15-0.016,0.25-0.049s0.199-0.066,0.3-0.101c0.102-0.033,0.184-0.083,0.25-0.149h0.2l10.8-7.9
		c-1.066-4.467-3.468-8.333-7.2-11.6c-3.399-3-7.434-5.134-12.1-6.4v-0.2H680.75z"/>
	<path fill="#FFFFFF" d="M735.449,232.439l21.5,10.1c0,0.268,0.031,0.55,0.1,0.85c0.065,0.301,0.133,0.65,0.2,1.051
		c0.065,0.399,0.133,0.634,0.2,0.699v0.7c0,0.067,0.031,0.269,0.1,0.601v0.6c0,3.534-1.3,6.686-3.9,9.45
		c-2.6,2.767-5.5,4.784-8.698,6.05c4.064,0.534,7.564,2.384,10.5,5.55c2.933,3.167,4.398,6.617,4.398,10.351v0.699
		c-0.066,0.2-0.1,0.469-0.1,0.801c-0.135,0.668-0.2,1.168-0.2,1.5l-0.3,0.899c-0.067,0.136-0.135,0.315-0.2,0.55
		c-0.066,0.234-0.1,0.385-0.1,0.45c-0.067,0.334-0.335,0.899-0.801,1.699c-4,6.801-10.867,10.535-20.601,11.2
		c-0.2,0-0.534,0.033-1,0.101h-1c-0.399,0-0.7,0.033-0.899,0.101h-1l-16.399-13.801l6.899-6.8l20,16.5c2-2,3.5-5.133,4.5-9.399
		c0-0.465,0.065-1.033,0.199-1.699c0-0.334,0.033-0.633,0.102-0.9v-0.801c0-3.333-0.969-6.516-2.9-9.549
		c-1.935-3.033-4.768-4.95-8.5-5.75c-0.534,0-0.9-0.033-1.1-0.1c-1.135,0-1.9-0.066-2.301-0.201c-0.135,0-0.334-0.032-0.601-0.1
		c-0.268,0-0.467,0-0.6,0h-1.602l-2.3-0.199l0.4-2.701c4.133,0.268,8.064-1.049,11.8-3.949c3.731-2.9,5.6-6.551,5.6-10.95v-0.3
		c-0.066-0.066-0.1-0.166-0.1-0.301v-1.1c-0.067-0.064-0.101-0.166-0.101-0.3v-0.7c-0.066-1.064-0.518-1.982-1.351-2.75
		c-0.834-0.766-1.784-1.15-2.85-1.15l-0.802-0.199l-14.6,10.1l-5.8-6.199L735.449,232.439z"/>
	<path fill="#FFFFFF" d="M780.848,232.04l6.601,5.7l1.301,3.8v43.3c0.133,0.4,0.399,0.967,0.799,1.699
		c0.4,0.468,0.801,0.867,1.201,1.201h0.1c0,0.066,0.017,0.117,0.051,0.148c0.031,0.034,0.115,0.051,0.25,0.051
		c0.133,0,0.25,0.035,0.351,0.1c0.1,0.068,0.199,0.15,0.299,0.25c0.102,0.102,0.301,0.186,0.602,0.25
		c0.3,0.068,0.583,0.102,0.851,0.102c0.6-0.334,1.282-0.884,2.049-1.649c0.767-0.767,1.316-1.416,1.65-1.951l1.5,1.5l-11.8,10.301
		l-10.5-8.399c1.266-0.801,2.232-2.533,2.898-5.199V246.04c-0.134-0.065-0.217-0.216-0.25-0.45c-0.033-0.232-0.117-0.383-0.25-0.449
		c-0.267-1.134-0.934-2.233-2-3.301c-0.533-0.732-1.1-1.133-1.699-1.199l-4.301,2.699c-0.065,0.067-0.267,0.035-0.6-0.1l-0.5-0.5
		L780.848,232.04z"/>
</g>
</svg>
