<?xml version="1.0" encoding="utf-8"?>
<!-- Generator: Adobe Illustrator 16.0.0, SVG Export Plug-In . SVG Version: 6.00 Build 0)  -->
<!DOCTYPE svg PUBLIC "-//W3C//DTD SVG 1.1//EN" "http://www.w3.org/Graphics/SVG/1.1/DTD/svg11.dtd">
<svg version="1.1" id="Layer_1" xmlns="http://www.w3.org/2000/svg" xmlns:xlink="http://www.w3.org/1999/xlink" x="0px" y="0px"
	 width="597.402px" height="179.221px" viewBox="0 0 597.402 179.221" enable-background="new 0 0 597.402 179.221"
	 xml:space="preserve">
<g opacity="0.7">
	<path fill="#FFFFFF" d="M128.453,2.051l1.904,4.541c-4.688,2.271-8.154,4.522-10.4,6.76c-2.246,2.237-3.825,4.738-4.736,7.504
		c-0.913,2.768-1.367,6.885-1.367,12.352c0,1.758,0.032,4.102,0.098,7.031l1.66,72.946c0.13,8.008,0.974,13.248,2.531,15.721
		c1.102,1.758,2.433,2.637,3.99,2.637c1.881,0,4.802-1.888,8.762-5.664l2.881,3.662l-18.164,15.491L109.556,150
		c-5.144-2.408-8.806-5.599-10.986-9.57c-2.182-3.97-3.403-10.318-3.662-19.043L57.164,150
		C36.113,136.133,21.774,129.2,14.147,129.2c-1.889,0-3.485,0.586-4.787,1.758c-0.977,0.847-1.465,2.051-1.465,3.613
		c0,1.694,0.618,3.549,1.855,5.566c1.626,2.734,2.441,4.526,2.441,5.371c0,1.237-0.456,2.295-1.367,3.174
		C9.913,149.561,8.807,150,7.505,150c-1.628,0-2.93-0.65-3.906-1.953c-1.433-1.758-2.148-4.036-2.148-6.836
		c0-3.125,0.894-6.624,2.686-10.498c1.79-3.873,4.443-8.089,7.959-12.646c0.716-0.977,1.367-1.888,1.953-2.734l13.957-19.049
		c-9.438-7.096-16.06-13.899-19.867-20.409c-3.809-6.51-5.711-13.802-5.711-21.874c0-9.375,2.393-18.065,7.178-26.073
		S21.583,13.607,31.187,8.985c9.603-4.622,19.482-6.934,29.639-6.934c15.56,0,30.566,5.405,45.02,16.211
		c3.508-3.711,6.886-6.753,10.135-9.131C119.227,6.755,123.385,4.395,128.453,2.051z M80.455,24.708
		c-8.203-4.036-16.374-6.055-24.512-6.055c-8.659,0-16.797,1.903-24.414,5.708c-7.617,3.805-13.315,8.717-17.09,14.734
		c-3.776,6.018-5.664,12.181-5.664,18.49c0,13.336,7.213,25.142,21.64,35.419l32.652-44.569c-4.874-2.667-9.261-4.001-13.159-4.001
		c-5.394,0-9.813,2.539-13.255,7.617c-0.65,1.042-1.3,1.563-1.95,1.563c-0.403,0-0.787-0.195-1.157-0.586
		c-0.369-0.391-0.552-0.879-0.552-1.465c0-2.017,1.024-4.817,3.075-8.398c2.049-3.58,5.075-6.478,9.078-8.691
		c4.002-2.212,8.217-3.32,12.642-3.32c4.555,0,9.729,1.103,15.521,3.308L80.455,24.708z M31.294,99.61l-8.882,12.122l49.617,21.388
		l22.977-17.052L94.615,99.61H31.294z M93.052,34.778c-1.884-2.083-3.151-3.418-3.801-4.004c-0.455-0.455-2.08-1.659-4.872-3.612
		L41.74,85.352h52.484L93.052,34.778z"/>
	<path fill="#FFFFFF" d="M142.759,56.554l27.246-33.604h2.832l-0.977,26.953h19.629V60.84h-19.629v65.82l10.938,8.105l6.25-4.883
		l2.441,2.93L169.957,150c-7.315-7.486-15.599-12.564-24.854-15.234v-1.953c2.603-1.759,4.329-3.584,5.176-5.477
		c1.106-2.411,1.66-5.899,1.66-10.463V60.84h-9.18V56.554z"/>
	<path fill="#FFFFFF" d="M240.416,10.059l0.977,2.344c-4.66,2.995-7.845,6.186-9.55,9.57c-1.706,3.386-2.559,8.757-2.559,16.113
		v31.836l30.225-24.023c6.424,4.17,10.611,8.194,12.558,12.07c1.947,3.877,2.92,10.474,2.92,19.789v44.272
		c0,8.47-0.879,14.659-2.637,18.568c-2.8,6.386-7.976,12.379-15.527,17.982c-9.897,7.426-22.495,13.844-37.793,19.252l-1.367-3.711
		c12.435-5.146,21.094-9.833,25.977-14.064c4.883-4.234,8.072-8.727,9.57-13.478c1.106-3.582,1.66-12.892,1.66-27.933V77.723
		c0-4.556-0.456-7.715-1.369-9.473c-1.37-2.409-3.879-4.787-7.529-7.13l-16.688,13.516v54.369l6.934,6.982L219.078,150
		l-17.432-14.014l7.715-7.666V39.53c0-8.065-0.709-13.594-2.128-16.586c-1.419-2.993-4.225-5.692-8.418-8.1l1.074-2.441
		c3.439,0.977,6.198,2.067,8.276,3.271c2.077,1.206,4.804,3.305,8.179,6.299c3.979-3.775,7.796-6.543,11.449-8.301
		S235.653,10.71,240.416,10.059z"/>
	<path fill="#FFFFFF" d="M333.482,10.059v2.539c-5.144,2.67-8.774,5.942-10.889,9.814c-2.116,3.874-3.174,9.75-3.174,17.627v86.816
		l11.133,8.301l4.297-3.516l2.441,3.516L317.71,150c-5.914-5.142-10.332-8.56-13.255-10.254c-2.923-1.692-6.79-3.223-11.598-4.59
		v-2.148c1.822-1.106,3.238-2.505,4.248-4.199c1.009-1.692,1.709-3.677,2.1-5.957c0.13-0.781,0.228-4.688,0.293-11.719V41.407
		c0-5.923-0.229-10.042-0.684-12.354c-0.456-2.31-1.367-4.524-2.734-6.641c-1.367-2.115-3.679-4.476-6.934-7.08l1.563-1.953
		c5.942,1.694,11.264,5.144,15.967,10.352c4.874-5.142,9.276-8.658,13.208-10.547C323.814,11.296,328.347,10.254,333.482,10.059z"/>
	<path fill="#FFFFFF" d="M389.83,45.899l27.539,32.129l-43.75,30.664v17.773l22.657,8.984L411.607,125l2.148,2.93L382.164,150
		c-6.455-3.45-11.77-5.923-15.941-7.422c-4.173-1.497-10.106-3.06-17.799-4.688v-2.441c2.212-1.302,3.694-2.913,4.443-4.834
		c0.748-1.919,1.123-6.07,1.123-12.451V62.305c6.119-2.212,11.197-4.231,15.234-6.055C372.154,54.883,379.021,51.433,389.83,45.899z
		 M374.986,57.129l-1.368,0.684v44.342l25.723-18.029L374.986,57.129z"/>
	<path fill="#FFFFFF" d="M423.912,56.554l27.246-33.604h2.832l-0.977,26.953h19.629V60.84h-19.629v65.82l10.938,8.105l6.25-4.883
		l2.441,2.93L451.109,150c-7.315-7.486-15.599-12.564-24.854-15.234v-1.953c2.604-1.759,4.329-3.584,5.176-5.477
		c1.106-2.411,1.66-5.899,1.66-10.463V60.84h-9.18V56.554z"/>
	<path fill="#FFFFFF" d="M501.305,45.899l17.334,14.404l-7.715,7.471v53.125c0,5.6,0.47,9.245,1.411,10.938
		c0.94,1.694,1.911,2.539,2.91,2.539c0.705,0,1.352-0.162,1.94-0.488c0.823-0.455,2.527-1.758,5.115-3.906l2.393,3.027L503.746,150
		c-5.229-3.711-8.596-7.21-10.099-10.498c-1.504-3.287-2.255-9.033-2.255-17.236V67.774l-7.324-7.471L501.305,45.899z M508.678,12.5
		h12.402l-13.477,21.094h-3.906L508.678,12.5z"/>
	<path fill="#FFFFFF" d="M570.543,45.899l25.342,14.502l-10.4,15.186l-19.092-11.035v62.305l19.217,8.584l10.219-7.393l1.033,4.179
		L572.691,150c-6.241-3.516-11.572-6.104-15.993-7.764c-4.42-1.66-9.848-3.108-16.282-4.346v-2.344
		c2.278-1.563,3.775-3.255,4.492-5.078c1.041-2.539,1.563-6.509,1.563-11.914V62.989C554.592,59.278,562.616,53.582,570.543,45.899z
		"/>
</g>
</svg>
