<?xml version="1.0" encoding="utf-8"?>
<!-- Generator: Adobe Illustrator 16.0.0, SVG Export Plug-In . SVG Version: 6.00 Build 0)  -->
<!DOCTYPE svg PUBLIC "-//W3C//DTD SVG 1.1//EN" "http://www.w3.org/Graphics/SVG/1.1/DTD/svg11.dtd">
<svg version="1.1" id="Layer_1" xmlns="http://www.w3.org/2000/svg" xmlns:xlink="http://www.w3.org/1999/xlink" x="0px" y="0px"
	 width="577.553px" height="174.026px" viewBox="0 0 577.553 174.026" enable-background="new 0 0 577.553 174.026"
	 xml:space="preserve">
<g opacity="0.7">
	<path fill="#FFFFFF" d="M0.367,1.084h4.59C5.997,4.34,7.723,6.65,10.132,8.018c3.125,1.823,8.203,2.734,15.234,2.734
		c4.492,0,18.75-0.455,42.773-1.367c14.517-0.586,23.567-0.879,27.148-0.879c10.806,0,20.003,1.855,27.588,5.566
		c7.583,3.711,13.753,9.409,18.506,17.09c4.751,7.683,7.91,18.262,9.473,31.738c1.106,9.44,2.051,30.241,2.832,62.402
		c-12.692,8.008-22.453,14.941-29.286,20.801c-20.697-5.794-38.953-8.691-54.767-8.691c-10.739,0-20.697,1.294-29.874,3.88
		c-9.177,2.588-18.906,6.729-29.188,12.428l-2.881-3.76c13.367-6.903,25.105-13.969,35.213-21.199
		c10.107-7.229,16.775-13.693,20.004-19.392c3.228-5.699,4.842-12.946,4.842-21.738c0-3.192-0.065-7.913-0.195-14.166
		c-0.131-4.364-0.195-8.89-0.195-13.581c0-8.27,0.465-14.36,1.397-18.268c0.931-3.908,2.907-8.401,5.927-13.482h-2.525
		c-7.91,4.556-13.177,8.707-15.802,12.45c-2.626,3.743-3.938,8.51-3.938,14.302l0.781,34.662c0,9.244-2.771,17.526-8.31,24.849
		c-5.539,7.322-18.834,17.883-39.883,31.682l-2.881-3.857c10.65-7.41,17.676-13.489,21.074-18.234
		c3.398-4.745,5.098-9.718,5.098-14.92c0-4.484-1.436-8.304-4.306-11.456c-2.87-3.153-6.033-4.73-9.491-4.73
		c-1.761,0-3.392,0.488-4.892,1.465c-1.501,0.977-3.523,2.995-6.067,6.055l-3.174-3.174c2.219-5.582,5.174-9.669,8.864-12.267
		s8.113-3.896,13.272-3.896c1.501,0,3.149,0.163,4.945,0.488c1.796,0.327,3.739,0.815,5.829,1.465
		c-0.131-3.775-0.195-7.063-0.195-9.863c0-10.22,2.064-18.538,6.193-24.951c4.129-6.412,12.045-13.101,23.75-20.068
		c-10.753,1.108-20.04,1.66-27.859,1.66c-8.276,0-15.379-1.172-21.309-3.516c-4.433-1.822-7.692-4.736-9.776-8.74
		C1.995,13.535,0.757,8.051,0.367,1.084z M79.468,28.135c-2.8,4.749-4.688,8.881-5.664,12.393
		c-1.303,4.814-1.953,9.303-1.953,13.466l0.781,38.446c0,4.944-1.23,9.985-3.687,15.125c-1.875,3.839-5.4,8.522-10.573,14.052
		c9.471-1.514,16.705-2.237,21.701-2.173l5.546,0.098V28.135H79.468z M90.601,65.635c3.979,2.8,7.456,4.721,10.425,5.762
		c2.969,1.042,6.185,1.563,9.644,1.563c3.458,0,6.688-0.537,9.691-1.611c3.001-1.074,6.526-2.979,10.573-5.713
		c-1.241-14.648-5.026-24.561-11.355-29.736c-6.331-5.176-15.99-7.764-28.977-7.764V65.635z M90.601,97.861
		c4.428-2.539,8.205-4.28,11.33-5.225c3.125-0.943,6.544-1.416,10.257-1.416c3.58,0,6.9,0.439,9.961,1.318
		c3.061,0.879,6.74,2.524,11.039,4.932l-1.596-26.465c-4.175,2.539-7.777,4.282-10.811,5.225c-3.033,0.944-6.343,1.416-9.929,1.416
		c-3.458,0-6.882-0.552-10.272-1.66c-3.39-1.106-6.717-2.767-9.978-4.98V97.861z M90.601,119.834
		c7.942,0.651,14.404,1.45,19.385,2.393c4.98,0.944,12.776,2.915,23.389,5.908c0.13-9.83,0.195-14.908,0.195-15.234
		c0-0.781-0.065-3.906-0.195-9.375c-4.167-2.864-7.829-4.849-10.986-5.957c-3.159-1.106-6.592-1.66-10.303-1.66
		c-3.776,0-7.275,0.554-10.498,1.66c-3.223,1.108-6.885,3.093-10.986,5.957V119.834z"/>
	<path fill="#FFFFFF" d="M242.066,46.201l3.516,1.367c-3.516,5.469-5.747,9.653-6.689,12.549c-0.944,2.897-1.416,6.821-1.416,11.768
		v41.602c0,6.901,0.488,11.215,1.466,12.939c0.977,1.726,2.147,2.588,3.511,2.588c0.711,0,1.451-0.186,2.222-0.559
		c0.473-0.308,1.866-1.425,4.178-3.348l2.393,3.027l-20.752,17.969c-5.032-3.906-8.398-7.405-10.097-10.498
		c-1.7-3.091-2.647-7.405-2.843-12.939l-29.639,23.438c-11.167-9.128-16.748-18.125-16.748-26.993
		c0-5.933,1.208-11.507,3.627-16.724c3.201-6.845,8.724-14.833,16.566-23.961l-11.749-25.105l1.364-2.53
		c2.533,0.195,4.416,0.293,5.65,0.293c7.665,0,14.42-3.027,20.267-9.082c4.741,2.771,9.921,4.993,15.54,6.668
		c5.618,1.676,9.922,2.512,12.91,2.512c1.364,0,2.403-0.24,3.118-0.719C239.174,49.984,240.377,48.563,242.066,46.201z
		 M217.554,64.764l-33.398-10.257l11.885,25.165l21.513,10.1V64.764z M217.554,93.857l-23.633-11.093
		c-3.647,7.955-5.469,14.931-5.469,20.928c0,10.562,4.787,19.266,14.361,26.111l14.74-11.907V93.857z"/>
	<path fill="#FFFFFF" d="M337.184,65.537l29.053-23.535c6.072,4.362,10.025,8.237,11.854,11.621c2.545,4.558,3.82,9.863,3.82,15.918
		v59.18c-6.848,2.148-12.617,4.526-17.313,7.129c-4.695,2.604-9.455,6.022-14.279,10.254c-11.004-6.966-20.184-10.449-27.539-10.449
		c-6.902,0-13.803,3.483-20.703,10.449c-6.455-5.337-12.631-9.195-18.531-11.572c-5.898-2.376-12.336-3.76-19.311-4.15v-2.344
		c2.93-1.172,4.996-2.847,6.201-5.029c1.203-2.181,1.807-6.429,1.807-12.744V73.252c0-5.794-0.18-9.326-0.537-10.596
		c-0.359-1.27-1.416-2.913-3.174-4.932c-2.801-3.255-4.688-6.038-5.664-8.35c-0.977-2.31-1.465-4.964-1.465-7.959
		c0-5.469,1.691-10.269,5.078-14.404c3.385-4.134,9.342-8.284,17.871-12.451l1.758,2.539c-7.031,4.883-10.547,9.636-10.547,14.258
		c0,1.628,0.391,3.159,1.172,4.59c0.391,0.717,2.766,3.483,7.129,8.301c2.93,3.19,5.176,6.738,6.738,10.645
		c0.91,2.344,1.529,5.698,1.855,10.059l28.467-22.949c5.191,3.452,9.037,7.031,11.537,10.742
		C334.959,56.455,336.533,60.72,337.184,65.537z M292.457,69.689v50.145l24.609,10.254V76.852c0-5.6-0.588-9.538-1.762-11.818
		s-3.848-4.755-8.02-7.425L292.457,69.689z M337.184,70.513v48.833l24.805,10.449V75.472c0-4.819-0.475-8.124-1.422-9.915
		c-0.945-1.792-3.672-4.413-8.176-7.866L337.184,70.513z"/>
	<path fill="#FFFFFF" d="M440.357,42.002l30.401,14.258l18.183-9.18v21.973l-17.578-3.418v44.336c0,7.163,0.423,12.012,1.27,14.551
		c1.106,3.32,3.418,7.163,6.934,11.523c5.664,7.227,8.496,12.402,8.496,15.527s-1.484,6.119-4.451,8.984
		c-2.968,2.864-10.875,7.291-23.723,13.281c-4.367-1.563-8.537-2.719-12.512-3.467c-3.976-0.749-7.755-1.123-11.338-1.123
		c-8.603,0-18.539,1.529-29.813,4.59l-1.367-3.32l23.104-26.978l-23.104-16.577V56.26C417.767,53.525,429.6,48.774,440.357,42.002z
		 M422.112,156.162c8.464-1.367,15.3-2.051,20.51-2.051c4.688,0,9.424,0.618,14.209,1.855c4.785,1.236,9.62,3.125,14.503,5.664
		l4.012-2.539c-8.795-8.192-14.757-14.822-17.883-19.893c-3.127-5.07-5.113-10.597-5.961-16.579L422.112,156.162z M451.441,65.439
		l-26.66-9.18v63.991l14.424,10.463l12.236-14.59V65.439z"/>
	<path fill="#FFFFFF" d="M550.056,78.219l22.675,11.83v41.113c-5.478,0.522-10.434,1.855-14.868,4.004s-9.456,5.795-15.063,10.938
		c-4.823-2.864-9.011-4.849-12.563-5.957c-3.553-1.106-7.315-1.66-11.29-1.66c-6.126,0-11.567,1.855-16.325,5.566
		c-1.761,1.367-3.032,2.051-3.813,2.051c-0.717,0-1.435-0.357-2.151-1.074s-1.074-1.433-1.074-2.15c0-0.781,0.682-1.824,2.048-3.126
		c0.779-0.781,2.113-2.28,3.999-4.495l8.883-11.039l12.58-16.713l-21.357-11.5V59.58c6.717-2.083,11.984-4.41,15.801-6.982
		c3.814-2.571,7.484-6.104,11.006-10.596c8.333,3.516,15.039,5.991,20.119,7.422c3.645,0.977,7.129,1.465,10.449,1.465
		c3.66,0,6.504-0.796,8.531-2.393c2.025-1.595,3.039-3.271,3.039-5.029c0-1.172-0.651-2.344-1.953-3.516
		c-2.539-2.278-3.809-4.492-3.809-6.641c0-2.017,0.553-3.628,1.66-4.834c1.106-1.204,2.344-1.807,3.711-1.807
		c1.822,0,3.467,0.83,4.932,2.49s2.197,3.857,2.197,6.592c0,2.8-0.589,5.534-1.766,8.203c-1.176,2.67-3.432,6.12-6.764,10.352
		L550.056,78.219z M538.263,93.86l-23.54,31.54c2.864-0.977,5.533-1.692,8.008-2.148c2.474-0.455,4.72-0.684,6.738-0.684
		c7.486,0,15.267,2.475,23.34,7.422v-28.32L538.263,93.86z M521.461,84.968l13.373,6.932l21.29-28.33
		c-4.36,1.247-8.138,1.869-11.326,1.869c-8.008,0-15.787-2.669-23.337-8.008V84.968z"/>
</g>
</svg>
