<?xml version="1.0" encoding="utf-8"?>
<!-- Generator: Adobe Illustrator 16.0.0, SVG Export Plug-In . SVG Version: 6.00 Build 0)  -->
<!DOCTYPE svg PUBLIC "-//W3C//DTD SVG 1.1//EN" "http://www.w3.org/Graphics/SVG/1.1/DTD/svg11.dtd">
<svg version="1.1" id="Layer_1" xmlns="http://www.w3.org/2000/svg" xmlns:xlink="http://www.w3.org/1999/xlink" x="0px" y="0px"
	 width="884.416px" height="232.467px" viewBox="0 0 884.416 232.467" enable-background="new 0 0 884.416 232.467"
	 xml:space="preserve">
<g opacity="0.7">
	<path fill="#FFFFFF" d="M209.587,1.883h5.664c-0.344,7.552-1.502,13.301-3.475,17.247c-2.748,5.235-6.822,9.396-12.228,12.485
		c-5.406,3.089-11.371,4.634-17.891,4.634c-6.951,0-15.232-1.887-24.842-5.664v34.109h40.287l-7.401,19.178h-32.886v61.165
		c0,12.103-0.836,20.924-2.51,26.46c-1.673,5.539-4.954,10.84-9.84,15.904c-4.887,5.064-11.019,9.312-18.394,12.746
		c-10.548,4.979-19.039,8.54-25.471,10.688l-53.898,18.097c-16.99-6.352-26.859-9.525-29.604-9.525c-2.403,0-4.549,0.847-6.436,2.54
		c-1.888,1.693-3.218,4.451-3.99,8.272l-5.47-1.294c0-5.944,0.728-10.639,2.188-14.086c2.316-5.514,5.577-9.691,9.782-12.533
		c4.204-2.846,8.708-4.266,13.515-4.266c6.777,0,15.53,2.317,26.257,6.951c7.55,3.346,12.163,5.276,13.836,5.792
		c1.673,0.515,3.282,0.771,4.827,0.771c2.659,0,5.104-1.094,7.336-3.282c2.23-2.188,3.668-5.534,4.312-10.039
		s0.965-13.879,0.965-28.124V83.873l-7.99-0.128c-13.229,0-23.045,1.524-29.445,4.568c-6.401,3.047-11.922,8.174-16.56,15.382
		l-4.956-2.124c3.431-11.307,7.936-19.443,13.515-24.413c9.438-8.395,22.525-12.592,39.257-12.592c1.372,0,3.431,0.044,6.178,0.129
		V37.279l8.889,0.386c9.617,0,19.108-1.951,28.47-5.856c9.36-3.903,17.219-8.559,23.574-13.965c4.208-3.688,8.674-9.01,13.398-15.96
		c14.054,9.01,25.582,13.515,34.579,13.515c3.942,0,7.285-1.05,10.028-3.153C205.901,10.143,208.042,6.69,209.587,1.883z
		 M130.429,35.863c-5.75,3.089-12.314,5.45-19.693,7.079v103.702c0,3.604-0.342,10.38-1.025,20.329
		c-0.428,5.832-1.112,10.25-2.051,13.251c-1.452,4.461-3.59,8.687-6.41,12.674c-2.82,3.988-7.606,9.157-14.357,15.504
		c11.214-4.118,20.162-9.2,26.84-15.246c6.677-6.046,11.13-12.565,13.356-19.557c2.227-6.99,3.341-17.479,3.341-31.46V35.863z"/>
	<path fill="#FFFFFF" d="M321.438,62.635l4.634,1.802c-4.634,7.208-7.574,12.722-8.817,16.54c-1.245,3.819-1.866,8.989-1.866,15.51
		v54.831c0,9.097,0.644,14.782,1.933,17.055c1.287,2.274,2.83,3.411,4.627,3.411c0.938,0,1.913-0.246,2.928-0.736
		c0.624-0.406,2.46-1.878,5.507-4.412l3.153,3.99l-27.352,23.683c-6.633-5.148-11.069-9.76-13.308-13.837
		c-2.24-4.074-3.489-9.76-3.747-17.054l-39.064,30.891c-14.717-12.03-22.074-23.889-22.074-35.577
		c0-7.819,1.593-15.166,4.781-22.042c4.219-9.021,11.498-19.55,21.835-31.58l-15.486-33.09l1.798-3.334
		c3.338,0.257,5.82,0.386,7.447,0.386c10.102,0,19.005-3.99,26.712-11.97c6.249,3.652,13.076,6.581,20.481,8.789
		c7.405,2.208,13.078,3.311,17.016,3.311c1.798,0,3.167-0.316,4.108-0.947C317.627,67.621,319.212,65.749,321.438,62.635z
		 M289.131,87.101l-44.02-13.519l15.665,33.167l28.355,13.312V87.101z M289.131,125.447l-31.148-14.621
		c-4.807,10.484-7.208,19.68-7.208,27.583c0,13.921,6.309,25.393,18.929,34.414l19.428-15.692V125.447z"/>
	<path fill="#FFFFFF" d="M372.215,57.101l22.846,18.985l-10.168,9.847v70.02c0,7.381,0.619,12.186,1.86,14.416
		c1.239,2.232,2.518,3.347,3.835,3.347c0.929,0,1.782-0.214,2.558-0.644c1.084-0.6,3.331-2.317,6.742-5.148l3.153,3.99
		l-27.609,22.396c-6.892-4.891-11.329-9.503-13.31-13.837c-1.983-4.332-2.973-11.905-2.973-22.718V85.932l-9.653-9.847
		L372.215,57.101z M381.933,13.081h16.347l-17.763,27.802h-5.148L381.933,13.081z"/>
	<path fill="#FFFFFF" d="M418.229,71.145l35.911-44.291h3.733l-1.288,35.524h25.872v14.416h-25.872v86.752l14.416,10.684
		l8.238-6.436l3.218,3.861l-28.382,22.653c-9.641-9.866-20.56-16.56-32.757-20.079v-2.574c3.431-2.319,5.706-4.725,6.822-7.218
		c1.458-3.178,2.188-7.775,2.188-13.791V76.793h-12.099V71.145z"/>
	<path fill="#FFFFFF" d="M546.942,9.863l1.287,3.089c-6.142,3.948-10.339,8.153-12.587,12.614
		c-2.249,4.462-3.373,11.542-3.373,21.237v41.96l39.836-31.664c8.468,5.497,13.986,10.8,16.552,15.908
		c2.566,5.11,3.85,13.804,3.85,26.083v58.351c0,11.164-1.158,19.321-3.476,24.474c-3.69,8.417-10.512,16.316-20.465,23.701
		c-13.044,9.788-29.648,18.247-49.812,25.374l-1.802-4.891c16.389-6.781,27.802-12.96,34.237-18.537
		c6.436-5.58,10.639-11.501,12.613-17.764c1.458-4.721,2.188-16.992,2.188-36.816V99.044c0-6.005-0.602-10.168-1.804-12.484
		c-1.807-3.176-5.112-6.31-9.923-9.398l-21.996,17.814v71.659l9.139,9.202l-22.589,18.471l-22.976-18.471l10.168-10.104V48.706
		c0-10.631-0.935-17.917-2.805-21.861c-1.871-3.944-5.569-7.501-11.096-10.675l1.416-3.218c4.533,1.288,8.169,2.725,10.908,4.312
		c2.737,1.589,6.331,4.356,10.779,8.302c5.245-4.976,10.275-8.624,15.09-10.941S540.666,10.722,546.942,9.863z"/>
	<path fill="#FFFFFF" d="M675.397,16.042l-4.054,21.366l-23.619-5.406v31.02h19.95v14.416h-19.95v86.366l14.545,10.94l10.039-8.108
		l2.961,3.604l-29.926,24.069c-10.577-9.609-21.453-16.131-32.629-19.564l-0.772-3.089c3.09-1.973,5.233-4.032,6.436-6.179
		c2.06-3.517,3.09-7.765,3.09-12.742V77.437h-12.1V63.021h12.1v-31.02c12.955-8.752,22.718-16.131,29.281-22.139L675.397,16.042z"/>
	<path fill="#FFFFFF" d="M777.273,57.101l22.976,19.114l-10.426,9.461v67.573c0,7.81,1.096,13.387,3.288,16.733
		c1.404,2.316,2.938,3.475,4.604,3.475c1.227,0,3.596-1.371,7.104-4.118l3.153,3.989l-27.352,20.98
		c-6.838-4.805-11.305-9.116-13.397-12.936c-2.096-3.817-3.229-9.889-3.399-18.213c-13.317,8.562-26.896,18.945-40.737,31.148
		c-8.298-6.521-13.728-12.248-16.294-17.183c-2.566-4.934-3.85-11.434-3.85-19.5V94.042c0-4.461-0.4-7.379-1.198-8.753
		c-1.4-2.401-3.301-3.604-5.7-3.604c-1.8,0-4.499,1.46-8.097,4.376l-3.153-3.99l30.44-24.97l23.361,19.114l-9.653,8.56v68.435
		c0,5.07,0.642,8.787,1.929,11.149c1.285,2.363,4.414,5.348,9.388,8.956l23.564-17.37V85.675l-9.139-9.461L777.273,57.101z"/>
	<path fill="#FFFFFF" d="M877.991,9.863v3.347c-6.779,3.52-11.563,7.831-14.352,12.936c-2.789,5.106-4.183,12.851-4.183,23.232
		v114.425l14.673,10.94l5.664-4.634l3.218,4.634l-25.808,19.564c-7.795-6.777-13.617-11.282-17.471-13.515
		c-3.853-2.23-8.949-4.248-15.286-6.05v-2.831c2.401-1.459,4.268-3.303,5.599-5.535c1.33-2.23,2.253-4.847,2.768-7.852
		c0.171-1.029,0.3-6.178,0.386-15.445v-91.9c0-7.808-0.301-13.235-0.9-16.282c-0.602-3.045-1.802-5.963-3.604-8.752
		c-1.802-2.788-4.849-5.899-9.139-9.332l2.06-2.574c7.832,2.232,14.847,6.779,21.045,13.643
		c6.424-6.777,12.226-11.411,17.408-13.901C865.249,11.494,871.223,10.121,877.991,9.863z"/>
</g>
</svg>
