<?xml version="1.0" encoding="utf-8"?>
<!-- Generator: Adobe Illustrator 16.0.0, SVG Export Plug-In . SVG Version: 6.00 Build 0)  -->
<!DOCTYPE svg PUBLIC "-//W3C//DTD SVG 1.1//EN" "http://www.w3.org/Graphics/SVG/1.1/DTD/svg11.dtd">
<svg version="1.1" id="Layer_1" xmlns="http://www.w3.org/2000/svg" xmlns:xlink="http://www.w3.org/1999/xlink" x="0px" y="0px"
	 width="600px" height="175.325px" viewBox="0 0 600 175.325" enable-background="new 0 0 600 175.325" xml:space="preserve">
<g opacity="0.7">
	<path fill="#FFFFFF" d="M159.932,1.407h4.297c-0.261,5.729-1.14,10.092-2.637,13.086c-2.084,3.972-5.176,7.129-9.277,9.473
		s-8.627,3.516-13.574,3.516c-5.273,0-11.557-1.431-18.848-4.297v25.879h30.566l-5.615,14.551h-24.951v46.407
		c0,9.183-0.635,15.875-1.904,20.076c-1.27,4.202-3.758,8.225-7.466,12.067c-3.708,3.842-8.36,7.065-13.956,9.671
		c-8.003,3.776-14.445,6.479-19.325,8.108l-40.894,13.73c-12.891-4.819-20.378-7.227-22.461-7.227c-1.823,0-3.452,0.643-4.883,1.927
		c-1.433,1.285-2.441,3.376-3.027,6.276l-4.15-0.981c0-4.511,0.552-8.072,1.66-10.688c1.758-4.184,4.231-7.353,7.422-9.509
		c3.189-2.159,6.607-3.236,10.254-3.236c5.142,0,11.783,1.758,19.922,5.273c5.728,2.539,9.229,4.004,10.498,4.395
		s2.49,0.586,3.662,0.586c2.017,0,3.873-0.83,5.566-2.49c1.692-1.66,2.783-4.199,3.271-7.617s0.732-10.53,0.732-21.338v-65.43
		l-6.063-0.098c-10.037,0-17.485,1.157-22.34,3.467c-4.857,2.312-9.045,6.201-12.564,11.67l-3.76-1.611
		c2.603-8.579,6.021-14.752,10.254-18.522c7.161-6.369,17.09-9.554,29.785-9.554c1.041,0,2.603,0.034,4.688,0.098V28.262
		l6.744,0.293c7.297,0,14.498-1.48,21.601-4.443c7.102-2.962,13.064-6.494,17.886-10.596c3.192-2.798,6.581-6.836,10.166-12.109
		c10.663,6.836,19.409,10.254,26.236,10.254c2.991,0,5.527-0.796,7.608-2.393C157.135,7.673,158.76,5.054,159.932,1.407z
		 M99.873,27.188c-4.362,2.344-9.343,4.135-14.941,5.371v78.681c0,2.734-0.259,7.875-0.778,15.423
		c-0.325,4.425-0.844,7.777-1.556,10.054c-1.102,3.384-2.724,6.59-4.863,9.616c-2.139,3.026-5.771,6.948-10.893,11.763
		c8.508-3.125,15.297-6.981,20.364-11.568c5.066-4.586,8.444-9.534,10.133-14.837c1.689-5.304,2.535-13.262,2.535-23.869V27.188z"/>
	<path fill="#FFFFFF" d="M244.795,47.5l3.516,1.367c-3.516,5.469-5.747,9.653-6.689,12.549c-0.944,2.897-1.416,6.821-1.416,11.768
		v41.602c0,6.901,0.488,11.215,1.466,12.939c0.977,1.726,2.147,2.588,3.511,2.588c0.711,0,1.451-0.186,2.222-0.559
		c0.473-0.308,1.866-1.425,4.178-3.348l2.393,3.027l-20.752,17.969c-5.032-3.906-8.398-7.405-10.097-10.498
		c-1.7-3.091-2.647-7.405-2.843-12.939l-29.639,23.438c-11.167-9.128-16.748-18.125-16.748-26.993
		c0-5.933,1.208-11.507,3.627-16.724c3.201-6.845,8.724-14.833,16.566-23.961L182.341,54.62l1.364-2.53
		c2.533,0.195,4.416,0.293,5.65,0.293c7.665,0,14.42-3.027,20.267-9.082c4.741,2.771,9.921,4.993,15.54,6.668
		c5.618,1.676,9.922,2.512,12.91,2.512c1.364,0,2.403-0.24,3.118-0.719C241.903,51.283,243.106,49.863,244.795,47.5z
		 M220.283,66.063l-33.398-10.257l11.885,25.165l21.513,10.1V66.063z M220.283,95.157L196.65,84.063
		c-3.647,7.955-5.469,14.931-5.469,20.928c0,10.562,4.787,19.266,14.361,26.111l14.74-11.907V95.157z"/>
	<path fill="#FFFFFF" d="M393.818,49.063l2.832,2.637c-3.746,3.251-6.259,5.854-7.541,7.803c-1.281,1.95-2.119,3.902-2.513,5.852
		c-0.394,1.951-0.591,5.951-0.591,11.996v40.576c0,5.332,0.528,8.876,1.585,10.631c1.057,1.756,2.051,2.634,2.985,2.634
		c1.305,0,3.573-1.333,6.807-4.004l2.393,3.027l-21.143,17.188c-4.837-3.772-7.975-6.894-9.412-9.366
		c-2.092-3.641-3.137-7.51-3.137-11.609V67.599l-9.782-8.488l-15.511,14.505v52.791l7.324,7.861l-17.041,13.135l-17.334-13.135
		l7.129-7.861V77.888c0-5.661-0.423-9.306-1.267-10.934c-1.17-2.213-3.996-4.848-8.479-7.907l-15.45,12.964v54.396l7.52,7.861
		l-17.139,13.135l-17.529-13.135l7.617-7.861V74.161c0-5.403-0.676-9.31-2.028-11.719c-1.059-1.822-2.029-2.734-2.912-2.734
		c-1.059,0-3.204,1.27-6.438,3.809l-2.393-3.027l20.264-17.188c4.443,3.125,7.465,5.681,9.067,7.666
		c1.601,1.987,2.728,4.15,3.383,6.494c0.391,1.694,0.587,5.046,0.587,10.059l29.15-24.219c6.399,5.078,10.579,9.277,12.538,12.598
		c1.959,3.32,3.102,7.553,3.429,12.695l27.295-25.293l15.967,14.941L393.818,49.063z"/>
	<path fill="#FFFFFF" d="M429.121,43.301l17.334,14.404l-7.715,7.471v53.125c0,5.6,0.47,9.245,1.411,10.938
		c0.94,1.694,1.911,2.539,2.91,2.539c0.705,0,1.352-0.162,1.94-0.488c0.823-0.455,2.527-1.758,5.115-3.906l2.393,3.027
		l-20.947,16.992c-5.229-3.711-8.596-7.21-10.099-10.498c-1.504-3.287-2.255-9.033-2.255-17.236V65.176l-7.324-7.471L429.121,43.301
		z M436.494,9.903h12.402L435.42,30.997h-3.906L436.494,9.903z"/>
	<path fill="#FFFFFF" d="M508.955,7.461V10c-5.144,2.67-8.773,5.942-10.889,9.814c-2.116,3.874-3.174,9.75-3.174,17.627v86.816
		l11.133,8.301l4.297-3.516l2.441,3.516l-19.58,14.844c-5.914-5.142-10.332-8.56-13.255-10.254
		c-2.924-1.692-6.791-3.223-11.599-4.59v-2.148c1.822-1.106,3.238-2.505,4.248-4.199c1.009-1.692,1.709-3.677,2.1-5.957
		c0.13-0.781,0.228-4.688,0.293-11.719V38.809c0-5.923-0.229-10.042-0.684-12.354c-0.456-2.31-1.367-4.524-2.734-6.641
		c-1.367-2.115-3.679-4.476-6.934-7.08l1.563-1.953c5.941,1.694,11.264,5.144,15.967,10.352c4.874-5.142,9.275-8.658,13.208-10.547
		C499.287,8.699,503.82,7.657,508.955,7.461z"/>
	<path fill="#FFFFFF" d="M521.357,60.391l20.508-17.09c5.599,3.776,9.229,7.065,10.889,9.863c1.66,2.8,2.49,6.641,2.49,11.523v2.148
		l29.443-23.535c10.123,10.612,15.186,21.973,15.186,34.082c0,6.511-1.66,13.005-4.98,19.482
		c-3.32,6.479-8.529,12.631-15.625,18.457c-7.097,5.827-18.555,13.461-34.375,22.9c-6.901,4.167-11.035,6.804-12.402,7.91
		c-2.93,2.278-5.014,4.492-6.25,6.641c-0.912,1.563-1.367,3.32-1.367,5.273c0,3.32,1.644,6.396,4.932,9.229
		c3.287,2.832,7.633,4.248,13.037,4.248c3.906,0,7.129-0.684,9.668-2.051c1.236-0.651,2.441-2.036,3.613-4.15
		c1.172-2.116,2.181-3.5,3.027-4.15c0.846-0.651,1.855-0.977,3.027-0.977c1.302,0,2.344,0.357,3.125,1.074
		c0.781,0.716,1.172,1.66,1.172,2.832c0,2.083-1.53,4.134-4.59,6.152c-4.688,3.255-10.612,4.883-17.773,4.883
		c-7.487,0-13.249-1.774-17.285-5.322c-4.037-3.549-6.055-7.764-6.055-12.646c0-4.819,2.262-9.506,6.784-14.063
		c2.162-2.212,3.507-3.775,4.031-4.688c1.44-2.474,2.423-4.769,2.948-6.885c0.524-2.115,0.787-5.093,0.787-8.936v-46.68
		c0-6.509-0.743-10.938-2.228-13.281c-1.163-1.822-2.422-2.734-3.776-2.734c-1.099,0-2.519,0.847-4.261,2.539
		c-0.26,0.261-0.679,0.651-1.259,1.172L521.357,60.391z M555.244,71.336v55.461c9.143-6.641,15.645-13.558,19.504-20.753
		c3.858-7.196,5.789-14.05,5.789-20.563c0-8.791-3.576-17.386-10.729-25.787L555.244,71.336z"/>
</g>
</svg>
