<?xml version="1.0" encoding="utf-8"?>
<!-- Generator: Adobe Illustrator 16.0.0, SVG Export Plug-In . SVG Version: 6.00 Build 0)  -->
<!DOCTYPE svg PUBLIC "-//W3C//DTD SVG 1.1//EN" "http://www.w3.org/Graphics/SVG/1.1/DTD/svg11.dtd">
<svg version="1.1" id="Layer_1" xmlns="http://www.w3.org/2000/svg" xmlns:xlink="http://www.w3.org/1999/xlink" x="0px" y="0px"
	 width="731.169px" height="267.532px" viewBox="0 0 731.169 267.532" enable-background="new 0 0 731.169 267.532"
	 xml:space="preserve">
<g opacity="0.7">
	<path fill="#FFFFFF" d="M177.271,1.614l2.921,6.367c-13.23,4.59-23,9.229-29.313,13.918s-10.421,9.625-12.324,14.812
		c-1.906,5.187-2.856,13.616-2.856,25.287v30.975l58.406-46.89c12.289,7.792,21.579,15.133,27.876,22.024
		c6.294,6.891,10.465,13.785,12.514,20.676c2.048,6.891,3.073,18.178,3.073,33.859v22.324c0,11.687-0.726,20.378-2.172,26.071
		c-1.449,5.692-4.37,11.336-8.764,16.928c-6.393,8.192-17.377,18.432-32.958,30.716c-11.187,8.789-18.078,14.88-20.673,18.278
		c-2.598,3.395-3.895,6.292-3.895,8.689c0,1.296,0.499,2.445,1.498,3.445c0.997,0.997,2.397,1.498,4.194,1.498
		c1.098,0,2.622-0.225,4.569-0.674c1.948-0.45,3.469-0.675,4.569-0.675c2.596,0,4.543,0.648,5.842,1.947
		c1.297,1.297,1.948,3.098,1.948,5.396c0,2.795-1.101,5.094-3.296,6.892c-2.996,2.495-6.643,3.745-10.936,3.745
		c-4.595,0-8.539-1.823-11.835-5.468c-3.295-3.647-4.943-8.066-4.943-13.258c0-3.596,1.222-7.816,3.67-12.659
		c2.446-4.846,8.513-13.232,18.201-25.168c9.686-11.933,15.955-20.973,18.801-27.115c2.847-6.142,4.817-13.606,5.917-22.396
		c-12.385-5.791-23.62-8.688-33.707-8.688c-12.883,0-25.617,2.947-38.201,8.838c-12.584,5.894-27.115,16.329-43.594,31.31
		c6.896-0.299,12.045-0.449,15.444-0.449c7.897,0,18.492,0.65,31.787,1.947c3.698,0.4,6.947,0.6,9.747,0.6
		c4.896,0,9.271-1.198,13.12-3.596c3.848-2.396,7.774-6.49,11.771-12.284l6.517,3.671l-33.482,46.964
		c-13.691-5.791-25.607-9.887-35.75-12.284c-10.145-2.396-20.414-3.595-30.807-3.595c-11.692,0-22.084,1.423-31.179,4.27
		c-9.094,2.846-15.488,6.467-19.187,10.86c-2.799,3.395-4.197,6.442-4.197,9.139c0,1.896,1.198,4.644,3.595,8.239
		c1.697,2.397,2.547,4.693,2.547,6.892c0,2.495-0.749,4.543-2.247,6.142c-1.498,1.597-3.197,2.397-5.093,2.397
		c-2.397,0-4.745-1.349-7.041-4.045c-2.299-2.697-3.446-5.992-3.446-9.888c0-4.695,1.278-9.313,3.834-13.857
		c2.556-4.545,8.219-11.235,16.989-20.074c8.769-8.838,14.457-15.654,17.064-20.448c2.605-4.794,3.909-9.487,3.909-14.082
		c0-3.495-0.953-6.24-2.856-8.239c-1.903-1.997-4.457-2.996-7.661-2.996c-6.011,0-10.87,4.295-14.576,12.883l-6.667-0.074
		c0.899-7.87,2.547-13.848,4.944-17.935c2.397-4.084,6.042-7.572,10.936-10.463c3.794-2.191,8.888-3.537,15.28-4.036
		c-0.497-12.083-2.907-20.449-7.23-25.093c-4.326-4.644-10.513-6.966-18.56-6.966c-4.972,0-8.897,0.924-11.778,2.771
		c-2.884,1.849-5.766,5.37-8.647,10.561l-5.768-1.723c1.199-6.475,2.846-11.357,4.944-14.644c3.295-4.883,7.689-8.693,13.183-11.432
		c5.491-2.739,11.333-4.11,17.527-4.11c3.794,0,8.188,0.25,13.183,0.749c-0.3-4.691-0.45-8.633-0.45-11.828
		c0-11.978,3.296-23.408,9.888-34.288c4.793-7.785,12.832-15.919,24.119-24.404c-11.186,3.569-18.726,5.353-22.621,5.353
		c-3.396,0-12.385-1.296-26.965-3.895c-5.693-1.098-9.49-1.647-11.386-1.647c-3.497,0-6.666,1.475-9.513,4.419
		c-2.846,2.947-4.969,8.314-6.367,16.104h-7.64c1.599-9.188,3.797-16.229,6.596-21.123c4.396-7.289,9.89-12.907,16.486-16.853
		c6.596-3.944,13.242-5.917,19.938-5.917c3.996,0,10.99,1.449,20.985,4.344C75.021,11.553,82.965,13,88.862,13
		c11.989,0,25.38-3.794,40.171-11.386l3.221,6.367c-20.336,7.888-34.311,17.67-41.923,29.351
		c-5.009,7.687-7.514,20.266-7.514,37.737v69.932c0,12.38-1.267,21.989-3.799,28.828c-2.533,6.84-8.169,15.699-16.909,26.579
		c12.151-6.891,21.464-13.857,27.939-20.897c6.475-7.041,10.583-13.633,12.326-19.775c1.742-6.142,2.615-16.753,2.615-31.834V76.967
		c0-15.88,1.823-27.663,5.473-35.355c3.649-7.689,9.974-14.479,18.972-20.374C138.432,15.347,154.376,8.805,177.271,1.614z
		 M135.7,101.686v6.741c13.083,5.194,25.217,7.79,36.403,7.79c6.69,0,12.558-0.648,17.603-1.948
		c5.042-1.297,10.91-3.645,17.602-7.041c-1.797-7.39-5.044-13.857-9.737-19.4c-4.695-5.543-12.186-11.21-22.471-17.003
		L135.7,101.686z M135.7,153.519c12.284-5.191,23.969-7.79,35.055-7.79c6.09,0,11.76,0.541,17.003,1.618s11.76,3.134,19.55,6.172
		v-38.5c-7.49,3.198-13.782,5.37-18.875,6.517c-5.094,1.149-10.786,1.723-17.078,1.723c-11.385,0-23.271-2.446-35.654-7.341V153.519
		z"/>
	<path fill="#FFFFFF" d="M371.347,90.75v112.056c-15.004,6.093-25.858,11.086-32.56,14.98c-5.103,2.897-10.004,6.493-14.705,10.786
		c-14.5-8.787-26.5-14.88-35.998-18.276c-7.2-2.596-15.351-4.094-24.449-4.494l-1.498-2.996c3.794-3.195,6.191-6.091,7.191-8.689
		c1.397-3.394,2.097-9.138,2.097-17.228V94.645c18.305-6.091,33.959-14.681,46.965-25.767
		C332.591,78.266,350.243,85.558,371.347,90.75z M301.687,188.274l39.1,16.029v-95.128c-12.284-5.751-20.973-9.534-26.066-11.35
		c-3.595-1.311-7.94-2.423-13.033-3.331V188.274z"/>
	<path fill="#FFFFFF" d="M598.155,77.716l4.345,4.044c-5.746,4.988-9.602,8.979-11.568,11.971c-1.966,2.992-3.251,5.985-3.854,8.977
		c-0.604,2.994-0.906,9.129-0.906,18.403v62.245c0,8.179,0.81,13.616,2.433,16.308c1.619,2.694,3.146,4.04,4.578,4.04
		c2.001,0,5.481-2.046,10.442-6.142l3.67,4.644l-32.434,26.366c-7.42-5.786-12.232-10.575-14.438-14.367
		c-3.209-5.585-4.813-11.521-4.813-17.809v-90.245L540.604,93.13l-23.793,22.251v80.982l11.235,12.06l-26.142,20.149l-26.591-20.149
		l10.936-12.06v-74.428c0-8.684-0.648-14.276-1.942-16.774c-1.795-3.394-6.131-7.437-13.007-12.129l-23.7,19.887v83.445
		l11.535,12.06l-26.291,20.149l-26.891-20.149l11.685-12.06v-80.146c0-8.289-1.037-14.281-3.111-17.977
		c-1.625-2.795-3.113-4.195-4.466-4.195c-1.625,0-4.916,1.948-9.875,5.843l-3.67-4.644L427.6,68.877
		c6.816,4.794,11.451,8.715,13.909,11.76c2.456,3.048,4.186,6.367,5.189,9.962c0.6,2.598,0.901,7.741,0.901,15.43l44.717-37.152
		c9.817,7.79,16.229,14.232,19.234,19.325c3.005,5.093,4.759,11.587,5.26,19.475l41.871-38.8l24.493,22.92L598.155,77.716z"/>
	<path fill="#FFFFFF" d="M688.938,68.877l42.246,49.287l-67.114,47.04v27.265l34.756,13.782l23.52-16.029l3.296,4.494
		l-48.463,33.856c-9.901-5.292-18.055-9.087-24.454-11.386c-6.401-2.296-15.503-4.692-27.305-7.19v-3.745
		c3.395-1.997,5.667-4.469,6.816-7.415c1.147-2.945,1.723-9.312,1.723-19.101v-85.69c9.387-3.394,17.177-6.491,23.37-9.288
		C661.823,82.66,672.359,77.367,688.938,68.877z M666.168,86.105l-2.098,1.048v68.022l39.46-27.658L666.168,86.105z"/>
</g>
</svg>
