<?xml version="1.0" encoding="utf-8"?>
<!-- Generator: Adobe Illustrator 16.0.0, SVG Export Plug-In . SVG Version: 6.00 Build 0)  -->
<!DOCTYPE svg PUBLIC "-//W3C//DTD SVG 1.1//EN" "http://www.w3.org/Graphics/SVG/1.1/DTD/svg11.dtd">
<svg version="1.1" id="Layer_1" xmlns="http://www.w3.org/2000/svg" xmlns:xlink="http://www.w3.org/1999/xlink" x="0px" y="0px"
	 width="960px" height="165.584px" viewBox="0 0 960 165.584" enable-background="new 0 0 960 165.584" xml:space="preserve">
<g>
	<path fill="#051f08" d="M122.303,2.143l1.79,4.27c-4.407,2.134-7.666,4.251-9.777,6.354c-2.111,2.103-3.596,4.454-4.453,7.054
		c-0.858,2.602-1.285,6.473-1.285,11.612c0,1.652,0.03,3.855,0.092,6.61l1.561,68.576c0.122,7.528,0.916,12.454,2.38,14.779
		c1.036,1.652,2.287,2.479,3.751,2.479c1.769,0,4.514-1.774,8.236-5.325l2.708,3.443l-17.076,14.563l-5.692,4.67
		c-4.836-2.264-8.278-5.263-10.328-8.997c-2.051-3.732-3.199-9.7-3.442-17.902l-35.483,26.899
		c-19.79-13.036-33.27-19.555-40.439-19.555c-1.776,0-3.276,0.551-4.5,1.652c-0.918,0.796-1.377,1.928-1.377,3.397
		c0,1.592,0.581,3.337,1.744,5.233c1.529,2.571,2.295,4.254,2.295,5.049c0,1.164-0.429,2.158-1.285,2.984
		c-0.858,0.826-1.898,1.239-3.122,1.239c-1.531,0-2.754-0.611-3.672-1.836c-1.347-1.652-2.02-3.794-2.02-6.426
		c0-2.938,0.84-6.227,2.524-9.869c1.683-3.641,4.177-7.604,7.482-11.889c0.673-0.918,1.285-1.774,1.836-2.57L27.873,90.73
		c-8.872-6.67-15.098-13.066-18.677-19.186c-3.58-6.119-5.369-12.975-5.369-20.563c0-8.813,2.249-16.983,6.748-24.511
		c4.499-7.528,11.261-13.464,20.289-17.809c9.027-4.345,18.315-6.518,27.863-6.518c14.627,0,28.735,5.081,42.323,15.24
		c3.298-3.489,6.474-6.349,9.527-8.584C113.63,6.566,117.539,4.346,122.303,2.143z M77.18,23.442
		c-7.712-3.794-15.394-5.692-23.043-5.692c-8.141,0-15.791,1.789-22.951,5.367c-7.161,3.578-12.518,8.195-16.066,13.851
		c-3.55,5.658-5.325,11.451-5.325,17.383c0,12.537,6.781,23.636,20.343,33.296l30.697-41.899c-4.582-2.507-8.706-3.761-12.371-3.761
		c-5.071,0-9.225,2.387-12.461,7.16c-0.611,0.98-1.223,1.469-1.833,1.469c-0.378,0-0.74-0.184-1.087-0.551s-0.519-0.826-0.519-1.377
		c0-1.896,0.962-4.529,2.89-7.896c1.926-3.365,4.771-6.089,8.534-8.17c3.763-2.081,7.725-3.122,11.884-3.122
		c4.282,0,9.147,1.037,14.592,3.11L77.18,23.442z M30.964,93.857l-8.35,11.396l46.645,20.107l21.6-16.03l-0.367-15.472H30.964z
		 M89.023,32.91c-1.772-1.958-2.962-3.213-3.573-3.764c-0.427-0.427-1.956-1.559-4.581-3.396L40.785,80.454h49.34L89.023,32.91z"/>
	<path fill="#051f08" d="M177.982,9.671v2.387c-4.835,2.51-8.248,5.585-10.236,9.226c-1.99,3.643-2.983,9.167-2.983,16.571v81.616
		l10.466,7.804l4.04-3.305l2.295,3.305l-18.407,13.954c-5.56-4.834-9.713-8.047-12.461-9.64c-2.749-1.591-6.383-3.029-10.903-4.314
		v-2.02c1.713-1.04,3.044-2.355,3.993-3.948c0.948-1.591,1.607-3.457,1.974-5.6c0.122-0.735,0.214-4.407,0.275-11.017V39.141
		c0-5.569-0.215-9.44-0.643-11.613c-0.429-2.172-1.285-4.253-2.57-6.243c-1.286-1.988-3.458-4.208-6.519-6.656l1.469-1.835
		c5.585,1.592,10.589,4.835,15.01,9.731c4.581-4.834,8.72-8.139,12.417-9.915C168.894,10.834,173.156,9.854,177.982,9.671z"/>
	<path fill="#051f08" d="M254.778,43.364l16.387,13.634l-7.436,6.747v48.199c0,5.57,0.782,9.548,2.345,11.935
		c1.001,1.652,2.096,2.479,3.284,2.479c0.875,0,2.565-0.979,5.066-2.938l2.25,2.846l-19.509,14.964
		c-4.877-3.427-8.063-6.502-9.556-9.227c-1.495-2.723-2.303-7.053-2.424-12.991c-9.5,6.107-19.185,13.513-29.057,22.217
		c-5.919-4.65-9.792-8.736-11.623-12.256c-1.83-3.519-2.746-8.155-2.746-13.908V69.712c0-3.182-0.285-5.263-0.855-6.243
		c-0.998-1.713-2.354-2.57-4.065-2.57c-1.284,0-3.209,1.042-5.775,3.122l-2.249-2.846l21.712-17.811l16.663,13.634l-6.885,6.105
		v48.812c0,3.616,0.458,6.268,1.375,7.953c0.917,1.686,3.148,3.814,6.696,6.388l16.808-12.39V63.745l-6.519-6.747L254.778,43.364z"
		/>
	<path fill="#051f08" d="M408.231,48.781l2.663,2.479c-3.521,3.057-5.884,5.503-7.089,7.336c-1.205,1.833-1.993,3.668-2.362,5.501
		c-0.371,1.834-0.555,5.594-0.555,11.278v38.145c0,5.012,0.496,8.345,1.49,9.995c0.993,1.651,1.928,2.476,2.806,2.476
		c1.227,0,3.36-1.254,6.399-3.764l2.249,2.846l-19.876,16.158c-4.547-3.546-7.497-6.481-8.848-8.805
		c-1.967-3.423-2.95-7.061-2.95-10.913V66.207l-9.196-7.98l-14.582,13.636v49.629l6.885,7.39l-16.021,12.348l-16.295-12.348
		l6.702-7.39V75.879c0-5.322-0.397-8.749-1.19-10.279c-1.101-2.08-3.757-4.558-7.971-7.433l-14.524,12.187v51.138l7.069,7.39
		l-16.111,12.348l-16.479-12.348l7.161-7.39V72.375c0-5.079-0.635-8.751-1.906-11.017c-0.996-1.712-1.908-2.57-2.737-2.57
		c-0.996,0-3.013,1.193-6.052,3.581l-2.249-2.846l19.05-16.158c4.177,2.938,7.017,5.341,8.523,7.207
		c1.505,1.868,2.565,3.902,3.181,6.105c0.367,1.592,0.552,4.744,0.552,9.456l27.404-22.768c6.016,4.774,9.945,8.722,11.787,11.843
		c1.842,3.122,2.917,7.101,3.224,11.935l25.66-23.778l15.01,14.046L408.231,48.781z"/>
	<path fill="#051f08" d="M481.447,43.364l12.53,13.771l8.951-8.629l2.617,2.479c-4.327,3.932-6.952,6.912-7.878,8.938
		c-1.236,2.702-1.854,6.419-1.854,11.15v43.769c0,4.054,0.646,7.064,1.937,9.03c0.798,1.291,1.689,1.935,2.674,1.935
		c0.861,0,2.89-1.193,6.085-3.58l2.249,2.846l-19.692,16.158c-5.099-3.828-8.372-7.217-9.814-10.166
		c-1.444-2.948-2.167-7.704-2.167-14.27V66.555l-8.114-8.571l-15.664,12.572v50.936l6.886,6.563l-16.204,13.174l-16.295-13.174
		l6.886-6.563V74.647c0-6.662-0.677-11.153-2.028-13.476c-0.922-1.589-1.967-2.384-3.135-2.384c-1.23,0-3.074,1.193-5.532,3.581
		l-2.25-2.846l19.509-16.158c5.405,4.024,8.785,7.204,10.136,9.541c1.352,2.336,2.028,5.582,2.028,9.734v3.309L481.447,43.364z"/>
	<path fill="#051f08" d="M537.265,43.364l16.295,13.542l-7.252,7.023v49.943c0,5.264,0.442,8.691,1.327,10.282
		c0.884,1.592,1.796,2.387,2.734,2.387c0.664,0,1.272-0.153,1.826-0.459c0.772-0.428,2.375-1.652,4.808-3.672l2.249,2.846
		l-19.692,15.974c-4.916-3.489-8.08-6.778-9.493-9.869c-1.414-3.09-2.12-8.492-2.12-16.204V63.928l-6.886-7.023L537.265,43.364z
		 M544.196,11.966h11.659l-12.67,19.83h-3.672L544.196,11.966z"/>
	<path fill="#051f08" d="M727.027,2.143l1.79,3.902c-8.107,2.813-14.094,5.656-17.964,8.529c-3.868,2.874-6.386,5.898-7.552,9.078
		c-1.168,3.179-1.75,8.344-1.75,15.496V58.13l35.793-28.735c7.53,4.775,13.225,9.273,17.083,13.497
		c3.856,4.223,6.413,8.447,7.668,12.671c1.256,4.223,1.884,11.14,1.884,20.749v13.681c0,7.162-0.444,12.488-1.331,15.977
		c-0.889,3.489-2.679,6.947-5.37,10.374c-3.918,5.021-10.65,11.295-20.198,18.823c-6.855,5.386-11.077,9.119-12.669,11.202
		c-1.592,2.08-2.387,3.855-2.387,5.325c0,0.794,0.306,1.499,0.918,2.111c0.611,0.61,1.469,0.918,2.57,0.918
		c0.673,0,1.607-0.138,2.801-0.413s2.125-0.414,2.8-0.414c1.591,0,2.784,0.398,3.58,1.194c0.795,0.795,1.193,1.898,1.193,3.307
		c0,1.713-0.674,3.121-2.02,4.223c-1.836,1.529-4.07,2.295-6.701,2.295c-2.816,0-5.233-1.117-7.253-3.351
		c-2.02-2.235-3.03-4.943-3.03-8.125c0-2.203,0.749-4.79,2.25-7.757c1.499-2.97,5.217-8.109,11.154-15.423
		c5.936-7.313,9.776-12.853,11.521-16.617c1.744-3.764,2.952-8.338,3.626-13.725c-7.589-3.548-14.475-5.324-20.656-5.324
		c-7.896,0-15.698,1.806-23.411,5.417c-7.711,3.612-16.616,10.007-26.715,19.188c4.227-0.184,7.383-0.275,9.465-0.275
		c4.84,0,11.332,0.399,19.479,1.193c2.267,0.245,4.258,0.367,5.974,0.367c3.001,0,5.682-0.734,8.041-2.204
		c2.357-1.469,4.763-3.978,7.214-7.528l3.992,2.25l-20.519,28.781c-8.39-3.549-15.692-6.059-21.908-7.528
		c-6.217-1.469-12.51-2.203-18.879-2.203c-7.165,0-13.534,0.872-19.107,2.616c-5.572,1.744-9.492,3.963-11.758,6.656
		c-1.716,2.08-2.572,3.948-2.572,5.601c0,1.161,0.734,2.846,2.203,5.049c1.04,1.469,1.562,2.877,1.562,4.223
		c0,1.53-0.46,2.785-1.378,3.765c-0.918,0.979-1.959,1.468-3.121,1.468c-1.469,0-2.908-0.824-4.315-2.478
		c-1.408-1.653-2.111-3.672-2.111-6.059c0-2.878,0.784-5.708,2.35-8.492c1.567-2.786,5.037-6.886,10.412-12.302
		c5.373-5.417,8.859-9.593,10.457-12.531c1.597-2.938,2.396-5.814,2.396-8.63c0-2.142-0.583-3.824-1.75-5.049
		c-1.166-1.224-2.731-1.836-4.695-1.836c-3.683,0-6.662,2.632-8.933,7.896l-4.085-0.046c0.551-4.822,1.562-8.486,3.03-10.991
		c1.469-2.503,3.702-4.641,6.701-6.412c2.325-1.342,5.447-2.167,9.364-2.473c-0.305-7.405-1.782-12.532-4.431-15.378
		c-2.651-2.846-6.442-4.269-11.374-4.269c-3.047,0-5.452,0.567-7.218,1.699c-1.768,1.133-3.534,3.291-5.3,6.472l-3.534-1.056
		c0.734-3.968,1.744-6.96,3.029-8.974c2.021-2.993,4.712-5.328,8.079-7.006c3.365-1.678,6.946-2.519,10.741-2.519
		c2.325,0,5.018,0.153,8.079,0.459c-0.184-2.875-0.275-5.29-0.275-7.249c0-7.34,2.02-14.344,6.06-21.012
		c2.938-4.771,7.863-9.756,14.78-14.956c-6.855,2.188-11.476,3.281-13.862,3.281c-2.082,0-7.59-0.794-16.525-2.387
		c-3.488-0.673-5.815-1.01-6.977-1.01c-2.145,0-4.087,0.903-5.831,2.708c-1.744,1.806-3.045,5.096-3.901,9.869h-4.682
		c0.979-5.63,2.326-9.945,4.042-12.945c2.694-4.467,6.061-7.91,10.104-10.328c4.042-2.417,8.114-3.627,12.219-3.627
		c2.448,0,6.734,0.888,12.859,2.663c6.124,1.776,10.992,2.662,14.605,2.662c7.348,0,15.555-2.325,24.619-6.977l1.974,3.902
		c-12.463,4.834-21.026,10.829-25.691,17.987c-3.07,4.711-4.604,12.419-4.604,23.126v42.856c0,7.587-0.776,13.476-2.328,17.667
		s-5.006,9.621-10.363,16.289c7.446-4.223,13.154-8.492,17.122-12.807s6.485-8.354,7.554-12.119
		c1.067-3.764,1.603-10.266,1.603-19.509V48.321c0-9.731,1.117-16.952,3.354-21.666c2.235-4.712,6.111-8.874,11.626-12.486
		C703.226,10.559,712.998,6.55,727.027,2.143z M701.552,63.469v4.132c8.018,3.183,15.454,4.773,22.309,4.773
		c4.1,0,7.696-0.397,10.788-1.193c3.089-0.795,6.686-2.233,10.786-4.315c-1.102-4.529-3.091-8.492-5.968-11.889
		s-7.468-6.87-13.77-10.42L701.552,63.469z M701.552,95.234c7.528-3.182,14.688-4.774,21.482-4.774
		c3.732,0,7.206,0.331,10.421,0.991c3.213,0.66,7.205,1.921,11.979,3.783V71.64c-4.59,1.959-8.445,3.291-11.567,3.994
		c-3.121,0.704-6.61,1.056-10.466,1.056c-6.977,0-14.262-1.5-21.85-4.499V95.234z"/>
	<path fill="#051f08" d="M844.861,47.312l3.304,1.285c-3.304,5.142-5.401,9.075-6.288,11.797c-0.889,2.724-1.331,6.412-1.331,11.063
		v39.109c0,6.488,0.459,10.543,1.379,12.164c0.918,1.623,2.019,2.433,3.3,2.433c0.669,0,1.365-0.175,2.089-0.525
		c0.445-0.29,1.754-1.339,3.928-3.146l2.25,2.845l-19.51,16.893c-4.73-3.672-7.895-6.961-9.492-9.869
		c-1.598-2.906-2.488-6.961-2.672-12.164l-27.862,22.033c-10.499-8.581-15.746-17.039-15.746-25.375
		c0-5.577,1.137-10.817,3.41-15.722c3.01-6.436,8.2-13.945,15.574-22.526l-11.045-23.601l1.282-2.378
		c2.381,0.184,4.151,0.275,5.312,0.275c7.205,0,13.556-2.846,19.052-8.538c4.458,2.605,9.328,4.694,14.609,6.269
		c5.281,1.575,9.328,2.361,12.137,2.361c1.282,0,2.26-0.225,2.931-0.676C842.142,50.868,843.272,49.532,844.861,47.312z
		 M821.817,64.762L790.42,55.12l11.173,23.657l20.225,9.495V64.762z M821.817,92.113l-22.217-10.429
		c-3.429,7.478-5.142,14.036-5.142,19.674c0,9.93,4.5,18.112,13.501,24.547l13.857-11.193V92.113z"/>
	<path fill="#051f08" d="M903.341,9.671v2.387c-4.836,2.51-8.247,5.585-10.235,9.226c-1.99,3.643-2.984,9.167-2.984,16.571v81.616
		l10.465,7.804l4.04-3.305l2.295,3.305l-18.406,13.954c-5.56-4.834-9.713-8.047-12.461-9.64c-2.749-1.591-6.384-3.029-10.904-4.314
		v-2.02c1.713-1.04,3.044-2.355,3.994-3.948c0.948-1.591,1.606-3.457,1.974-5.6c0.122-0.735,0.214-4.407,0.275-11.017V39.141
		c0-5.569-0.215-9.44-0.643-11.613c-0.429-2.172-1.285-4.253-2.571-6.243c-1.284-1.988-3.458-4.208-6.518-6.656l1.469-1.835
		c5.586,1.592,10.59,4.835,15.011,9.731c4.582-4.834,8.72-8.139,12.417-9.915C894.253,10.834,898.514,9.854,903.341,9.671z"/>
	<path fill="#051f08" d="M956.129,9.671v2.387c-4.836,2.51-8.248,5.585-10.236,9.226c-1.99,3.643-2.983,9.167-2.983,16.571v81.616
		l10.465,7.804l4.04-3.305l2.295,3.305l-18.407,13.954c-5.56-4.834-9.712-8.047-12.461-9.64c-2.748-1.591-6.384-3.029-10.903-4.314
		v-2.02c1.712-1.04,3.044-2.355,3.993-3.948c0.949-1.591,1.607-3.457,1.974-5.6c0.123-0.735,0.215-4.407,0.276-11.017V39.141
		c0-5.569-0.216-9.44-0.643-11.613c-0.43-2.172-1.286-4.253-2.571-6.243c-1.285-1.988-3.458-4.208-6.519-6.656l1.47-1.835
		c5.586,1.592,10.589,4.835,15.01,9.731c4.582-4.834,8.721-8.139,12.417-9.915C947.04,10.834,951.302,9.854,956.129,9.671z"/>
</g>
</svg>
