<?xml version="1.0" encoding="utf-8"?>
<!-- Generator: Adobe Illustrator 16.0.0, SVG Export Plug-In . SVG Version: 6.00 Build 0)  -->
<!DOCTYPE svg PUBLIC "-//W3C//DTD SVG 1.1//EN" "http://www.w3.org/Graphics/SVG/1.1/DTD/svg11.dtd">
<svg version="1.1" id="Layer_1" xmlns="http://www.w3.org/2000/svg" xmlns:xlink="http://www.w3.org/1999/xlink" x="0px" y="0px"
	 width="541.169px" height="551.553px" viewBox="0 0 541.169 551.553" enable-background="new 0 0 541.169 551.553"
	 xml:space="preserve">
<g>
	<g>
		<path fill-rule="evenodd" clip-rule="evenodd" fill="#FFFFFF" d="M457.621,189.234c5.109,7.852,10.219,15.703,15.328,23.557
			c-0.383,0.352-0.764,0.703-1.146,1.055c-5.777-5.166-14.162-6.584-18.258-14.129c-1.672,7.832,2.203,13.107,6.756,18.43
			c5.047,5.902,9.639,12.219,14.121,18.575c3.949,5.602,9.686,9.002,15.145,12.582c5.475,3.59,11.537,6.34,17.508,9.102
			c3.268,1.512,5.695,3.584,7.395,6.691c10.314,18.841,19.771,38.21,24.193,59.25c2.748,13.07,4.398,26.873-1.393,40.008
			c-0.207,0.467-0.518,0.889-1.281,2.176c-0.814-1.795-1.553-2.963-1.891-4.238c-2.408-9.105-4.734-18.23-7.088-27.35
			c-0.342,0.029-0.686,0.061-1.027,0.09c-0.057,0.83-0.193,1.664-0.156,2.492c0.498,11.371-0.662,22.457-4.008,33.451
			c-2.479,8.143-3.857,16.686-3.146,25.297c1.225,14.865-3.045,28.951-5.795,43.258c-0.164,0.863-0.77,1.641-1.699,3.543
			c-5.406-8.721-10.543-16.488-14.129-25.494c-0.455,3.842-0.9,7.682-1.363,11.521c-0.902,7.473-0.098,6.568-7.086,5.703
			c-8.76-1.084-8.77-1.021-11.34,7.531c-0.305,1.02-0.678,2.039-0.814,3.086c-0.955,7.334-5.744,12.383-10.346,17.561
			c-1.211,1.361-2.412,1.6-3.879,0.428c-0.746-0.596-1.576-1.09-2.393-1.592c-8.043-4.951-4.807-5.084-12.918,0.51
			c-0.963,0.664-1.799,1.551-2.824,2.078c-7.092,3.641-10.43,10.361-13.865,16.945c-1.602,3.07-3.879,4.477-7.275,4.738
			c-3.289,0.254-6.547,0.91-9.814,1.418c-3.678,0.572-4.012,0.297-4.02-3.525c-0.008-4.049-0.002-8.098-0.002-12.439
			c-4.193,1.242-8.027,2.324-10.125,6.543c-1.32,2.65-3.111,5.088-4.865,7.492c-0.939,1.287-2.248,2.303-3.391,3.441
			c-0.727-1.479-1.57-2.91-2.156-4.441c-2.207-5.748-4.32-11.531-6.492-17.295c-0.213-0.563-0.59-1.064-1.271-2.271
			c-1.074,4.875-1.996,9.066-2.918,13.26c-0.41,0.012-0.82,0.023-1.23,0.035c-0.459-1.17-1.057-2.303-1.357-3.512
			c-2.326-9.313-4.951-18.568-6.777-27.98c-1.736-8.947-3.188-17.936-2.77-27.221c0.355-7.943-0.752-15.943-0.969-23.924
			c-0.164-5.945-0.146-11.912,0.176-17.85c0.291-5.314,0.926-10.629,1.754-15.889c0.678-4.289,1.994-8.475,2.748-12.756
			c0.229-1.295-0.102-2.992-0.811-4.098c-4.375-6.832-8.906-13.59-15.275-18.773c-1.24-1.008-3.223-1.805-4.746-1.639
			c-4.652,0.508-9.275,1.408-13.84,2.461c-0.977,0.225-2.277,1.674-2.379,2.666c-1.193,11.568-2.723,23.143-3.01,34.744
			c-0.148,6.039,1.914,12.146,3.105,18.197c1.934,9.824,4.266,19.582,5.84,29.461c0.746,4.678,0.35,9.584,0.088,14.365
			c-1.129,20.566-2.543,41.117-3.559,61.689c-0.543,10.984-0.559,21.998-0.676,33c-0.104,9.801-0.021,19.604-0.021,30.305
			C222.311,476.982,111.318,402.998,0,328.799c7.484-3.859,14.742-7.563,21.963-11.338c11.879-6.209,23.672-12.588,35.613-18.672
			c16.324-8.318,32.781-16.377,49.102-24.701c1.854-0.945,3.74-2.592,4.701-4.398c6.242-11.729,13.742-22.549,22.34-32.664
			c2.109-2.482,3.721-5.456,5.221-8.378c4.734-9.215,11.75-16.699,18.207-24.625c3.357-4.121,6.512-8.424,9.533-12.799
			c8.801-12.742,19.674-23.531,31.355-33.557c10.451-8.973,20.488-18.271,29.215-29.049c8.512-10.516,17.881-20.336,26.869-30.468
			c5.168-5.827,10.686-11.391,15.352-17.597c2.947-3.922,4.719-8.76,6.826-13.276c2.748-5.884,5.752-11.705,7.805-17.836
			c1.666-4.977,2.389-10.334,3.002-15.585c1.141-9.75,1.902-19.544,2.801-29.321c0.279-3.028,1.232-3.479,3.826-1.699
			c15.172,10.415,26.1,24.055,31.488,41.814c3.09,10.188,5.99,20.434,8.984,30.653c0.105,0.363,0.277,0.707,0.514,1.301
			c0.51-0.371,0.957-0.525,1.1-0.824c5.619-11.826,11.096-23.719,16.836-35.484c5.527-11.331,9.658-22.953,9.094-35.805
			c-0.057-1.27-0.008-2.544-0.008-4.492c1.531,0.529,2.814,0.676,3.723,1.337c4.301,3.133,8.572,6.316,12.682,9.692
			c1.033,0.847,1.889,2.425,2.031,3.752c0.818,7.618,1.383,15.264,2.07,22.896c0.135,1.482,0.268,2.999,0.688,4.415
			c2.893,9.752-1.191,18.958-2.035,28.421c-0.621,6.982-1.676,14.325-0.201,20.992c1.646,7.441,6.211,13.93,12.58,19.035
			c8.479,6.795,16.59,14.083,24.488,21.553c4.219,3.99,7.533,8.924,11.52,13.186c1.408,1.51,3.469,2.844,5.453,3.299
			c5.395,1.238,10.996,1.625,16.35,2.99c5.33,1.359,10.465,3.275,14.508,7.551c2.361,2.496,5.594,4.17,8.441,6.203
			c6.725,4.801,12.055,10.566,14.508,18.781c1.301,4.363,3.508,8.453,5.26,12.684c0.336,0.813,0.463,1.713,0.686,2.57
			c-0.322,0.287-0.645,0.576-0.967,0.863c-4.09-3.258-8.182-6.516-12.488-9.943c1.016,5.172,2.027,10.326,3.039,15.48
			c-0.414,0.209-0.826,0.418-1.24,0.627c-2.029-2.541-4.676-4.807-5.971-7.68c-3.693-8.18-11.006-9.102-18.428-10.113
			c-0.498-0.166-0.996-0.332-1.494-0.5C457.166,188.472,457.395,188.853,457.621,189.234z M483.797,186.33
			c0.166,0.182,0.334,0.363,0.5,0.545c0.006-0.301,0.012-0.604,0.018-0.904c-3.053-10.213-10.787-16.113-19.432-21.223
			c-1.242-0.734-2.168-1.99-3.271-2.971c-1.008-0.896-1.951-1.936-3.105-2.588c-7.314-4.123-15.537-5.141-23.619-6.227
			c-4.906-0.66-8.141-2.82-10.9-6.705c-1.996-2.809-4.721-5.096-7.057-7.672c-2.051-2.26-3.809-4.828-6.055-6.861
			c-6.537-5.918-13.596-11.295-19.781-17.547c-4.242-4.287-8.908-5.63-14.488-5.36c0.064-0.135,0.129-0.269,0.193-0.403
			c-0.131-0.028-0.262-0.057-0.393-0.085c0.092,0.149,0.182,0.298,0.273,0.448c6.744,7.461,14.512,13.641,23.068,18.928
			c3.027,1.873,5.906,4.223,8.271,6.875c3.17,3.555,5.512,7.854,8.701,11.391c3.041,3.373,3.332,6.367,1.092,10.252
			c-1.084,1.883-2.072,4.848-1.336,6.561c2.393,5.561,4.328,11.508,10.291,14.889c4.035,2.289,7.387,5.748,11.283,8.322
			c5.361,3.539,9.559,9.244,16.82,9.389c0.396,0.131,0.793,0.262,1.188,0.393c-0.178-0.291-0.355-0.58-0.533-0.871
			c-4.721-6.92-7.119-14.117-2.699-22.342c0.893,0.254,1.732,0.385,2.48,0.721c5.924,2.656,12.203,4.77,17.609,8.24
			C476.422,183.771,479.861,185.412,483.797,186.33z M269.691,88.013c-7.738,8.616-15.5,17.213-23.211,25.854
			c-8.078,9.053-16.129,18.129-24.135,27.246c-1.254,1.43-2.449,3.012-3.252,4.719c-3.65,7.783-6.871,15.598-8.639,24.209
			c-1.979,9.627-2.979,18.693,0.781,28.059c1.891,4.711,3.551,9.742,4.023,14.75c1.174,12.402-0.031,24.679-4.49,36.448
			c-0.5,1.32-1.494,2.596-2.578,3.521c-2.424,2.07-5.156,3.777-7.555,5.873c-2.043,1.787-3.807,1.701-6.043,0.375
			c-4.154-2.467-8.455-4.689-12.838-7.094c-3.023,5.742-5.865,11.133-8.875,16.848c2.814-0.271,5.092-0.506,7.373-0.709
			c5.945-0.525,11.984-0.563,17.816-1.68c6.752-1.295,10.947,3.125,15.961,5.854c0.311,0.17,0.65,0.756,0.59,1.074
			c-0.818,4.267,0.1,9.119-3.98,12.324c-2.258,1.773-4.34,3.904-6.852,5.189c-4.879,2.502-9.992,4.551-15.031,6.734
			c-10.322,4.473-21.379,7.283-30.824,13.75c-3.688,2.523-7.6,4.725-11.236,7.316c-8.539,6.088-16.975,12.322-25.922,18.84
			c1.674,1.289,2.477,1.945,3.316,2.549c8.393,6.025,16.791,12.043,25.189,18.059c12.813,9.176,25.631,18.342,38.434,27.529
			c1.516,1.09,2.865,1.438,4.639,0.322c3.91-2.461,4.363-2.35,5.229,2.33c0.734,3.98,2.783,6.535,6.074,8.787
			c9.57,6.551,18.926,13.414,28.367,20.154c11.393,8.129,22.785,16.258,34.297,24.471c0.377-4.145,0.906-8.117,1.029-12.104
			c0.059-1.936-0.225-4.098-1.061-5.811c-5.854-11.982-11.918-23.859-17.836-35.809c-0.738-1.49-1.334-3.186-1.455-4.824
			c-0.525-7.113-0.799-14.244-1.264-21.363c-0.346-5.295-1.18-10.58-1.174-15.869c0.006-5.139-1.277-10.461,1.455-15.4
			c2.936-5.309,5.791-10.66,8.596-16.039c1.129-2.164,2.186-2.512,4.088-0.713c10.973,10.377,22.021,20.676,33.49,31.418
			c-1.326-5.828-2.295-11.031-3.74-16.098c-0.969-3.4-2.115-6.945-4.07-9.822c-2.736-4.025-6.291-7.496-9.512-11.189
			c-2.58-2.961-4.834-5.887-5.543-10.094c-1.68-9.953-4.143-19.773-5.906-29.712c-1.844-10.389-3.393-20.836-4.783-31.297
			c-1.02-7.663-1.592-15.384-2.311-23.083c-0.068-0.73,0.229-1.494,0.357-2.24c0.605,0.559,1.572,1.018,1.758,1.693
			c0.949,3.459,1.574,7.008,2.549,10.459c0.975,3.449,0.611,7.426,4.113,9.935c2.924,2.094,5.6,4.527,8.439,6.742
			c8.789,6.852,17.604,13.668,26.465,20.541c-0.541-5.127-1.543-9.951-1.438-14.75c0.158-7.191,0.938-14.384,1.754-21.542
			c0.504-4.428,1.475-8.813,2.469-13.166c0.137-0.598,1.939-1.492,2.428-1.23c6.76,3.596,14.826,5.164,19.361,12.285
			c1.793,2.818,4.787,5.336,5.385,8.355c1.354,6.841,1.268,13.952,2.326,20.868c0.813,5.322,3.145,10.178,7.285,13.885
			c2.379,2.131,4.98,4.016,7.299,6.205c1.76,1.662,3.742,3.391,4.736,5.507c4.256,9.063,7.967,18.389,9.641,28.307
			c1.201,7.125,7.316,9.93,11.557,15.393c0.264-1.799,0.463-2.629,0.496-3.467c0.256-6.283,0.371-12.574,0.746-18.85
			c0.254-4.234,0.061-8.74,1.475-12.609c2.984-8.16,6.105-16.386,11.936-23.146c1.303-1.512,2.449-3.156,3.799-4.908
			c-2.375-1.807-4.467-3.623-6.779-5.086c-1.906-1.207-2.77-2.639-2.922-4.91c-0.547-8.098-2.826-15.731-6.736-23.22
			c-2.041,1.475-4.119,2.76-5.918,4.357c-0.98,0.871-1.865,2.188-2.15,3.448c-1.756,7.779-3.277,15.611-5.016,23.395
			c-0.293,1.313-1.262,2.477-1.916,3.711c-0.328-0.115-0.656-0.23-0.984-0.346c-0.432-2.805-0.975-5.6-1.27-8.42
			c-0.813-7.758-3.672-15.225-2.313-23.323c0.973-5.795,1.236-11.453,5.545-16.205c3.479-3.836,6.008-8.514,9.242-12.594
			c2.43-3.066,3.129-6.334,2.518-10.334c-3.91,1.863-7.717,3.68-11.525,5.49c-1.555,0.738-3.238,1.264-4.027-0.828
			c-1.572-4.16-3.404-8.287-0.49-12.775c1.369-2.107,2.334-4.602,2.928-7.055c0.598-2.469,1.57-5.742,0.496-7.535
			c-2.168-3.619-5.611-6.473-8.615-9.736c0,3.352,0.523,6.607-0.139,9.6c-0.74,3.342-2.125,6.754-4.107,9.502
			c-0.834,1.158-3.916,0.693-5.973,0.98c-1.16,0.16-2.328,0.555-3.473,0.486c-3.162-0.189-6.682,1.381-9.285-1.82
			c-1.34-1.646-2.889-3.127-4.172-4.811c-1.697-2.223-3.424-2.133-5.818-0.971c-8.133,3.943-16.33,7.77-24.635,11.33
			c-1.43,0.613-3.904,0.289-5.223-0.6c-5.188-3.504-10.113-7.396-15.121-11.16c-2.545-1.912-5.68-3.414-7.461-5.885
			c-3.404-4.719-6.117-9.953-8.916-15.082c-0.65-1.193-0.969-2.957-0.621-4.234c1.25-4.6,2.85-9.104,4.318-13.643
			c0.004-0.229,0.008-0.455,0.01-0.682c0.008-0.195,0.059-0.379,0.152-0.551c0.195-0.639,0.391-1.275,0.586-1.912
			c0.09-0.207,0.182-0.412,0.271-0.619c0.123-0.435,0.246-0.869,0.369-1.306c0.09-0.206,0.18-0.413,0.27-0.62
			c0.123-0.649,0.246-1.299,0.369-1.947c0.088-0.205,0.176-0.41,0.264-0.614c0.127-0.435,0.254-0.87,0.381-1.304
			c0.09-0.185,0.17-0.372,0.244-0.563c0.346-1.096,0.691-2.191,1.037-3.287c0.088-0.206,0.176-0.413,0.264-0.619
			c0.125-0.65,0.25-1.299,0.375-1.947c0.133-0.424,0.266-0.848,0.398-1.27c0.08-0.213,0.162-0.428,0.242-0.641
			c0.084-0.402,0.168-0.805,0.254-1.207c0.154-0.912,0.309-1.824,0.463-2.736c0.072-0.388,0.145-0.775,0.217-1.164
			c0.107-0.682,0.213-1.362,0.318-2.043c0.072-0.395,0.146-0.787,0.221-1.18c0.135-0.877,0.271-1.755,0.408-2.632
			c0.057-0.194,0.105-0.392,0.145-0.59c0.594-3.647,1.188-7.297,1.781-10.945c0.215-0.563,0.43-1.128,0.645-1.688
			c-0.084-0.113-0.168-0.227-0.252-0.34C269.986,87.667,269.838,87.84,269.691,88.013z M329.646,543.182
			c0-1.686-0.012-2.742,0.002-3.801c0.16-12.039-0.098-24.105,0.662-36.107c0.391-6.146-0.824-10.432-6.6-13.031
			c-1.43-0.643-2.645-1.771-3.941-2.699c-31.4-22.43-62.807-44.85-94.193-67.299c-17.035-12.186-34.018-24.445-51.051-36.635
			c-36.953-26.447-73.932-52.859-110.863-79.34c-1.918-1.377-3.393-1.387-5.471-0.295c-7.049,3.703-14.254,7.107-21.344,10.73
			c-9.248,4.727-18.445,9.551-28.117,14.568C115.816,400.654,222.404,471.701,329.646,543.182z M374.074,454.361
			c0.189-0.059,0.377-0.117,0.566-0.176c0-1.359-0.004-2.719,0-4.078c0.021-12.605-0.271-25.223,0.148-37.814
			c0.459-13.719,1.797-27.408,2.344-41.127c0.424-10.65,3.564-20.719,5.822-30.975c0.537-2.447,2.447-4.428,5.857-5.723
			c-0.889,6.752-1.596,12.723-2.48,18.666c-1.018,6.828-2.779,13.623-1.068,20.561c1.076,4.365,1.115,8.609-0.568,12.82
			c-0.367,0.92-0.66,1.871-0.986,2.807c0.289,0.141,0.58,0.283,0.869,0.424c1.266-1.863,2.418-3.818,3.818-5.576
			c4.139-5.197,6.189-10.836,5.617-17.688c-0.463-5.553-0.859-11.275,1.801-16.652c1.703-3.439,2.943-7.107,4.393-10.672
			c0.432,0.045,0.865,0.09,1.297,0.135c0.367,1.434,0.963,2.854,1.064,4.307c0.793,11.203-0.756,22.064-4.361,32.738
			c-2.141,6.33-3.91,12.85-5.105,19.42c-1.402,7.717-1.873,15.6-2.988,23.377c-0.965,6.744-2.682,13.404-3.303,20.172
			c-0.688,7.477-0.664,15.033-0.615,22.555c0.016,2.443,1.082,4.881,1.67,7.322c1.314-3.262,1.867-6.363,2.527-9.443
			c4.721-22.082,9.568-44.137,14.162-66.246c2.83-13.623,7.037-26.785,12.32-39.621c0.385-0.932,1.342-1.955,2.24-2.215
			c0.506-0.146,1.703,1.045,2.135,1.869c1.877,3.59,3.734,7.205,5.291,10.939c0.654,1.574,1.029,3.561,0.713,5.201
			c-1.949,10.041-4.191,20.025-6.227,30.051c-3.113,15.348-5.838,30.754-5.58,46.504c0.111,6.82,0.379,13.639,0.623,20.457
			c0.033,0.895,0.359,1.779,0.738,3.557c0.85-4.166,1.635-7.307,2.111-10.492c1.605-10.74,2.861-21.535,4.697-32.234
			c2.697-15.732,5.463-31.467,8.809-47.068c2.299-10.715,5.604-21.213,8.547-31.783c0.23-0.83,1.16-1.465,1.766-2.189
			c0.297,0.93,0.723,1.84,0.859,2.791c0.18,1.26,0.084,2.557,0.189,3.832c0.793,9.541,1.52,19.088,2.443,28.615
			c0.592,6.107,1.484,12.186,2.242,18.277c1.883-8.563,2.959-17.135,4.791-25.543c1.857-8.523,4.725-16.824,6.646-25.336
			c1.4-6.188,5.924-9.57,10.25-13.271c0.574-0.492,1.475-0.602,2.824-1.119c0.531,3.512,1.109,6.602,1.445,9.719
			c0.752,6.945,1.217,13.85,6.359,19.48c3,3.285,5.295,7.217,8.371,11.506c-1.236-7.211-2.215-13.602-3.449-19.945
			c-1.672-8.598-4.453-16.666-11.871-22.225c-0.758-0.566-1.533-1.656-2.264-1.627c-5.488,0.215-11.234-1.955-16.354,2.092
			c-1.666,1.316-4.098,2.332-6.18,2.33c-5.902-0.008-8.959,3.557-11.57,8.018c-0.322,0.553-0.691,1.078-1.045,1.611
			c-1.018,1.537-2.184,1.961-4.055,1.18c-4.125-1.723-8.33-3.264-12.564-4.705c-2.014-0.684-2.689-1.887-3.031-3.928
			c-0.873-5.215-2.084-10.371-3.227-15.865c-4.15,1.258-7.922,2.357-11.664,3.553c-2.428,0.773-3.863,0.082-4.529-2.451
			c-0.703-2.68-1.734-5.275-2.391-7.963c-1.086-4.434-2.596-8.885-2.807-13.381c-0.246-5.26,0.475-10.609,1.242-15.852
			c0.352-2.406,1.482-4.869,2.846-6.914c2.297-3.445,5.313-6.414,7.553-9.89c2.047-3.174,4.887-3.701,8.191-3.881
			c4.043-0.219,8.115-0.396,12.098-1.061c3.158-0.527,5.328,0.385,7.26,2.773c2.408,2.979,4.867,5.936,7.533,8.682
			c1.992,2.052,1.658,3.449-0.584,4.802c-3.646,2.201-7.318,4.359-10.912,6.641c-0.719,0.455-1.547,1.334-1.635,2.096
			c-0.752,6.5-1.346,13.02-2.047,20.141c1.43-2.291,2.543-4.184,3.76-6.006c4.818-7.201,8.789-14.959,16.469-19.998
			c3.658-2.402,6.264-6.406,9.332-9.669c-2.521,0.295-5.174,0.936-7.785,0.801c-1.945-0.102-4.246-0.734-5.676-1.961
			c-3.635-3.125-6.807-6.781-10.281-10.104c-3.766-3.598-7.57-7.309-12.93-8.32c-1.686-0.316-3.971-0.172-5.287,0.752
			c-5.666,3.973-11.141,8.232-16.537,12.572c-1.598,1.285-3.285,2.977-3.934,4.828c-1.756,5.015-3.553,10.14-4.254,15.367
			c-0.816,6.088-0.369,12.336-0.715,18.5c-0.145,2.607-0.533,5.326-1.465,7.744c-2.369,6.154-5.236,12.117-7.658,18.254
			c-1.902,4.82-5.023,9.439-3.063,15.127c0.346,1.008-0.045,2.322-0.256,3.463c-1.258,6.777-2.986,13.498-3.738,20.326
			c-0.822,7.469-0.957,15.033-1,22.559c-0.023,4.01,0.967,8.014,1.178,12.037c0.521,9.986-0.914,20.027,1.238,29.988
			C372.416,441.99,373.105,448.205,374.074,454.361z M367.84,91.695c3.254,2.574,7.383,5.84,12.184,9.638
			c-1.369-2.757-3.182-4.771-3.26-6.851c-0.309-8.275-0.449-16.596,0.074-24.853c0.434-6.866,2.738-13.676,2.672-20.497
			c-0.09-9.417-2.061-18.804-2.408-28.235c-0.256-6.894-5.639-8.746-9.598-12.583c0.848,6.231,1.656,11.986,2.404,17.75
			c0.629,4.847,2.287,9.878,1.547,14.518c-1.484,9.292-4.168,18.405-6.604,27.525c-1.779,6.656-4.064,13.174-5.912,19.813
			c-1.008,3.624-1.57,7.372-2.482,11.78C360.197,97.07,363.508,94.742,367.84,91.695z M529.596,312.965
			c0.297-0.043,6.711,19.549,7.008,19.506c-1.572-4.914-8.783-29.686-10.932-34.334c-4.734-10.248-9.85-20.332-15.172-30.291
			c-1.188-2.221-3.633-4.055-5.904-5.357c-6.064-3.475-12.609-6.158-18.465-9.93c-5.043-3.248-9.941-7.078-13.926-11.525
			c-5.369-5.992-9.891-12.759-14.604-19.317c-3.021-4.205-5.707-8.652-8.613-12.943c-0.713-1.055-1.705-1.922-2.568-2.877
			c-0.055,4.361,0.779,8.324,0.924,12.313c0.098,2.691,1.127,4.506,3.141,5.889c6.713,4.607,11.275,11.028,15.967,17.544
			c3.598,4.996,4.012,9.332,2.021,14.979c-2.793,7.92-3.004,6.428,4.697,9.172c4.574,1.629,8.543,1.672,12.795-0.705
			c1.656-0.926,4.025-1.572,5.783-1.15c8.939,2.141,15.918,7.553,20.377,15.335C518.404,290.242,523.814,301.711,529.596,312.965z
			 M324.67,93.632c-0.508-1.209-0.734-1.656-0.887-2.127c-1.826-5.64-4.984-11.008-4.225-17.213
			c0.641-5.225-1.115-9.345-4.795-12.873c-0.684-0.654-1.182-1.498-1.777-2.246c-2.336-2.932-4.676-5.86-7.193-9.015
			c-0.186,2.01-0.314,3.55-0.471,5.087c-0.723,7.158-2.205,14.222,0.193,21.469c2.434,7.36,2.25,14.938-0.713,22.204
			c-2.318,5.688-5.152,11.198-5.313,17.511c-0.096,3.807-0.018,7.617-0.018,11.932c1.127-1.07,1.629-1.874,2.342-2.172
			c4.869-2.039,6.875-5.918,7.336-10.907c0.096-1.044,0.578-2.05,0.701-3.095c0.283-2.418,1.814-2.643,3.686-2.148
			c1.893,0.5,3.746,1.145,5.914,1.817c-4.711-7.76-3.152-16.103-4.678-24.386C319.471,87.785,321.162,91.368,324.67,93.632z
			 M500.84,288.225c6.898-3.578,7.146-8.801,1.123-12.759c-2.389-1.57-4.762-3.18-7.045-4.9c-2.426-1.83-4.713-2.418-7.551-0.645
			c-2.141,1.338-4.619,2.156-6.986,3.113c-6.6,2.664-10.291,9.15-9.148,16.111c0.256,1.557,0.578,3.131,0.576,4.697
			c-0.006,3.459,1.145,5.891,4.734,6.977c1.91,0.58,3.645,1.74,5.465,2.625c4.283,2.082,5.299,1.916,9.033-1.51
			c-1.307-1.09-2.566-2.225-3.91-3.246c-4.941-3.756-4.641-10.305,0.66-13.598c2.074-1.289,4.295-2.383,6.217-3.871
			c1.887-1.459,2.805-0.775,3.682,0.975C498.68,284.164,499.729,286.104,500.84,288.225z M69.086,300.699
			c4.699,3.344,9.27,6.467,13.68,9.803c1.643,1.242,2.541,0.699,3.75-0.48c2.668-2.602,5.627-4.926,8.119-7.68
			c1.951-2.156,3.572-4.68,4.977-7.24c1.301-2.371,2.117-5.008,3.359-8.045C91.652,291.844,79.434,293.191,69.086,300.699z
			 M393.641,195.634c-0.447,1.123-1.313,2.262-1.268,3.363c0.186,4.635,2.768,7.732,6.953,9.477
			c1.473,0.615,4.174,1.598,4.453,1.178c1.096-1.652,1.877-3.777,1.971-5.764c0.115-2.4-0.607-4.836-0.928-7.264
			c-0.299-2.258-1.406-3.16-4.068-2.27c0,2.957,0,5.951,0,9.098C396.611,202.259,395.67,199.013,393.641,195.634z M385.049,196.099
			c-2.037,2.699-3.617,4.641-4.979,6.729c-0.283,0.434,0.027,1.82,0.457,2.055c2.318,1.277,4.762,2.332,7.51,3.625
			C386.996,204.189,386.131,200.595,385.049,196.099z"/>
	</g>
	<g>
		<path fill-rule="evenodd" clip-rule="evenodd" fill="#FFFFFF" d="M166.33,425.486c-4.469-3.02-8.596-5.809-12.971-8.764
			c1.313-2.928,2.588-5.77,3.863-8.611c0.265-0.033,0.529-0.066,0.795-0.1c0.653,2.068,0.848,4.482,2.081,6.111
			c1.409,1.859,3.743,3.02,5.646,4.461c2.488-1.457,0.984-2.709,0.211-4.002c-4.418-7.387-2.039-15.59,5.571-18.15
			c2.396-0.807,5.272-0.801,7.821-0.43c8.699,1.27,15.956,9.271,15.834,17.055c-0.119,7.57-6.331,12.646-13.777,11.256
			c-3.382-0.631-3.382-0.631-5.045,1.328c1.883,1.211,3.627,2.689,5.639,3.508c1.408,0.572,3.182,0.258,4.792,0.311
			c0.95,0.031,1.901,0.006,2.853,0.006c0.045,0.279,0.09,0.561,0.135,0.842c-2.188,2.029-4.377,4.061-6.929,6.428
			c-3.953-2.689-8.206-5.584-12.85-8.744c2.096-2.566,4.081-5.129,6.245-7.529c0.386-0.428,1.51-0.227,2.295-0.252
			c4.166-0.131,7.014-2.375,8.834-5.881c1.801-3.469,3.053-7.068,0.326-10.783c-2.576-3.508-6.838-4.631-10.714-2.691
			c-5.507,2.754-7.897,8.576-6.012,14.41c0.226,0.697,0.188,1.689-0.146,2.324C169.457,420.197,167.924,422.723,166.33,425.486z"/>
		<path fill-rule="evenodd" clip-rule="evenodd" fill="#FFFFFF" d="M150.943,414.889c-10.203-6.982-19.648-13.447-29.35-20.088
			c0.667-0.604,1.178-1.258,1.846-1.641c9.025-5.164,18.053-10.326,27.138-15.383c1.067-0.594,2.985-1.188,3.61-0.678
			c0.858,0.701,1.301,2.504,1.158,3.746c-1.084,9.404-2.351,18.787-3.569,28.174C151.551,410.76,151.285,412.494,150.943,414.889z
			 M129.872,393.725c5.372,3.658,10.208,6.953,15.575,10.611c1.139-7.656,2.152-14.473,3.284-22.086
			C142.092,386.289,136.206,389.869,129.872,393.725z"/>
		<path fill-rule="evenodd" clip-rule="evenodd" fill="#FFFFFF" d="M199.51,443.736c0.996,1.164,1.848,1.992,2.477,2.965
			c0.313,0.482,0.218,1.23,0.309,1.857c-0.638-0.008-1.445,0.232-1.886-0.066c-4.211-2.863-8.359-5.818-13.514-9.441
			c1.759-0.184,2.769-0.545,3.635-0.328c1.896,0.471,3.433,0.594,4.691-1.338c4.229-6.49,8.56-12.916,12.894-19.428
			c-1.096-1.072-2.176-1.959-3.021-3.033c-0.338-0.426-0.16-1.262-0.217-1.91c0.555,0.008,1.262-0.203,1.641,0.059
			c7.087,4.889,14.129,9.84,21.197,14.756c1.543,1.074,1.764,2.188,0.527,3.697c-1.137,1.385-2.092,2.918-3.777,5.307
			c-0.417-1.703-1.027-2.723-0.789-3.473c1.155-3.641-0.586-5.846-3.385-7.666c-1.945-1.266-3.875-2.555-6.016-3.967
			C209.289,429.16,204.445,436.379,199.51,443.736z"/>
	</g>
</g>
</svg>
