<?xml version="1.0" encoding="utf-8"?>
<!-- Generator: Adobe Illustrator 16.0.0, SVG Export Plug-In . SVG Version: 6.00 Build 0)  -->
<!DOCTYPE svg PUBLIC "-//W3C//DTD SVG 1.1//EN" "http://www.w3.org/Graphics/SVG/1.1/DTD/svg11.dtd">
<svg version="1.1" id="Layer_1" xmlns="http://www.w3.org/2000/svg" xmlns:xlink="http://www.w3.org/1999/xlink" x="0px" y="0px"
	 width="541.012px" height="551.474px" viewBox="0 0 541.012 551.474" enable-background="new 0 0 541.012 551.474"
	 xml:space="preserve">
<path fill-rule="evenodd" clip-rule="evenodd" fill="#FFFFFF" d="M458.277,188.514c7.423,1.012,14.734,1.932,18.428,10.113
	c1.296,2.873,3.942,5.138,5.972,7.681c0.413-0.209,0.826-0.419,1.24-0.628c-1.012-5.154-2.023-10.309-3.039-15.48
	c4.307,3.428,8.397,6.686,12.488,9.943c0.322-0.288,0.645-0.575,0.967-0.862c-0.223-0.859-0.35-1.758-0.686-2.57
	c-1.753-4.231-3.959-8.321-5.261-12.684c-2.452-8.215-7.782-13.982-14.507-18.782c-2.848-2.033-6.08-3.707-8.441-6.203
	c-4.043-4.275-9.179-6.192-14.508-7.551c-5.354-1.365-10.955-1.751-16.351-2.989c-1.983-0.456-4.044-1.79-5.453-3.299
	c-3.985-4.263-7.3-9.195-11.52-13.186c-7.898-7.469-16.01-14.757-24.487-21.552c-6.369-5.105-10.935-11.593-12.581-19.036
	c-1.475-6.667-0.419-14.009,0.202-20.992c0.843-9.463,4.927-18.668,2.034-28.42c-0.419-1.416-0.553-2.933-0.687-4.415
	c-0.688-7.632-1.253-15.278-2.071-22.896c-0.143-1.327-0.998-2.905-2.03-3.752c-4.109-3.376-8.382-6.56-12.683-9.692
	c-0.908-0.661-2.191-0.808-3.723-1.337c0,1.948-0.048,3.223,0.008,4.492c0.565,12.852-3.566,24.474-9.094,35.805
	c-5.739,11.765-11.217,23.658-16.835,35.483c-0.143,0.3-0.591,0.454-1.101,0.824c-0.236-0.593-0.407-0.937-0.514-1.3
	c-2.993-10.218-5.894-20.464-8.984-30.653c-5.389-17.759-16.315-31.399-31.487-41.814c-2.594-1.781-3.547-1.33-3.826,1.699
	c-0.899,9.777-1.661,19.571-2.801,29.321c-0.613,5.251-1.337,10.608-3.003,15.585c-2.053,6.131-5.057,11.953-7.804,17.836
	c-2.108,4.516-3.879,9.354-6.827,13.277c-4.665,6.206-10.184,11.77-15.352,17.596c-8.987,10.131-18.356,19.952-26.869,30.467
	c-8.725,10.778-18.763,20.077-29.214,29.048c-11.682,10.027-22.555,20.815-31.354,33.557c-3.022,4.376-6.176,8.679-9.534,12.8
	c-6.458,7.926-13.473,15.411-18.207,24.625c-1.501,2.922-3.111,5.896-5.221,8.378c-8.599,10.116-16.098,20.936-22.34,32.665
	c-0.961,1.806-2.847,3.452-4.7,4.397C90.2,282.333,73.744,290.392,57.42,298.71c-11.942,6.085-23.735,12.463-35.614,18.673
	c-7.22,3.774-14.479,7.478-21.962,11.337c111.318,74.2,222.312,148.185,334.183,222.754c0-10.7-0.083-20.503,0.021-30.305
	c0.117-11.002,0.133-22.015,0.675-32.999c1.016-20.572,2.431-41.124,3.559-61.69c0.262-4.781,0.658-9.688-0.087-14.364
	c-1.574-9.879-3.906-19.637-5.84-29.461c-1.191-6.052-3.255-12.159-3.105-18.197c0.287-11.602,1.815-23.177,3.009-34.745
	c0.103-0.992,1.402-2.44,2.379-2.666c4.564-1.052,9.188-1.952,13.841-2.46c1.523-0.167,3.505,0.63,4.745,1.639
	c6.369,5.183,10.901,11.941,15.275,18.772c0.709,1.106,1.04,2.804,0.812,4.099c-0.754,4.281-2.071,8.467-2.748,12.756
	c-0.829,5.26-1.463,10.574-1.754,15.889c-0.323,5.937-0.34,11.904-0.177,17.85c0.218,7.98,1.325,15.98,0.969,23.924
	c-0.417,9.284,1.034,18.273,2.771,27.22c1.826,9.412,4.451,18.669,6.776,27.981c0.302,1.208,0.898,2.342,1.357,3.511
	c0.41-0.012,0.82-0.023,1.23-0.035c0.923-4.192,1.845-8.384,2.918-13.259c0.683,1.207,1.059,1.708,1.271,2.271
	c2.172,5.763,4.286,11.546,6.492,17.295c0.587,1.53,1.431,2.963,2.157,4.441c1.142-1.139,2.451-2.155,3.391-3.441
	c1.754-2.405,3.545-4.843,4.864-7.493c2.099-4.219,5.932-5.3,10.126-6.542c0,4.341-0.006,8.391,0.002,12.439
	c0.008,3.822,0.341,4.097,4.019,3.524c3.268-0.508,6.526-1.164,9.815-1.418c3.396-0.262,5.673-1.668,7.275-4.738
	c3.435-6.583,6.773-13.305,13.864-16.945c1.026-0.527,1.862-1.414,2.824-2.078c8.111-5.593,4.876-5.46,12.918-0.51
	c0.816,0.502,1.646,0.996,2.393,1.592c1.467,1.172,2.669,0.935,3.879-0.427c4.603-5.178,9.391-10.227,10.347-17.561
	c0.136-1.047,0.509-2.067,0.814-3.087c2.569-8.553,2.58-8.615,11.339-7.53c6.989,0.865,6.185,1.769,7.086-5.703
	c0.463-3.84,0.909-7.681,1.363-11.522c3.586,9.006,8.724,16.773,14.129,25.494c0.93-1.901,1.535-2.68,1.7-3.543
	c2.75-14.307,7.02-28.393,5.794-43.258c-0.71-8.611,0.668-17.154,3.147-25.297c3.346-10.993,4.506-22.079,4.007-33.451
	c-0.036-0.827,0.1-1.661,0.156-2.492c0.343-0.029,0.686-0.06,1.028-0.089c2.353,9.119,4.679,18.244,7.088,27.349
	c0.337,1.275,1.076,2.443,1.891,4.239c0.763-1.287,1.073-1.709,1.28-2.177c5.792-13.134,4.141-26.937,1.394-40.007
	c-4.422-21.04-13.879-40.409-24.193-59.25c-1.7-3.106-4.128-5.179-7.396-6.69c-5.97-2.762-12.032-5.511-17.508-9.102
	c-5.459-3.581-11.194-6.981-15.145-12.583c-4.481-6.354-9.073-12.672-14.121-18.575c-4.553-5.322-8.427-10.598-6.755-18.43
	c4.095,7.546,12.48,8.964,18.257,14.131c0.383-0.353,0.765-0.704,1.147-1.056c-5.109-7.853-10.22-15.704-15.329-23.556
	C457.735,188.942,458.006,188.729,458.277,188.514z"/>
<g>
	<path fill-rule="evenodd" clip-rule="evenodd" fill="#146705" d="M457.622,189.234c5.109,7.852,10.219,15.703,15.328,23.556
		c-0.383,0.353-0.764,0.704-1.146,1.056c-5.777-5.166-14.162-6.584-18.258-14.13c-1.672,7.832,2.203,13.107,6.756,18.43
		c5.047,5.903,9.639,12.22,14.121,18.575c3.949,5.602,9.686,9.002,15.145,12.582c5.475,3.591,11.537,6.34,17.508,9.102
		c3.268,1.512,5.695,3.585,7.395,6.691c10.314,18.841,19.771,38.21,24.193,59.25c2.748,13.07,4.398,26.873-1.393,40.008
		c-0.207,0.467-0.518,0.889-1.281,2.176c-0.814-1.795-1.553-2.963-1.891-4.238c-2.408-9.105-4.734-18.23-7.088-27.35
		c-0.342,0.029-0.686,0.061-1.027,0.09c-0.057,0.83-0.193,1.664-0.156,2.492c0.498,11.371-0.662,22.457-4.008,33.451
		c-2.479,8.143-3.857,16.686-3.146,25.297c1.225,14.865-3.045,28.951-5.795,43.258c-0.164,0.863-0.77,1.641-1.699,3.543
		c-5.406-8.721-10.543-16.488-14.129-25.494c-0.455,3.842-0.9,7.682-1.363,11.521c-0.902,7.473-0.098,6.568-7.086,5.703
		c-8.76-1.084-8.77-1.021-11.34,7.531c-0.305,1.02-0.678,2.039-0.814,3.086c-0.955,7.334-5.744,12.383-10.346,17.561
		c-1.211,1.361-2.412,1.6-3.879,0.428c-0.746-0.596-1.576-1.09-2.393-1.592c-8.043-4.951-4.807-5.084-12.918,0.51
		c-0.963,0.664-1.799,1.551-2.824,2.078c-7.092,3.641-10.43,10.361-13.865,16.945c-1.602,3.07-3.879,4.477-7.275,4.738
		c-3.289,0.254-6.547,0.91-9.814,1.418c-3.678,0.572-4.012,0.297-4.02-3.525c-0.008-4.049-0.002-8.098-0.002-12.439
		c-4.193,1.242-8.027,2.324-10.125,6.543c-1.32,2.65-3.111,5.088-4.865,7.492c-0.939,1.287-2.248,2.303-3.391,3.441
		c-0.727-1.479-1.57-2.91-2.156-4.441c-2.207-5.748-4.32-11.531-6.492-17.295c-0.213-0.563-0.59-1.064-1.271-2.271
		c-1.074,4.875-1.996,9.066-2.918,13.26c-0.41,0.012-0.82,0.023-1.23,0.035c-0.459-1.17-1.057-2.303-1.357-3.512
		c-2.326-9.313-4.951-18.568-6.777-27.98c-1.736-8.947-3.188-17.936-2.77-27.221c0.355-7.943-0.752-15.943-0.969-23.924
		c-0.164-5.945-0.146-11.912,0.176-17.85c0.291-5.314,0.926-10.629,1.754-15.889c0.678-4.289,1.994-8.475,2.748-12.756
		c0.229-1.295-0.102-2.992-0.811-4.098c-4.375-6.832-8.906-13.59-15.275-18.773c-1.24-1.008-3.223-1.805-4.746-1.639
		c-4.652,0.508-9.275,1.408-13.84,2.461c-0.977,0.225-2.277,1.674-2.379,2.666c-1.193,11.568-2.723,23.143-3.01,34.744
		c-0.148,6.039,1.914,12.146,3.105,18.197c1.934,9.824,4.266,19.582,5.84,29.461c0.746,4.678,0.35,9.584,0.088,14.365
		c-1.129,20.566-2.543,41.117-3.559,61.689c-0.543,10.984-0.559,21.998-0.676,33c-0.104,9.801-0.021,19.604-0.021,30.305
		C222.312,476.982,111.318,402.998,0,328.798c7.484-3.859,14.742-7.563,21.963-11.338c11.879-6.209,23.672-12.588,35.613-18.672
		c16.324-8.318,32.781-16.377,49.103-24.701c1.853-0.945,3.739-2.592,4.7-4.398c6.242-11.729,13.742-22.548,22.34-32.664
		c2.11-2.482,3.721-5.456,5.221-8.378c4.734-9.214,11.75-16.698,18.207-24.624c3.357-4.121,6.512-8.425,9.534-12.8
		c8.8-12.742,19.673-23.53,31.354-33.557c10.451-8.972,20.489-18.271,29.215-29.049c8.512-10.515,17.882-20.336,26.869-30.467
		c5.168-5.827,10.686-11.391,15.352-17.596c2.947-3.922,4.719-8.761,6.826-13.277c2.748-5.883,5.752-11.705,7.805-17.836
		c1.666-4.977,2.389-10.334,3.002-15.585c1.141-9.75,1.902-19.544,2.801-29.321c0.279-3.028,1.232-3.479,3.826-1.699
		c15.172,10.415,26.1,24.055,31.488,41.814c3.09,10.188,5.99,20.435,8.984,30.653c0.105,0.363,0.277,0.708,0.514,1.3
		c0.51-0.371,0.957-0.524,1.1-0.824c5.619-11.825,11.096-23.718,16.836-35.483c5.527-11.331,9.658-22.953,9.094-35.805
		c-0.057-1.27-0.008-2.544-0.008-4.492c1.531,0.529,2.814,0.676,3.723,1.337c4.301,3.133,8.572,6.316,12.682,9.692
		c1.033,0.847,1.889,2.425,2.031,3.752c0.818,7.618,1.383,15.264,2.07,22.896c0.135,1.482,0.268,2.999,0.688,4.415
		c2.893,9.752-1.191,18.958-2.035,28.42c-0.621,6.983-1.676,14.326-0.201,20.992c1.646,7.442,6.211,13.93,12.58,19.036
		c8.479,6.795,16.59,14.083,24.488,21.552c4.219,3.99,7.533,8.924,11.52,13.186c1.408,1.51,3.469,2.844,5.453,3.299
		c5.395,1.238,10.996,1.625,16.35,2.99c5.33,1.359,10.465,3.275,14.508,7.551c2.361,2.496,5.594,4.17,8.441,6.203
		c6.725,4.801,12.055,10.567,14.508,18.782c1.301,4.362,3.508,8.452,5.26,12.684c0.336,0.813,0.463,1.712,0.686,2.57
		c-0.322,0.287-0.645,0.575-0.967,0.862c-4.09-3.257-8.182-6.515-12.488-9.943c1.016,5.172,2.027,10.327,3.039,15.481
		c-0.414,0.209-0.826,0.418-1.24,0.627c-2.029-2.542-4.676-4.807-5.971-7.681c-3.693-8.18-11.006-9.101-18.428-10.112
		c-0.498-0.167-0.996-0.333-1.494-0.5C457.167,188.472,457.395,188.854,457.622,189.234z M483.797,186.329
		c0.166,0.182,0.334,0.363,0.5,0.545c0.006-0.301,0.012-0.603,0.018-0.903c-3.053-10.214-10.787-16.113-19.432-21.224
		c-1.242-0.734-2.168-1.99-3.271-2.971c-1.008-0.896-1.951-1.936-3.105-2.587c-7.314-4.123-15.537-5.142-23.619-6.228
		c-4.906-0.66-8.141-2.819-10.9-6.704c-1.996-2.81-4.721-5.096-7.057-7.672c-2.051-2.261-3.809-4.829-6.055-6.862
		c-6.537-5.917-13.596-11.295-19.781-17.546c-4.242-4.287-8.908-5.63-14.488-5.361c0.064-0.135,0.129-0.269,0.193-0.403
		c-0.131-0.028-0.262-0.056-0.393-0.085c0.092,0.149,0.182,0.298,0.273,0.448c6.744,7.461,14.512,13.641,23.068,18.928
		c3.027,1.872,5.906,4.222,8.271,6.874c3.17,3.555,5.512,7.854,8.701,11.391c3.041,3.373,3.332,6.367,1.092,10.252
		c-1.084,1.883-2.072,4.848-1.336,6.562c2.393,5.561,4.328,11.508,10.291,14.889c4.035,2.288,7.387,5.748,11.283,8.321
		c5.361,3.539,9.559,9.245,16.82,9.39c0.396,0.131,0.793,0.262,1.188,0.392c-0.178-0.29-0.355-0.58-0.533-0.871
		c-4.721-6.92-7.119-14.117-2.699-22.342c0.893,0.254,1.732,0.386,2.48,0.721c5.924,2.656,12.203,4.77,17.609,8.24
		C476.422,183.771,479.862,185.411,483.797,186.329z M269.692,88.013c-7.738,8.616-15.5,17.213-23.211,25.854
		c-8.078,9.053-16.129,18.128-24.135,27.245c-1.254,1.43-2.449,3.012-3.252,4.72c-3.65,7.782-6.87,15.597-8.639,24.208
		c-1.979,9.627-2.978,18.694,0.781,28.059c1.891,4.712,3.551,9.743,4.024,14.751c1.173,12.402-0.032,24.678-4.49,36.448
		c-0.5,1.319-1.495,2.596-2.579,3.521c-2.423,2.07-5.156,3.777-7.555,5.873c-2.043,1.787-3.807,1.701-6.042,0.376
		c-4.155-2.467-8.455-4.69-12.839-7.095c-3.023,5.742-5.864,11.134-8.874,16.848c2.813-0.271,5.092-0.506,7.372-0.708
		c5.945-0.526,11.984-0.563,17.816-1.681c6.753-1.294,10.947,3.125,15.961,5.854c0.312,0.17,0.65,0.756,0.59,1.074
		c-0.818,4.268,0.1,9.119-3.98,12.324c-2.258,1.773-4.34,3.904-6.851,5.189c-4.88,2.502-9.993,4.551-15.032,6.734
		c-10.322,4.473-21.379,7.283-30.823,13.75c-3.688,2.523-7.601,4.725-11.237,7.316c-8.539,6.088-16.975,12.322-25.922,18.84
		c1.674,1.289,2.477,1.945,3.317,2.549c8.393,6.025,16.79,12.043,25.188,18.059c12.813,9.176,25.631,18.342,38.434,27.529
		c1.517,1.09,2.865,1.438,4.639,0.322c3.91-2.461,4.363-2.35,5.229,2.33c0.734,3.98,2.783,6.535,6.074,8.787
		c9.57,6.551,18.926,13.414,28.368,20.154c11.392,8.129,22.784,16.258,34.296,24.471c0.377-4.145,0.906-8.117,1.029-12.104
		c0.059-1.936-0.225-4.098-1.061-5.811c-5.854-11.982-11.918-23.859-17.836-35.809c-0.738-1.49-1.334-3.186-1.455-4.824
		c-0.525-7.113-0.799-14.244-1.264-21.363c-0.345-5.295-1.18-10.58-1.174-15.869c0.006-5.139-1.277-10.461,1.455-15.4
		c2.936-5.309,5.792-10.66,8.597-16.039c1.128-2.164,2.185-2.512,4.087-0.713c10.973,10.377,22.021,20.676,33.49,31.418
		c-1.326-5.828-2.295-11.031-3.74-16.098c-0.969-3.4-2.115-6.945-4.07-9.822c-2.736-4.025-6.291-7.496-9.512-11.189
		c-2.58-2.961-4.834-5.887-5.543-10.094c-1.68-9.953-4.143-19.772-5.906-29.712c-1.844-10.389-3.393-20.836-4.783-31.297
		c-1.02-7.662-1.592-15.383-2.311-23.082c-0.068-0.73,0.229-1.494,0.357-2.241c0.605,0.56,1.572,1.019,1.758,1.693
		c0.949,3.46,1.574,7.009,2.549,10.46c0.975,3.449,0.611,7.426,4.113,9.934c2.924,2.094,5.6,4.528,8.439,6.743
		c8.789,6.851,17.604,13.667,26.465,20.54c-0.541-5.127-1.543-9.95-1.438-14.75c0.158-7.191,0.938-14.383,1.754-21.541
		c0.504-4.429,1.475-8.813,2.469-13.166c0.137-0.598,1.939-1.492,2.428-1.231c6.76,3.597,14.826,5.165,19.361,12.286
		c1.793,2.817,4.787,5.336,5.385,8.355c1.354,6.84,1.268,13.951,2.326,20.868c0.813,5.321,3.145,10.178,7.285,13.885
		c2.379,2.13,4.98,4.015,7.299,6.204c1.76,1.662,3.742,3.391,4.736,5.508c4.256,9.062,7.967,18.388,9.641,28.306
		c1.201,7.125,7.316,9.93,11.557,15.393c0.264-1.799,0.463-2.629,0.496-3.467c0.256-6.283,0.371-12.574,0.746-18.85
		c0.254-4.234,0.061-8.74,1.475-12.609c2.984-8.159,6.105-16.386,11.936-23.146c1.303-1.511,2.449-3.156,3.799-4.908
		c-2.375-1.807-4.467-3.622-6.779-5.086c-1.906-1.206-2.77-2.639-2.922-4.909c-0.547-8.098-2.826-15.731-6.736-23.22
		c-2.041,1.474-4.119,2.759-5.918,4.357c-0.98,0.87-1.865,2.187-2.15,3.447c-1.756,7.779-3.277,15.611-5.016,23.395
		c-0.293,1.313-1.262,2.478-1.916,3.711c-0.328-0.115-0.656-0.23-0.984-0.346c-0.432-2.805-0.975-5.6-1.27-8.419
		c-0.813-7.759-3.672-15.225-2.313-23.323c0.973-5.795,1.236-11.453,5.545-16.205c3.479-3.836,6.008-8.515,9.242-12.595
		c2.43-3.065,3.129-6.334,2.518-10.333c-3.91,1.863-7.717,3.679-11.525,5.49c-1.555,0.738-3.238,1.263-4.027-0.829
		c-1.572-4.16-3.404-8.286-0.49-12.775c1.369-2.107,2.334-4.602,2.928-7.055c0.598-2.469,1.57-5.741,0.496-7.534
		c-2.168-3.619-5.611-6.474-8.615-9.737c0,3.353,0.523,6.607-0.139,9.601c-0.74,3.341-2.125,6.753-4.107,9.501
		c-0.834,1.158-3.916,0.693-5.973,0.98c-1.16,0.161-2.328,0.555-3.473,0.486c-3.162-0.189-6.682,1.381-9.285-1.819
		c-1.34-1.646-2.889-3.128-4.172-4.811c-1.697-2.223-3.424-2.133-5.818-0.972c-8.133,3.943-16.33,7.77-24.635,11.33
		c-1.43,0.613-3.904,0.29-5.223-0.6c-5.188-3.504-10.113-7.396-15.121-11.16c-2.545-1.912-5.68-3.414-7.461-5.885
		c-3.404-4.719-6.117-9.952-8.916-15.082c-0.65-1.193-0.968-2.956-0.621-4.234c1.25-4.6,2.85-9.103,4.318-13.643
		c0.004-0.228,0.008-0.455,0.01-0.682c0.008-0.195,0.059-0.379,0.152-0.551c0.195-0.638,0.391-1.275,0.586-1.912
		c0.09-0.206,0.182-0.412,0.271-0.618c0.123-0.435,0.246-0.87,0.369-1.306c0.09-0.207,0.18-0.414,0.27-0.62
		c0.123-0.649,0.246-1.299,0.369-1.947c0.088-0.205,0.176-0.41,0.264-0.614c0.127-0.435,0.254-0.87,0.381-1.304
		c0.09-0.184,0.17-0.372,0.244-0.562c0.346-1.096,0.691-2.191,1.037-3.287c0.088-0.207,0.176-0.414,0.264-0.62
		c0.125-0.649,0.25-1.298,0.375-1.947c0.133-0.423,0.266-0.847,0.398-1.27c0.08-0.213,0.162-0.427,0.242-0.64
		c0.084-0.402,0.168-0.804,0.254-1.207c0.154-0.912,0.309-1.824,0.463-2.736c0.072-0.388,0.145-0.776,0.217-1.164
		c0.107-0.681,0.213-1.362,0.318-2.043c0.072-0.394,0.146-0.787,0.221-1.18c0.135-0.877,0.271-1.754,0.408-2.631
		c0.057-0.195,0.105-0.392,0.145-0.59c0.594-3.648,1.188-7.297,1.781-10.945c0.215-0.564,0.43-1.127,0.645-1.688
		c-0.084-0.113-0.168-0.227-0.252-0.34C269.987,87.667,269.838,87.84,269.692,88.013z M329.647,543.181
		c0-1.686-0.012-2.742,0.002-3.801c0.16-12.039-0.098-24.105,0.662-36.107c0.391-6.146-0.824-10.432-6.6-13.031
		c-1.43-0.643-2.645-1.771-3.941-2.699c-31.4-22.43-62.807-44.85-94.193-67.299c-17.036-12.186-34.019-24.445-51.052-36.635
		c-36.953-26.447-73.932-52.859-110.862-79.34c-1.919-1.377-3.394-1.387-5.472-0.295c-7.049,3.703-14.253,7.107-21.344,10.73
		c-9.248,4.727-18.445,9.551-28.117,14.568C115.816,400.654,222.404,471.701,329.647,543.181z M374.075,454.361
		c0.189-0.059,0.377-0.117,0.566-0.176c0-1.359-0.004-2.719,0-4.078c0.021-12.605-0.271-25.223,0.148-37.814
		c0.459-13.719,1.797-27.408,2.344-41.127c0.424-10.65,3.564-20.719,5.822-30.975c0.537-2.447,2.447-4.428,5.857-5.723
		c-0.889,6.752-1.596,12.723-2.48,18.666c-1.018,6.828-2.779,13.623-1.068,20.561c1.076,4.365,1.115,8.609-0.568,12.82
		c-0.367,0.92-0.66,1.871-0.986,2.807c0.289,0.141,0.58,0.283,0.869,0.424c1.266-1.863,2.418-3.818,3.818-5.576
		c4.139-5.197,6.189-10.836,5.617-17.688c-0.463-5.553-0.859-11.275,1.801-16.652c1.703-3.439,2.943-7.107,4.393-10.672
		c0.432,0.045,0.865,0.09,1.297,0.135c0.367,1.434,0.963,2.854,1.064,4.307c0.793,11.203-0.756,22.064-4.361,32.738
		c-2.141,6.33-3.91,12.85-5.105,19.42c-1.402,7.717-1.873,15.6-2.988,23.377c-0.965,6.744-2.682,13.404-3.303,20.172
		c-0.688,7.477-0.664,15.033-0.615,22.555c0.016,2.443,1.082,4.881,1.67,7.322c1.314-3.262,1.867-6.363,2.527-9.443
		c4.721-22.082,9.568-44.137,14.162-66.246c2.83-13.623,7.037-26.785,12.32-39.621c0.385-0.932,1.342-1.955,2.24-2.215
		c0.506-0.146,1.703,1.045,2.135,1.869c1.877,3.59,3.734,7.205,5.291,10.939c0.654,1.574,1.029,3.561,0.713,5.201
		c-1.949,10.041-4.191,20.025-6.227,30.051c-3.113,15.348-5.838,30.754-5.58,46.504c0.111,6.82,0.379,13.639,0.623,20.457
		c0.033,0.895,0.359,1.779,0.738,3.557c0.85-4.166,1.635-7.307,2.111-10.492c1.605-10.74,2.861-21.535,4.697-32.234
		c2.697-15.732,5.463-31.467,8.809-47.068c2.299-10.715,5.604-21.213,8.547-31.783c0.23-0.83,1.16-1.465,1.766-2.189
		c0.297,0.93,0.723,1.84,0.859,2.791c0.18,1.26,0.084,2.557,0.189,3.832c0.793,9.541,1.52,19.088,2.443,28.615
		c0.592,6.107,1.484,12.186,2.242,18.277c1.883-8.563,2.959-17.135,4.791-25.543c1.857-8.523,4.725-16.824,6.646-25.336
		c1.4-6.188,5.924-9.57,10.25-13.271c0.574-0.492,1.475-0.602,2.824-1.119c0.531,3.512,1.109,6.602,1.445,9.719
		c0.752,6.945,1.217,13.85,6.359,19.48c3,3.285,5.295,7.217,8.371,11.506c-1.236-7.211-2.215-13.602-3.449-19.945
		c-1.672-8.598-4.453-16.666-11.871-22.225c-0.758-0.566-1.533-1.656-2.264-1.627c-5.488,0.215-11.234-1.955-16.354,2.092
		c-1.666,1.316-4.098,2.332-6.18,2.33c-5.902-0.008-8.959,3.557-11.57,8.018c-0.322,0.553-0.691,1.078-1.045,1.611
		c-1.018,1.537-2.184,1.961-4.055,1.18c-4.125-1.723-8.33-3.264-12.564-4.705c-2.014-0.684-2.689-1.887-3.031-3.928
		c-0.873-5.215-2.084-10.371-3.227-15.865c-4.15,1.258-7.922,2.357-11.664,3.553c-2.428,0.773-3.863,0.082-4.529-2.451
		c-0.703-2.68-1.734-5.275-2.391-7.963c-1.086-4.434-2.596-8.885-2.807-13.381c-0.246-5.26,0.475-10.609,1.242-15.852
		c0.352-2.406,1.482-4.868,2.846-6.913c2.297-3.445,5.313-6.415,7.553-9.89c2.047-3.174,4.887-3.702,8.191-3.882
		c4.043-0.219,8.115-0.396,12.098-1.061c3.158-0.527,5.328,0.385,7.26,2.773c2.408,2.979,4.867,5.937,7.533,8.682
		c1.992,2.053,1.658,3.449-0.584,4.803c-3.646,2.2-7.318,4.358-10.912,6.64c-0.719,0.455-1.547,1.334-1.635,2.096
		c-0.752,6.5-1.346,13.02-2.047,20.141c1.43-2.291,2.543-4.184,3.76-6.006c4.818-7.201,8.789-14.959,16.469-19.998
		c3.658-2.401,6.264-6.405,9.332-9.669c-2.521,0.295-5.174,0.936-7.785,0.801c-1.945-0.102-4.246-0.735-5.676-1.961
		c-3.635-3.125-6.807-6.781-10.281-10.103c-3.766-3.599-7.57-7.31-12.93-8.32c-1.686-0.317-3.971-0.173-5.287,0.751
		c-5.666,3.973-11.141,8.232-16.537,12.572c-1.598,1.286-3.285,2.977-3.934,4.829c-1.756,5.015-3.553,10.139-4.254,15.366
		c-0.816,6.088-0.369,12.336-0.715,18.5c-0.145,2.607-0.533,5.326-1.465,7.744c-2.369,6.154-5.236,12.117-7.658,18.254
		c-1.902,4.82-5.023,9.439-3.063,15.127c0.346,1.008-0.045,2.322-0.256,3.463c-1.258,6.777-2.986,13.498-3.738,20.326
		c-0.822,7.469-0.957,15.033-1,22.559c-0.023,4.01,0.967,8.014,1.178,12.037c0.521,9.986-0.914,20.027,1.238,29.988
		C372.417,441.99,373.106,448.205,374.075,454.361z M367.84,91.694c3.254,2.575,7.383,5.84,12.184,9.638
		c-1.369-2.757-3.182-4.771-3.26-6.851c-0.309-8.276-0.449-16.595,0.074-24.853c0.434-6.866,2.738-13.676,2.672-20.497
		c-0.09-9.417-2.061-18.804-2.408-28.235c-0.256-6.894-5.639-8.746-9.598-12.583c0.848,6.231,1.656,11.986,2.404,17.75
		c0.629,4.847,2.287,9.878,1.547,14.518c-1.484,9.292-4.168,18.405-6.604,27.525c-1.779,6.656-4.064,13.174-5.912,19.813
		c-1.008,3.624-1.57,7.372-2.482,11.781C360.198,97.07,363.508,94.741,367.84,91.694z M529.596,312.964
		c0.297-0.043,6.711,19.549,7.008,19.506c-1.572-4.914-8.783-29.686-10.932-34.334c-4.734-10.248-9.85-20.331-15.172-30.29
		c-1.188-2.222-3.633-4.055-5.904-5.357c-6.064-3.476-12.609-6.159-18.465-9.931c-5.043-3.248-9.941-7.078-13.926-11.525
		c-5.369-5.991-9.891-12.759-14.604-19.316c-3.021-4.205-5.707-8.652-8.613-12.943c-0.713-1.055-1.705-1.923-2.568-2.878
		c-0.055,4.362,0.779,8.325,0.924,12.313c0.098,2.692,1.127,4.507,3.141,5.89c6.713,4.606,11.275,11.027,15.967,17.543
		c3.598,4.996,4.012,9.332,2.021,14.979c-2.793,7.92-3.004,6.429,4.697,9.172c4.574,1.629,8.543,1.672,12.795-0.705
		c1.656-0.926,4.025-1.572,5.783-1.15c8.939,2.141,15.918,7.553,20.377,15.336C518.405,290.242,523.815,301.71,529.596,312.964z
		 M324.67,93.632c-0.508-1.209-0.734-1.655-0.887-2.127c-1.826-5.639-4.984-11.007-4.225-17.212
		c0.641-5.225-1.115-9.345-4.795-12.874c-0.684-0.654-1.182-1.498-1.777-2.246c-2.336-2.932-4.676-5.86-7.193-9.015
		c-0.186,2.01-0.314,3.55-0.471,5.087c-0.723,7.158-2.205,14.222,0.193,21.469c2.434,7.36,2.25,14.938-0.713,22.204
		c-2.318,5.688-5.152,11.198-5.313,17.511c-0.096,3.807-0.018,7.617-0.018,11.931c1.127-1.07,1.629-1.874,2.342-2.172
		c4.869-2.039,6.875-5.917,7.336-10.907c0.096-1.044,0.578-2.05,0.701-3.095c0.283-2.417,1.814-2.643,3.686-2.149
		c1.893,0.5,3.746,1.145,5.914,1.818c-4.711-7.76-3.152-16.102-4.678-24.386C319.471,87.784,321.163,91.368,324.67,93.632z
		 M500.84,288.224c6.898-3.578,7.146-8.8,1.123-12.759c-2.389-1.571-4.762-3.18-7.045-4.901c-2.426-1.829-4.713-2.418-7.551-0.645
		c-2.141,1.339-4.619,2.157-6.986,3.113c-6.6,2.665-10.291,9.15-9.148,16.111c0.256,1.557,0.578,3.131,0.576,4.697
		c-0.006,3.459,1.145,5.891,4.734,6.977c1.91,0.58,3.645,1.74,5.465,2.625c4.283,2.082,5.299,1.916,9.033-1.51
		c-1.307-1.09-2.566-2.225-3.91-3.246c-4.941-3.756-4.641-10.305,0.66-13.598c2.074-1.289,4.295-2.383,6.217-3.87
		c1.887-1.459,2.805-0.775,3.682,0.974C498.68,284.164,499.729,286.103,500.84,288.224z M69.087,300.699
		c4.699,3.344,9.27,6.467,13.679,9.803c1.643,1.242,2.542,0.699,3.75-0.48c2.669-2.602,5.628-4.926,8.119-7.68
		c1.951-2.156,3.573-4.68,4.978-7.24c1.3-2.371,2.117-5.008,3.358-8.045C91.653,291.843,79.435,293.191,69.087,300.699z
		 M393.641,195.634c-0.447,1.123-1.313,2.262-1.268,3.364c0.186,4.635,2.768,7.731,6.953,9.477c1.473,0.614,4.174,1.598,4.453,1.178
		c1.096-1.653,1.877-3.777,1.971-5.765c0.115-2.4-0.607-4.836-0.928-7.263c-0.299-2.259-1.406-3.161-4.068-2.27
		c0,2.956,0,5.951,0,9.097C396.612,202.26,395.67,199.013,393.641,195.634z M385.049,196.099c-2.037,2.699-3.617,4.642-4.979,6.729
		c-0.283,0.434,0.027,1.819,0.457,2.055c2.318,1.277,4.762,2.332,7.51,3.625C386.997,204.189,386.131,200.596,385.049,196.099z"/>
</g>
<path fill-rule="evenodd" clip-rule="evenodd" fill="#FFFFFF" d="M260.544,129.821c-1.468,4.541-3.067,9.044-4.317,13.643
	c-0.348,1.278-0.03,3.042,0.62,4.234c2.799,5.13,5.513,10.363,8.917,15.082c1.781,2.471,4.916,3.973,7.46,5.885
	c5.009,3.764,9.934,7.657,15.121,11.16c1.318,0.89,3.793,1.212,5.223,0.6c8.306-3.56,16.502-7.387,24.635-11.33
	c2.396-1.161,4.122-1.251,5.818,0.972c1.284,1.683,2.833,3.164,4.172,4.811c2.604,3.201,6.124,1.63,9.286,1.819
	c1.144,0.068,2.312-0.325,3.472-0.487c2.058-0.286,5.139,0.179,5.974-0.98c1.981-2.749,3.367-6.161,4.106-9.501
	c0.662-2.993,0.14-6.248,0.14-9.6c3.003,3.263,6.446,6.118,8.614,9.737c1.074,1.793,0.103,5.065-0.495,7.534
	c-0.594,2.454-1.56,4.947-2.928,7.055c-2.914,4.489-1.082,8.615,0.489,12.775c0.79,2.092,2.474,1.567,4.028,0.829
	c3.809-1.812,7.614-3.627,11.524-5.49c0.611,3.999-0.087,7.268-2.518,10.333c-3.234,4.08-5.764,8.758-9.242,12.595
	c-4.308,4.751-4.571,10.41-5.544,16.205c-1.36,8.099,1.5,15.565,2.312,23.323c0.295,2.82,0.839,5.614,1.27,8.419
	c0.328,0.115,0.656,0.23,0.984,0.346c0.655-1.233,1.623-2.397,1.917-3.711c1.738-7.783,3.259-15.615,5.016-23.394
	c0.285-1.261,1.17-2.578,2.15-3.448c1.799-1.599,3.877-2.884,5.918-4.357c3.91,7.487,6.189,15.122,6.735,23.219
	c0.152,2.27,1.017,3.703,2.922,4.909c2.313,1.464,4.404,3.28,6.779,5.086c-1.349,1.752-2.495,3.397-3.798,4.908
	c-5.83,6.759-8.951,14.987-11.936,23.146c-1.415,3.869-1.221,8.376-1.475,12.61c-0.375,6.275-0.491,12.566-0.746,18.85
	c-0.033,0.837-0.232,1.667-0.496,3.466c-4.24-5.462-10.355-8.267-11.558-15.392c-1.674-9.919-5.385-19.244-9.64-28.307
	c-0.994-2.116-2.977-3.845-4.736-5.507c-2.318-2.19-4.921-4.075-7.3-6.205c-4.141-3.707-6.472-8.563-7.285-13.885
	c-1.058-6.917-0.973-14.029-2.326-20.869c-0.598-3.02-3.591-5.538-5.384-8.354c-4.535-7.121-12.602-8.69-19.361-12.287
	c-0.489-0.261-2.291,0.634-2.428,1.232c-0.994,4.352-1.966,8.737-2.47,13.166c-0.815,7.158-1.596,14.35-1.753,21.542
	c-0.105,4.799,0.896,9.623,1.437,14.75c-8.86-6.873-17.676-13.69-26.465-20.541c-2.84-2.215-5.516-4.65-8.439-6.744
	c-3.501-2.507-3.138-6.483-4.113-9.933c-0.975-3.451-1.6-7-2.548-10.46c-0.186-0.674-1.152-1.134-1.758-1.693
	c-0.129,0.748-0.427,1.511-0.358,2.241c0.72,7.7,1.292,15.421,2.312,23.083c1.391,10.46,2.939,20.908,4.782,31.296
	c1.765,9.94,4.227,19.759,5.906,29.712c0.71,4.208,2.963,7.133,5.544,10.094c3.221,3.694,6.775,7.165,9.512,11.19
	c1.955,2.877,3.102,6.421,4.07,9.821c1.444,5.067,2.413,10.27,3.739,16.099c-11.469-10.743-22.518-21.041-33.489-31.419
	c-1.902-1.799-2.959-1.451-4.088,0.713c-2.805,5.379-5.661,10.731-8.597,16.04c-2.731,4.938-1.449,10.262-1.455,15.4
	c-0.006,5.289,0.829,10.574,1.174,15.868c0.464,7.119,0.738,14.25,1.263,21.363c0.121,1.64,0.716,3.335,1.455,4.825
	c5.918,11.949,11.984,23.826,17.836,35.808c0.837,1.713,1.12,3.876,1.061,5.812c-0.123,3.985-0.652,7.958-1.029,12.104
	c-11.511-8.214-22.904-16.342-34.296-24.472c-9.442-6.739-18.798-13.604-28.369-20.154c-3.29-2.251-5.34-4.806-6.074-8.786
	c-0.864-4.681-1.317-4.791-5.228-2.33c-1.773,1.115-3.123,0.767-4.64-0.322c-12.802-9.188-25.621-18.354-38.433-27.529
	c-8.399-6.016-16.796-12.034-25.189-18.06c-0.84-0.604-1.643-1.26-3.317-2.549c8.947-6.518,17.382-12.752,25.922-18.839
	c3.636-2.592,7.549-4.793,11.237-7.317c9.444-6.467,20.501-9.276,30.824-13.749c5.039-2.185,10.152-4.233,15.032-6.734
	c2.511-1.286,4.593-3.416,6.85-5.189c4.08-3.206,3.163-8.056,3.981-12.325c0.061-0.318-0.278-0.904-0.59-1.073
	c-5.014-2.729-9.208-7.148-15.961-5.854c-5.832,1.118-11.87,1.154-17.816,1.681c-2.28,0.202-4.558,0.436-7.372,0.708
	c3.01-5.713,5.85-11.105,8.875-16.847c4.383,2.403,8.683,4.627,12.838,7.094c2.235,1.326,4,1.411,6.042-0.375
	c2.397-2.096,5.131-3.804,7.554-5.874c1.083-0.925,2.079-2.201,2.579-3.521c4.458-11.771,5.664-24.045,4.49-36.448
	c-0.474-5.009-2.134-10.04-4.025-14.752c-3.758-9.364-2.759-18.431-0.781-28.059c1.769-8.611,4.989-16.425,8.64-24.208
	c0.802-1.708,1.997-3.291,3.252-4.72c8.005-9.117,16.057-18.192,24.134-27.245c7.711-8.641,15.473-17.238,23.212-25.854
	c0.23-0.061,0.462-0.122,0.693-0.182c-0.215,0.563-0.43,1.127-0.645,1.691c-0.594,3.648-1.188,7.297-1.781,10.945
	c-0.04,0.198-0.089,0.395-0.145,0.59c-0.137,0.877-0.273,1.754-0.409,2.631c-0.073,0.393-0.147,0.786-0.22,1.18
	c-0.106,0.681-0.212,1.362-0.318,2.043c-0.072,0.388-0.145,0.776-0.217,1.165c-0.154,0.912-0.309,1.824-0.464,2.736
	c-0.085,0.403-0.169,0.805-0.254,1.207c-0.08,0.213-0.161,0.427-0.241,0.64c-0.133,0.423-0.266,0.846-0.399,1.27
	c-0.124,0.649-0.249,1.298-0.374,1.947c-0.089,0.207-0.177,0.414-0.265,0.62c-0.346,1.096-0.69,2.191-1.036,3.287
	c-0.074,0.19-0.155,0.378-0.245,0.562c-0.127,0.435-0.254,0.87-0.381,1.304c-0.088,0.205-0.176,0.41-0.264,0.614
	c-0.123,0.649-0.246,1.298-0.369,1.947c-0.09,0.207-0.18,0.414-0.27,0.62c-0.123,0.436-0.246,0.871-0.369,1.306
	c-0.09,0.206-0.181,0.412-0.271,0.618c-0.195,0.637-0.391,1.274-0.586,1.912c-0.094,0.171-0.145,0.355-0.151,0.551
	C260.552,129.367,260.548,129.594,260.544,129.821z"/>
<path fill-rule="evenodd" clip-rule="evenodd" fill="#FFFFFF" d="M329.49,543.104C222.248,471.623,115.66,400.576,8.573,329.196
	c9.672-5.018,18.869-9.843,28.117-14.568c7.091-3.623,14.295-7.028,21.344-10.731c2.078-1.092,3.552-1.081,5.472,0.295
	c36.93,26.48,73.909,52.893,110.863,79.34c17.033,12.189,34.016,24.449,51.051,36.635c31.386,22.45,62.793,44.87,94.192,67.299
	c1.298,0.928,2.513,2.057,3.941,2.7c5.776,2.6,6.991,6.885,6.601,13.03c-0.761,12.003-0.503,24.068-0.663,36.108
	C329.478,540.361,329.49,541.418,329.49,543.104z M166.331,425.486c1.594-2.764,3.127-5.288,4.498-7.897
	c0.334-0.636,0.372-1.627,0.146-2.325c-1.886-5.834,0.504-11.656,6.012-14.41c3.876-1.938,8.138-0.816,10.714,2.692
	c2.726,3.714,1.475,7.314-0.327,10.783c-1.819,3.505-4.667,5.749-8.833,5.881c-0.785,0.025-1.909-0.176-2.295,0.252
	c-2.164,2.4-4.149,4.962-6.245,7.529c4.644,3.159,8.896,6.054,12.85,8.744c2.552-2.368,4.74-4.398,6.929-6.428
	c-0.045-0.281-0.09-0.563-0.135-0.843c-0.951,0-1.902,0.025-2.852-0.006c-1.611-0.053-3.384,0.262-4.792-0.311
	c-2.012-0.818-3.756-2.296-5.639-3.507c1.663-1.96,1.663-1.96,5.045-1.328c7.446,1.39,13.659-3.686,13.777-11.256
	c0.122-7.783-7.134-15.785-15.833-17.056c-2.549-0.371-5.425-0.376-7.822,0.43c-7.61,2.561-9.99,10.764-5.571,18.15
	c0.773,1.293,2.278,2.546-0.21,4.003c-1.903-1.442-4.236-2.602-5.646-4.462c-1.233-1.628-1.428-4.043-2.082-6.11
	c-0.265,0.033-0.53,0.066-0.795,0.099c-1.275,2.843-2.55,5.685-3.863,8.611C157.735,419.678,161.862,422.466,166.331,425.486z
	 M150.944,414.889c0.341-2.395,0.607-4.13,0.833-5.87c1.219-9.387,2.486-18.77,3.569-28.173c0.143-1.242-0.3-3.045-1.158-3.746
	c-0.625-0.51-2.543,0.083-3.61,0.677c-9.085,5.058-18.113,10.219-27.138,15.383c-0.667,0.383-1.179,1.037-1.846,1.642
	C131.295,401.441,140.74,407.906,150.944,414.889z M199.51,443.737c4.936-7.358,9.779-14.577,14.766-22.011
	c2.141,1.413,4.071,2.702,6.016,3.968c2.798,1.819,4.54,4.024,3.384,7.665c-0.238,0.75,0.372,1.77,0.79,3.473
	c1.685-2.388,2.641-3.921,3.776-5.307c1.237-1.509,1.017-2.622-0.527-3.696c-7.067-4.916-14.11-9.868-21.197-14.757
	c-0.379-0.262-1.086-0.05-1.64-0.059c0.057,0.649-0.121,1.484,0.216,1.911c0.846,1.073,1.925,1.961,3.021,3.032
	c-4.333,6.512-8.664,12.938-12.893,19.429c-1.258,1.931-2.796,1.808-4.691,1.337c-0.867-0.216-1.876,0.145-3.635,0.329
	c5.154,3.623,9.303,6.578,13.514,9.441c0.44,0.299,1.248,0.058,1.885,0.066c-0.09-0.627,0.004-1.375-0.309-1.858
	C201.358,445.729,200.507,444.901,199.51,443.737z"/>
<path fill-rule="evenodd" clip-rule="evenodd" fill="#FFFFFF" d="M373.918,454.283c-0.969-6.155-1.658-12.37-2.972-18.451
	c-2.151-9.96-0.717-20.002-1.238-29.988c-0.21-4.023-1.2-8.027-1.178-12.036c0.044-7.525,0.179-15.09,1.001-22.559
	c0.752-6.829,2.479-13.55,3.737-20.326c0.211-1.142,0.603-2.455,0.256-3.463c-1.96-5.688,1.161-10.307,3.063-15.127
	c2.422-6.137,5.288-12.1,7.658-18.255c0.932-2.417,1.319-5.136,1.465-7.743c0.345-6.165-0.102-12.413,0.715-18.501
	c0.701-5.226,2.498-10.35,4.253-15.365c0.648-1.853,2.336-3.543,3.935-4.829c5.396-4.34,10.87-8.6,16.536-12.573
	c1.316-0.923,3.603-1.068,5.287-0.751c5.36,1.01,9.165,4.721,12.931,8.32c3.474,3.322,6.646,6.978,10.281,10.102
	c1.429,1.227,3.729,1.861,5.675,1.961c2.612,0.136,5.264-0.506,7.785-0.801c-3.068,3.264-5.674,7.269-9.332,9.669
	c-7.68,5.04-11.649,12.798-16.468,19.999c-1.218,1.821-2.33,3.714-3.76,6.005c0.701-7.121,1.295-13.64,2.047-20.141
	c0.088-0.762,0.916-1.64,1.635-2.095c3.594-2.281,7.266-4.439,10.911-6.641c2.242-1.354,2.577-2.749,0.584-4.803
	c-2.665-2.745-5.125-5.702-7.533-8.681c-1.931-2.389-4.102-3.301-7.26-2.773c-3.982,0.664-8.055,0.841-12.098,1.061
	c-3.304,0.179-6.144,0.708-8.19,3.881c-2.24,3.475-5.257,6.445-7.553,9.89c-1.364,2.046-2.495,4.508-2.847,6.913
	c-0.767,5.242-1.488,10.592-1.241,15.852c0.211,4.497,1.721,8.947,2.806,13.382c0.657,2.688,1.688,5.283,2.392,7.962
	c0.666,2.534,2.101,3.226,4.529,2.451c3.742-1.194,7.514-2.295,11.663-3.553c1.143,5.494,2.354,10.651,3.228,15.865
	c0.342,2.042,1.018,3.244,3.03,3.929c4.234,1.44,8.44,2.981,12.565,4.704c1.871,0.781,3.036,0.357,4.055-1.179
	c0.354-0.534,0.723-1.06,1.045-1.612c2.61-4.461,5.667-8.024,11.57-8.018c2.081,0.003,4.514-1.013,6.18-2.33
	c5.119-4.047,10.865-1.877,16.353-2.092c0.731-0.028,1.506,1.061,2.264,1.628c7.419,5.558,10.2,13.627,11.872,22.225
	c1.233,6.343,2.212,12.734,3.448,19.945c-3.076-4.289-5.37-8.221-8.371-11.507c-5.142-5.63-5.606-12.535-6.358-19.479
	c-0.337-3.117-0.915-6.208-1.445-9.719c-1.35,0.517-2.251,0.626-2.825,1.118c-4.326,3.702-8.85,7.084-10.249,13.272
	c-1.923,8.511-4.789,16.813-6.646,25.335c-1.832,8.408-2.909,16.98-4.792,25.544c-0.758-6.092-1.65-12.17-2.242-18.277
	c-0.924-9.528-1.65-19.075-2.442-28.615c-0.105-1.275-0.011-2.572-0.19-3.832c-0.136-0.952-0.563-1.862-0.859-2.791
	c-0.604,0.725-1.535,1.359-1.766,2.188c-2.943,10.57-6.248,21.069-8.546,31.783c-3.346,15.603-6.111,31.337-8.81,47.069
	c-1.835,10.698-3.091,21.494-4.696,32.233c-0.477,3.186-1.263,6.326-2.111,10.492c-0.38-1.776-0.706-2.661-0.738-3.557
	c-0.245-6.817-0.512-13.636-0.624-20.457c-0.257-15.749,2.468-31.155,5.581-46.503c2.034-10.025,4.276-20.01,6.226-30.051
	c0.317-1.641-0.058-3.627-0.713-5.202c-1.557-3.734-3.413-7.35-5.29-10.938c-0.432-0.825-1.629-2.017-2.135-1.87
	c-0.899,0.26-1.856,1.284-2.24,2.216c-5.284,12.836-9.491,25.998-12.321,39.621c-4.594,22.108-9.441,44.164-14.162,66.246
	c-0.659,3.079-1.213,6.182-2.527,9.443c-0.587-2.441-1.654-4.879-1.67-7.323c-0.049-7.521-0.072-15.078,0.615-22.555
	c0.622-6.768,2.338-13.427,3.304-20.172c1.114-7.776,1.585-15.659,2.988-23.376c1.194-6.57,2.965-13.09,5.104-19.421
	c3.605-10.673,5.154-21.534,4.362-32.738c-0.103-1.453-0.698-2.872-1.065-4.307c-0.432-0.045-0.864-0.09-1.297-0.134
	c-1.448,3.564-2.689,7.232-4.393,10.671c-2.66,5.377-2.264,11.101-1.8,16.652c0.572,6.852-1.479,12.491-5.618,17.688
	c-1.4,1.757-2.552,3.712-3.818,5.576c-0.289-0.142-0.579-0.283-0.868-0.424c0.326-0.937,0.618-1.888,0.986-2.808
	c1.684-4.211,1.645-8.455,0.568-12.819c-1.711-6.938,0.051-13.732,1.068-20.561c0.885-5.943,1.592-11.914,2.48-18.666
	c-3.41,1.294-5.32,3.275-5.858,5.722c-2.257,10.256-5.398,20.325-5.822,30.976c-0.546,13.718-1.884,27.407-2.343,41.127
	c-0.42,12.592-0.128,25.208-0.149,37.814c-0.003,1.358,0,2.718,0,4.077C374.295,454.166,374.107,454.224,373.918,454.283z"/>
<path fill-rule="evenodd" clip-rule="evenodd" fill="#FFFFFF" d="M454.715,195.305c-7.263-0.145-11.46-5.85-16.821-9.39
	c-3.896-2.573-7.248-6.033-11.283-8.321c-5.963-3.381-7.898-9.328-10.291-14.889c-0.736-1.713,0.252-4.679,1.337-6.561
	c2.239-3.886,1.948-6.879-1.093-10.253c-3.188-3.537-5.53-7.835-8.701-11.39c-2.364-2.652-5.243-5.002-8.271-6.874
	c-8.557-5.287-16.323-11.467-23.068-18.928l-0.085,0.044c5.592-0.274,10.258,1.069,14.5,5.356
	c6.185,6.251,13.244,11.629,19.78,17.545c2.247,2.034,4.005,4.602,6.056,6.863c2.336,2.576,5.061,4.862,7.057,7.672
	c2.76,3.885,5.993,6.044,10.9,6.704c8.081,1.086,16.304,2.104,23.619,6.228c1.154,0.651,2.098,1.69,3.105,2.587
	c1.103,0.98,2.029,2.236,3.271,2.97c8.646,5.111,16.38,11.011,19.433,21.224c-0.19,0.094-0.363,0.213-0.519,0.358
	c-3.935-0.917-7.374-2.557-10.88-4.807c-5.406-3.47-11.686-5.584-17.609-8.239c-0.748-0.335-1.588-0.468-2.48-0.721
	c-4.421,8.224-2.022,15.422,2.699,22.342C455.151,194.986,454.933,195.146,454.715,195.305z"/>
<path fill-rule="evenodd" clip-rule="evenodd" fill="#FFFFFF" d="M367.683,91.617c-4.331,3.047-7.643,5.376-11.383,8.007
	c0.912-4.409,1.476-8.157,2.483-11.781c1.847-6.64,4.133-13.158,5.911-19.813c2.437-9.12,5.12-18.233,6.604-27.525
	c0.741-4.639-0.918-9.671-1.547-14.518c-0.748-5.764-1.557-11.519-2.403-17.75c3.958,3.837,9.342,5.69,9.597,12.583
	c0.349,9.431,2.318,18.818,2.409,28.235c0.066,6.82-2.239,13.631-2.673,20.497c-0.522,8.257-0.382,16.577-0.074,24.853
	c0.078,2.079,1.891,4.094,3.26,6.851C375.066,97.457,370.938,94.191,367.683,91.617z"/>
<path fill-rule="evenodd" clip-rule="evenodd" fill="#FFFFFF" d="M529.44,312.887c-5.782-11.255-11.191-22.723-17.472-33.692
	c-4.458-7.784-11.438-13.197-20.377-15.337c-1.758-0.421-4.127,0.224-5.782,1.15c-4.252,2.376-8.221,2.334-12.795,0.705
	c-7.702-2.743-7.49-1.251-4.698-9.171c1.991-5.646,1.576-9.983-2.021-14.979c-4.691-6.515-9.254-12.936-15.967-17.542
	c-2.015-1.382-3.043-3.197-3.141-5.89c-0.146-3.987-0.979-7.951-0.925-12.313c0.864,0.955,1.855,1.823,2.569,2.878
	c2.906,4.291,5.591,8.738,8.612,12.943c4.714,6.558,9.234,13.325,14.604,19.316c3.984,4.448,8.883,8.277,13.927,11.526
	c5.854,3.771,12.4,6.455,18.464,9.93c2.272,1.303,4.718,3.136,5.905,5.357c5.322,9.958,10.437,20.042,15.172,30.29
	c2.148,4.648,3.242,9.784,4.814,14.698C530.034,312.801,529.737,312.844,529.44,312.887z"/>
<path fill-rule="evenodd" clip-rule="evenodd" fill="#FFFFFF" d="M324.514,93.554c-3.508-2.264-5.2-5.848-9.897-6.162
	c1.526,8.284-0.033,16.626,4.679,24.386c-2.168-0.673-4.021-1.318-5.914-1.818c-1.872-0.494-3.403-0.269-3.687,2.149
	c-0.123,1.045-0.604,2.05-0.701,3.095c-0.461,4.989-2.466,8.868-7.336,10.907c-0.713,0.298-1.215,1.102-2.341,2.171
	c0-4.313-0.078-8.124,0.018-11.93c0.159-6.313,2.994-11.823,5.313-17.511c2.962-7.267,3.146-14.844,0.712-22.204
	c-2.397-7.247-0.916-14.311-0.192-21.469c0.155-1.537,0.285-3.077,0.47-5.087c2.518,3.155,4.857,6.083,7.193,9.015
	c0.596,0.748,1.095,1.591,1.777,2.246c3.681,3.528,5.437,7.649,4.796,12.874c-0.76,6.205,2.398,11.573,4.225,17.212
	C323.78,91.899,324.006,92.345,324.514,93.554z"/>
<path fill-rule="evenodd" clip-rule="evenodd" fill="#FFFFFF" d="M500.683,288.146c-1.11-2.121-2.16-4.061-3.149-6.031
	c-0.878-1.749-1.796-2.433-3.683-0.973c-1.921,1.486-4.142,2.581-6.217,3.87c-5.3,3.292-5.601,9.842-0.66,13.597
	c1.345,1.022,2.604,2.156,3.911,3.246c-3.734,3.427-4.751,3.593-9.034,1.51c-1.819-0.885-3.554-2.045-5.464-2.624
	c-3.59-1.086-4.74-3.519-4.735-6.977c0.002-1.566-0.319-3.141-0.575-4.698c-1.144-6.96,2.549-13.445,9.148-16.111
	c2.367-0.956,4.846-1.774,6.986-3.112c2.838-1.774,5.124-1.185,7.551,0.644c2.283,1.721,4.655,3.33,7.045,4.901
	C507.831,279.347,507.583,284.569,500.683,288.146z"/>
<path fill-rule="evenodd" clip-rule="evenodd" fill="#FFFFFF" d="M68.93,300.621c10.348-7.508,22.566-8.855,33.883-13.642
	c-1.241,3.036-2.058,5.673-3.358,8.044c-1.404,2.561-3.026,5.084-4.978,7.241c-2.491,2.754-5.45,5.078-8.119,7.68
	c-1.208,1.179-2.108,1.722-3.75,0.479C78.2,307.087,73.629,303.965,68.93,300.621z"/>
<path fill-rule="evenodd" clip-rule="evenodd" fill="#FFFFFF" d="M393.485,195.557c2.028,3.379,2.971,6.625,7.113,7.818
	c0-3.146,0-6.14,0-9.097c2.662-0.892,3.77,0.01,4.067,2.27c0.32,2.426,1.043,4.862,0.929,7.263
	c-0.095,1.988-0.875,4.111-1.972,5.765c-0.278,0.419-2.979-0.564-4.453-1.178c-4.185-1.745-6.767-4.842-6.953-9.477
	C392.172,197.818,393.038,196.679,393.485,195.557z"/>
<path fill-rule="evenodd" clip-rule="evenodd" fill="#EAEDE9" d="M384.892,196.021c1.083,4.498,1.948,8.092,2.988,12.41
	c-2.747-1.294-5.19-2.348-7.51-3.625c-0.429-0.235-0.739-1.622-0.457-2.055C381.275,200.663,382.856,198.721,384.892,196.021z"/>
<path fill-rule="evenodd" clip-rule="evenodd" fill="#FFFFFF" d="M536.447,332.393c-1.382-5.644-5.051-15.698-7.007-19.506
	c0.502-0.117,0.389-0.013,0.891-0.13"/>
<path fill-rule="evenodd" clip-rule="evenodd" fill="#7C9C76" d="M267.803,100.39c0.594-3.648,1.188-7.297,1.781-10.945
	C268.991,93.093,268.397,96.742,267.803,100.39z"/>
<path fill-rule="evenodd" clip-rule="evenodd" fill="#7C9C76" d="M266.031,110.734c0.155-0.912,0.31-1.824,0.464-2.736
	C266.34,108.91,266.186,109.822,266.031,110.734z"/>
<path fill-rule="evenodd" clip-rule="evenodd" fill="#7C9C76" d="M263.461,119.705c0.346-1.096,0.69-2.191,1.036-3.287
	C264.152,117.514,263.807,118.609,263.461,119.705z"/>
<path fill-rule="evenodd" clip-rule="evenodd" fill="#7C9C76" d="M266.711,106.834c0.106-0.681,0.212-1.362,0.318-2.043
	C266.923,105.472,266.818,106.153,266.711,106.834z"/>
<path fill-rule="evenodd" clip-rule="evenodd" fill="#7C9C76" d="M267.25,103.611c0.136-0.877,0.272-1.754,0.409-2.631
	C267.522,101.856,267.385,102.734,267.25,103.611z"/>
<path fill-rule="evenodd" clip-rule="evenodd" fill="#7C9C76" d="M260.707,128.589c0.195-0.638,0.391-1.275,0.586-1.912
	C261.097,127.314,260.902,127.952,260.707,128.589z"/>
<path fill-rule="evenodd" clip-rule="evenodd" fill="#7C9C76" d="M262.203,124.133c0.123-0.649,0.246-1.298,0.369-1.947
	C262.449,122.834,262.326,123.483,262.203,124.133z"/>
<path fill-rule="evenodd" clip-rule="evenodd" fill="#7C9C76" d="M264.762,115.798c0.125-0.649,0.25-1.298,0.374-1.947
	C265.012,114.5,264.887,115.149,264.762,115.798z"/>
<path fill-rule="evenodd" clip-rule="evenodd" fill="none" d="M457.464,189.157c-0.227-0.381-0.454-0.762-0.681-1.143
	c0.498,0.167,0.996,0.333,1.493,0.5C458.006,188.729,457.735,188.942,457.464,189.157z"/>
<path fill-rule="evenodd" clip-rule="evenodd" fill="none" d="M455.37,194.826c0.178,0.291,0.355,0.581,0.533,0.872
	c-0.396-0.13-0.791-0.261-1.188-0.392C454.933,195.146,455.151,194.986,455.37,194.826z"/>
<path fill-rule="evenodd" clip-rule="evenodd" fill="#7C9C76" d="M261.564,126.059c0.123-0.435,0.246-0.87,0.369-1.306
	C261.81,125.189,261.687,125.624,261.564,126.059z"/>
<path fill-rule="evenodd" clip-rule="evenodd" fill="#7C9C76" d="M262.835,121.571c0.127-0.435,0.254-0.87,0.381-1.304
	C263.089,120.702,262.962,121.136,262.835,121.571z"/>
<path fill-rule="evenodd" clip-rule="evenodd" fill="#7C9C76" d="M269.536,87.936c0.146-0.173,0.294-0.346,0.44-0.519
	c0.084,0.113,0.168,0.227,0.252,0.339C269.998,87.814,269.766,87.875,269.536,87.936z"/>
<path fill-rule="evenodd" clip-rule="evenodd" fill="none" d="M376.523,108.699c-0.091-0.15-0.182-0.299-0.272-0.448
	c0.131,0.029,0.262,0.057,0.393,0.085c-0.064,0.135-0.129,0.269-0.199,0.405C376.438,108.744,376.523,108.699,376.523,108.699z"/>
<path fill-rule="evenodd" clip-rule="evenodd" fill="#7C9C76" d="M265.536,112.582c0.08-0.213,0.161-0.427,0.241-0.64
	C265.697,112.155,265.616,112.369,265.536,112.582z"/>
<path fill-rule="evenodd" clip-rule="evenodd" fill="none" d="M484.159,185.893c-0.006,0.301-0.012,0.602-0.019,0.903
	c-0.166-0.182-0.334-0.363-0.5-0.545C483.795,186.106,483.968,185.987,484.159,185.893z"/>
<path fill-rule="evenodd" clip-rule="evenodd" fill="#7C9C76" d="M260.544,129.821c0.004-0.227,0.008-0.454,0.011-0.681
	C260.552,129.367,260.548,129.594,260.544,129.821z"/>
<path fill-rule="evenodd" clip-rule="evenodd" fill="#1B6A0C" d="M166.331,425.486c-4.469-3.02-8.595-5.808-12.971-8.764
	c1.313-2.927,2.588-5.769,3.863-8.611c0.265-0.032,0.53-0.065,0.795-0.099c0.654,2.067,0.848,4.482,2.082,6.11
	c1.41,1.86,3.743,3.02,5.646,4.462c2.488-1.457,0.983-2.71,0.21-4.003c-4.418-7.387-2.039-15.59,5.571-18.15
	c2.396-0.806,5.273-0.801,7.822-0.43c8.699,1.271,15.956,9.272,15.833,17.056c-0.119,7.57-6.331,12.646-13.777,11.256
	c-3.382-0.632-3.382-0.632-5.045,1.328c1.883,1.211,3.627,2.688,5.639,3.507c1.407,0.572,3.181,0.258,4.792,0.311
	c0.95,0.031,1.901,0.006,2.852,0.006c0.045,0.28,0.09,0.562,0.135,0.843c-2.188,2.029-4.376,4.06-6.929,6.428
	c-3.953-2.69-8.206-5.585-12.85-8.744c2.096-2.567,4.082-5.129,6.245-7.529c0.386-0.428,1.51-0.227,2.295-0.252
	c4.167-0.132,7.014-2.376,8.833-5.881c1.801-3.469,3.053-7.069,0.327-10.783c-2.576-3.509-6.838-4.631-10.714-2.692
	c-5.507,2.754-7.898,8.576-6.012,14.41c0.226,0.698,0.188,1.689-0.146,2.325C169.458,420.198,167.924,422.722,166.331,425.486z"/>
<path fill-rule="evenodd" clip-rule="evenodd" fill="#1A690B" d="M150.944,414.889c-10.204-6.983-19.649-13.448-29.35-20.088
	c0.667-0.604,1.179-1.259,1.846-1.642c9.025-5.164,18.052-10.325,27.138-15.383c1.067-0.594,2.985-1.187,3.61-0.677
	c0.858,0.701,1.301,2.504,1.158,3.746c-1.083,9.403-2.351,18.786-3.569,28.173C151.551,410.759,151.285,412.495,150.944,414.889z
	 M129.873,393.724c5.372,3.659,10.208,6.954,15.575,10.611c1.138-7.656,2.152-14.473,3.284-22.086
	C142.092,386.29,136.207,389.87,129.873,393.724z"/>
<path fill-rule="evenodd" clip-rule="evenodd" fill="#1C6A0D" d="M199.51,443.737c0.997,1.164,1.848,1.992,2.476,2.964
	c0.313,0.483,0.218,1.231,0.309,1.858c-0.637-0.009-1.445,0.232-1.885-0.066c-4.211-2.863-8.359-5.818-13.514-9.441
	c1.758-0.185,2.768-0.545,3.635-0.329c1.895,0.471,3.433,0.594,4.691-1.337c4.229-6.491,8.56-12.917,12.893-19.429
	c-1.096-1.071-2.175-1.959-3.021-3.032c-0.337-0.427-0.16-1.262-0.216-1.911c0.554,0.009,1.261-0.203,1.64,0.059
	c7.087,4.889,14.129,9.841,21.197,14.757c1.544,1.074,1.765,2.188,0.527,3.696c-1.136,1.386-2.092,2.919-3.776,5.307
	c-0.417-1.703-1.028-2.723-0.79-3.473c1.155-3.641-0.586-5.846-3.384-7.665c-1.945-1.266-3.875-2.555-6.016-3.968
	C209.29,429.16,204.446,436.378,199.51,443.737z"/>
<path fill-rule="evenodd" clip-rule="evenodd" fill="#FFFFFF" d="M129.873,393.724c6.334-3.854,12.219-7.435,18.859-11.475
	c-1.132,7.613-2.146,14.43-3.284,22.086C140.08,400.678,135.244,397.383,129.873,393.724z"/>
</svg>
